<?xml version="1.0" standalone="no"?>
<!DOCTYPE svg PUBLIC "-//W3C//DTD SVG 1.1//EN" "http://www.w3.org/Graphics/SVG/1.1/DTD/svg11.dtd" >
<svg xmlns="http://www.w3.org/2000/svg" xmlns:xlink="http://www.w3.org/1999/xlink" version="1.1">
<metadata>
Created by FontForge 20170731 at Thu Jun  9 20:59:19 2022
 By Aleksey,,,
Copyright 2014 The Alumni Sans Pinstripe Project Authors (https://github.com/googlefonts/alumni-sans-pinstripe)
</metadata>
<defs>
<font id="AlumniSansPinstripe-Regular" horiz-adv-x="0" >
  <font-face 
    font-family="Alumni Sans Pinstripe"
    font-weight="400"
    font-stretch="normal"
    units-per-em="1000"
    panose-1="0 0 0 0 0 0 0 0 0 0"
    ascent="800"
    descent="-200"
    x-height="495"
    cap-height="591"
    bbox="-134 -286 894 810"
    underline-thickness="50"
    underline-position="-175"
    unicode-range="U+000D-FB02"
  />
<missing-glyph horiz-adv-x="538" 
d="M58 0l-8 9v611l8 10h421l9 -9v-613l-9 -8h-421zM67 16h404v597h-404v-597zM102 49v528h335v-528h-335zM173 116l90 163l91 -163l19 34l-90 164l90 165l-19 35l-91 -164l-90 164l-19 -35l90 -163l-90 -166z" />
    <glyph glyph-name="fi" unicode="fi" horiz-adv-x="322" 
d="M70 0v458h-31v16h31v69q0 93 105 93q24 0 46.5 -4t38.5 -9v-17q-19 8 -43 11.5t-41 3.5q-49 0 -69.5 -18.5t-20.5 -54.5v-74h168v-474h-16v458h-152v-458h-16z" />
    <glyph glyph-name="fl" unicode="fl" horiz-adv-x="322" 
d="M70 0v458h-31v16h31v69q0 93 105 93q22 0 42.5 -3t36.5 -8v-625h-16v613q-16 5 -32.5 6.5t-29.5 1.5q-49 0 -69.5 -18.5t-20.5 -54.5v-74h95v-16h-95v-458h-16z" />
    <glyph glyph-name="f_f" unicode="ff" horiz-adv-x="356" 
d="M70 0v458h-31v16h31v69q0 93 105 93q26 0 49.5 -4.5t38.5 -10.5q18 15 48 15q19 0 35.5 -1.5t23.5 -2.5v-16q-18 2 -32 3.5t-28 1.5q-34 0 -45 -22.5t-11 -50.5v-74h116v-16h-116v-458h-16v458h-152v-458h-16zM86 474h152v69q0 45 14 66q-18 7 -39 9.5t-37 2.5
q-49 0 -69.5 -18.5t-20.5 -54.5v-74z" />
    <glyph glyph-name="f_f_i" unicode="ffi" horiz-adv-x="490" 
d="M70 0v458h-31v16h31v69q0 93 105 93q27 0 52 -5t40 -11l3 -1q28 17 73 17q24 0 46.5 -4t38.5 -9v-17q-19 8 -43 11.5t-41 3.5q-49 0 -69.5 -18.5t-20.5 -54.5v-74h168v-474h-16v458h-152v-458h-16v458h-152v-458h-16zM86 474h152v69q0 42 19 64q-18 8 -41 11t-40 3
q-49 0 -69.5 -18.5t-20.5 -54.5v-74z" />
    <glyph glyph-name="f_f_l" unicode="ffl" horiz-adv-x="490" 
d="M70 0v458h-31v16h31v69q0 93 105 93q27 0 52 -5t40 -11l3 -1q28 17 73 17q22 0 42.5 -3t36.5 -8v-625h-16v613q-16 5 -32.5 6.5t-29.5 1.5q-49 0 -69.5 -18.5t-20.5 -54.5v-74h95v-16h-95v-458h-16v458h-152v-458h-16zM86 474h152v69q0 42 19 64q-18 8 -41 11t-40 3
q-49 0 -69.5 -18.5t-20.5 -54.5v-74z" />
    <glyph glyph-name=".notdef" horiz-adv-x="538" 
d="M58 0l-8 9v611l8 10h421l9 -9v-613l-9 -8h-421zM67 16h404v597h-404v-597zM102 49v528h335v-528h-335zM173 116l90 163l91 -163l19 34l-90 164l90 165l-19 35l-91 -164l-90 164l-19 -35l90 -163l-90 -166z" />
    <glyph glyph-name=".null" 
 />
    <glyph glyph-name="nonmarkingreturn" horiz-adv-x="333" 
 />
    <glyph glyph-name="CR" unicode="&#xd;" 
 />
    <glyph glyph-name="space" unicode=" " horiz-adv-x="155" 
 />
    <glyph glyph-name="exclam" unicode="!" horiz-adv-x="152" 
d="M71 195l-3 162v273h16v-273l-4 -162h-9zM76 -3q-16 0 -16 16t16 16t16 -16t-16 -16z" />
    <glyph glyph-name="quotedbl" unicode="&#x22;" horiz-adv-x="226" 
d="M62 431l-2 200h16l-6 -200h-8zM152 431l-2 200h16l-6 -200h-8z" />
    <glyph glyph-name="numbersign" unicode="#" horiz-adv-x="652" 
d="M117 0l64 200h-141l4 16h141l59 184h-141l5 16h141l49 157h16l-49 -157h190l48 157h18l-49 -157h140l-5 -16h-140l-59 -184h140l-4 -16h-140l-63 -200h-18l63 200h-189l-63 -200h-17zM201 216h190l59 184h-190z" />
    <glyph glyph-name="dollar" unicode="$" horiz-adv-x="320" 
d="M104 -81l18 139q-37 7 -59 32t-22 69v67h16v-67q0 -35 18 -56.5t49 -28.5l30 240v0q-31 14 -57 28t-41.5 34.5t-15.5 53.5v34q0 42 32 70t89 28q13 0 25 -1l12 98h16l-13 -101q36 -7 57.5 -30.5t21.5 -66.5v-65h-16v59q0 73 -65 87l-28 -219q28 -12 52.5 -27.5t40 -39
t15.5 -62.5v-38q0 -38 -17 -60.5t-44 -32t-59 -9.5q-11 0 -22 1l-17 -136h-16zM56 437q0 -33 16.5 -53t40 -32t43.5 -22l27 215q-10 1 -22 1q-50 0 -77.5 -25t-27.5 -66v-18zM263 194q0 34 -13 55t-34.5 34t-46.5 24l-30 -236q10 -1 20 -1q47 0 75.5 20t28.5 66v38z" />
    <glyph glyph-name="percent" unicode="%" horiz-adv-x="536" 
d="M101 0l317 591h18l-316 -591h-19zM133 280q-47 0 -65 16t-18 62v160q0 42 18 57.5t65 15.5t65.5 -15.5t18.5 -57.5v-160q0 -46 -18.5 -62t-65.5 -16zM133 297q41 0 54.5 15t13.5 52v148q0 33 -13 48t-55 15q-41 0 -54.5 -15t-13.5 -48v-148q0 -37 13 -52t55 -15zM402 -5
q-47 0 -65 16t-18 62v160q0 42 18 57.5t65 15.5t65.5 -15.5t18.5 -57.5v-160q0 -46 -18.5 -62t-65.5 -16zM402 12q41 0 54.5 15t13.5 52v148q0 33 -13 48t-55 15q-41 0 -54.5 -15t-13.5 -48v-148q0 -37 13 -52t55 -15z" />
    <glyph glyph-name="ampersand" unicode="&#x26;" horiz-adv-x="520" 
d="M216 -6q-54 0 -86 19.5t-46 52.5t-14 72v40q0 49 30.5 88.5t81.5 47.5q-16 20 -24.5 41.5t-8.5 49.5q0 48 27.5 74.5t87.5 26.5q35 0 64 -7t40 -12v-18q-13 6 -42.5 13.5t-61.5 7.5q-51 0 -74 -20.5t-23 -56.5v-7q0 -31 11 -52t24 -38q35 -42 70.5 -84.5t71.5 -84.5v170
h128v-16h-112v-174q10 -12 27 -30.5t35.5 -37.5t34.5 -32.5t23 -14.5v-16q-20 5 -53.5 38t-68.5 71q0 -25 -16.5 -51t-48 -43t-77.5 -17zM216 10q60 0 94 32t34 81q-39 46 -77.5 90.5t-73.5 87.5q-24 2 -48.5 -14.5t-41.5 -45t-17 -63.5v-44q0 -61 33.5 -92.5t96.5 -31.5z
" />
    <glyph glyph-name="quotesingle" unicode="'" horiz-adv-x="136" 
d="M62 431l-2 200h16l-6 -200h-8z" />
    <glyph glyph-name="parenleft" unicode="(" horiz-adv-x="324" 
d="M283 -124q-52 4 -91.5 36.5t-66.5 85t-41 117.5t-14 134q0 72 16.5 142.5t46.5 129.5t71 98t90 48v-12q-44 -13 -81.5 -50.5t-66 -92.5t-44 -121.5t-15.5 -138.5q0 -66 12.5 -128t37.5 -112.5t61.5 -83t84.5 -40.5v-12z" />
    <glyph glyph-name="parenright" unicode=")" horiz-adv-x="324" 
d="M41 667q52 -4 91.5 -36.5t66.5 -85t41 -117.5t14 -134q0 -72 -16.5 -142.5t-46.5 -129.5t-71 -98t-90 -48v12q44 14 81.5 51t66 92t44 121.5t15.5 138.5q0 66 -12.5 128t-37.5 112.5t-61.5 83.5t-84.5 40v12z" />
    <glyph glyph-name="asterisk" unicode="*" horiz-adv-x="469" 
d="M121 264l-13 9l114 156l-182 59l5 15l182 -61v188h16l-2 -188l183 60l5 -15l-184 -56l116 -157l-14 -10l-113 157z" />
    <glyph glyph-name="plus" unicode="+" horiz-adv-x="364" 
d="M174 160v124h-124v16h124v124h16v-124h124v-16h-124v-124h-16z" />
    <glyph glyph-name="comma" unicode="," horiz-adv-x="132" 
d="M41 -87q6 11 15.5 31t9.5 33q0 10 -7.5 14t-7.5 19q0 7 4.5 13t12.5 6q11 0 16 -7.5t5 -17.5q0 -20 -11 -46t-24 -45h-13z" />
    <glyph glyph-name="hyphen" unicode="-" horiz-adv-x="269" 
d="M45 244v16h179v-16h-179z" />
    <glyph glyph-name="period" unicode="." horiz-adv-x="132" 
d="M66 -3q-16 0 -16 16t16 16t16 -16t-16 -16z" />
    <glyph glyph-name="slash" unicode="/" horiz-adv-x="441" 
d="M40 -46l344 677h17l-343 -677h-18z" />
    <glyph glyph-name="zero" unicode="0" horiz-adv-x="412" 
d="M205 -12q-57 0 -98.5 41t-41.5 129v270q0 59 19.5 97t52 56t70.5 18q58 0 99 -42t41 -129v-270q0 -88 -41.5 -129t-100.5 -41zM206 4q55 0 90 42t35 115v265q0 74 -35.5 115.5t-89.5 41.5t-89.5 -41.5t-35.5 -115.5v-265q0 -73 35.5 -115t89.5 -42z" />
    <glyph glyph-name="one" unicode="1" horiz-adv-x="201" 
d="M109 0v495h-85v16h47q21 0 30 11.5t9 29.5v39h15v-591h-16z" />
    <glyph glyph-name="two" unicode="2" horiz-adv-x="385" 
d="M66 0v105q0 45 18.5 73t48 48t62.5 40q51 31 86 70.5t35 103.5v14q0 63 -29 93.5t-91 30.5q-52 0 -85 -27.5t-33 -88.5v-53h-16v49q0 70 35.5 103.5t98.5 33.5q70 0 103 -37t33 -108q0 -69 -33 -115t-93 -81q-34 -19 -61.5 -38.5t-44 -45t-16.5 -65.5v-89h254v-16h-272z
" />
    <glyph glyph-name="three" unicode="3" horiz-adv-x="390" 
d="M200 -8q-67 0 -104 37.5t-37 107.5v46h16v-46q0 -67 32 -97.5t93 -32.5q125 3 125 130v26q0 63 -31.5 100.5t-93.5 37.5h-64v16h64q54 0 86 35.5t32 87.5v19q0 56 -27.5 88t-90.5 32t-91 -32t-28 -88v-30h-16v31q0 62 34 98.5t101 36.5t101 -36.5t34 -98.5v-18
q0 -52 -28.5 -88t-76.5 -45q40 -5 64.5 -27t35.5 -53t11 -66v-26q0 -72 -38 -108.5t-103 -36.5z" />
    <glyph glyph-name="four" unicode="4" horiz-adv-x="364" 
d="M261 0v119h-226v15l229 457h13v-456h52v-16h-52v-119h-16zM53 135h208v414z" />
    <glyph glyph-name="five" unicode="5" horiz-adv-x="430" 
d="M222 -8q-21 0 -45 4t-46 19t-36 47t-14 89v17h16v-14q0 -22 3 -48t15 -49.5t37.5 -38t70.5 -14.5q60 0 96 39t36 117v82q0 38 -10.5 68t-38 48t-80.5 18q-58 0 -89 -26.5t-33 -53.5h-15v295h257v-16h-242v-237q18 26 50 40t72 14q43 0 75.5 -13t51 -45.5t18.5 -92.5v-78
q0 -72 -22 -108.5t-56.5 -49.5t-70.5 -13z" />
    <glyph glyph-name="six" unicode="6" horiz-adv-x="428" 
d="M215 -9q-20 0 -45 3.5t-48.5 17.5t-39 46.5t-15.5 90.5v301q0 66 41 104.5t105 38.5q65 0 100 -33.5t35 -103.5v-7h-16v11q0 60 -31.5 88.5t-87.5 28.5q-60 0 -94.5 -35t-34.5 -88v-166q24 29 57.5 48t84.5 19q41 0 72.5 -13t49 -45.5t17.5 -91.5v-47q0 -54 -13 -87.5
t-34.5 -50.5t-48.5 -23t-54 -6zM215 7q62 0 98 36.5t36 114.5v32q0 40 -9.5 74t-36 54.5t-77.5 20.5q-40 0 -72.5 -17t-51.5 -41t-19 -47v-82q0 -22 4 -47.5t17 -47.5t39.5 -36t71.5 -14z" />
    <glyph glyph-name="seven" unicode="7" horiz-adv-x="275" 
d="M59 0l169 575h-216v16h233v-15l-169 -576h-17z" />
    <glyph glyph-name="eight" unicode="8" horiz-adv-x="404" 
d="M202 -8q-67 0 -104 37.5t-37 107.5v26q0 35 10.5 66t35 53t65.5 27q-48 9 -76.5 45t-28.5 88v18q0 62 34 98.5t101 36.5t101 -36.5t34 -98.5v-18q0 -52 -28.5 -88t-76.5 -45q42 -5 66 -27t34.5 -53t10.5 -66v-26q0 -72 -38 -108.5t-103 -36.5zM202 318q33 0 60 16.5
t43 44t16 61.5v19q0 53 -28.5 86.5t-90.5 33.5q-61 0 -90 -33.5t-29 -86.5v-19q0 -34 16 -61.5t43.5 -44t59.5 -16.5zM202 8q62 2 93.5 35.5t31.5 93.5v26q0 62 -33.5 99.5t-91.5 37.5q-57 0 -91 -37.5t-34 -99.5v-26q0 -62 33 -94.5t92 -34.5z" />
    <glyph glyph-name="nine" unicode="9" horiz-adv-x="428" 
d="M215 -9q-65 0 -100 33.5t-35 103.5v7h16v-11q0 -60 31.5 -88.5t87.5 -28.5q60 0 94.5 35t34.5 88v166q-24 -28 -57.5 -47.5t-84.5 -19.5q-61 0 -100 32.5t-39 117.5v47q0 54 13 87.5t34.5 50.5t48.5 23t54 6q20 0 45 -4t48.5 -18.5t39 -46.5t15.5 -89v-301
q0 -66 -41 -104.5t-105 -38.5zM202 245q41 0 70.5 15t48 34.5t24.5 32.5v105q0 23 -4 48t-17 47t-39.5 36t-71.5 14q-65 0 -99.5 -36.5t-34.5 -114.5v-32q0 -40 9.5 -74t36.5 -54.5t77 -20.5z" />
    <glyph glyph-name="colon" unicode=":" horiz-adv-x="132" 
d="M66 317q-16 0 -16 16t16 16t16 -16t-16 -16zM66 -3q-16 0 -16 16t16 16t16 -16t-16 -16z" />
    <glyph glyph-name="semicolon" unicode=";" horiz-adv-x="132" 
d="M69 317q-16 0 -16 16t16 16t16 -16t-16 -16zM41 -87q3 4 12.5 20t13.5 30q2 8 2 11q0 8 -3 13.5t-7 9.5q-6 8 -6 16q0 6 4.5 11.5t12.5 5.5q10 0 14.5 -6.5t4.5 -14.5q0 -14 -2.5 -25.5t-5.5 -19.5q-5 -13 -14.5 -28.5t-15.5 -22.5h-10z" />
    <glyph glyph-name="less" unicode="&#x3c;" horiz-adv-x="328" 
d="M278 163l-238 157v13l238 158v-19l-220 -146l220 -143v-20z" />
    <glyph glyph-name="equal" unicode="=" horiz-adv-x="375" 
d="M50 390v16h275v-16h-275zM50 177v16h275v-16h-275z" />
    <glyph glyph-name="greater" unicode="&#x3e;" horiz-adv-x="328" 
d="M50 163v19l220 144l-220 146v19l238 -158v-13z" />
    <glyph glyph-name="question" unicode="?" horiz-adv-x="363" 
d="M126 144v122h59q24 0 50.5 12t45.5 38.5t19 69.5v65q0 62 -30 95t-91 33q-52 0 -80 -30t-28 -87v-33h-16v29q0 137 122 137q74 0 106.5 -35t32.5 -111v-71q0 -46 -21 -74.5t-50.5 -41t-55.5 -12.5h-47v-106h-16zM137 -3q-16 0 -16 16t16 16t16 -16t-16 -16z" />
    <glyph glyph-name="at" unicode="@" horiz-adv-x="720" 
d="M356 -64q-114 0 -178.5 36t-91 106.5t-26.5 172.5q0 162 70 252t225 90q96 0 164 -26.5t104.5 -87t36.5 -162.5q0 -111 -26 -175t-97 -64q-31 0 -48 14t-23.5 36t-6.5 45q-12 -37 -45 -54t-77 -17q-57 0 -83.5 19.5t-26.5 70.5q0 34 20.5 55t52 34.5t63.5 22.5
q45 13 70 30t25 39q0 38 -29 52t-70 14q-46 0 -76.5 -17t-30.5 -58v-26h-16v25q0 12 3.5 27.5t16 30.5t37.5 24.5t68 9.5q65 0 89.5 -24.5t24.5 -72.5v-183q0 -33 13 -57t49 -24q53 0 80 49.5t27 160.5q0 82 -26 143t-89 95.5t-174 34.5q-86 0 -149 -33.5t-96.5 -106
t-33.5 -189.5q0 -97 23.5 -156t63 -89t89.5 -40.5t103 -10.5q26 0 67 4t84.5 13t74.5 22v-16q-29 -11 -88 -25t-137 -14zM336 118q62 0 92.5 33.5t30.5 84.5v99q-9 -13 -37.5 -26t-56.5 -21q-29 -8 -57 -19.5t-46.5 -30.5t-18.5 -53q0 -37 23 -52t70 -15z" />
    <glyph glyph-name="A" unicode="A" horiz-adv-x="365" 
d="M25 0l151 591h13l151 -591h-17l-40 160h-202l-39 -160h-17zM85 176h194l-92 356l-4 17l-4 -17z" />
    <glyph glyph-name="B" unicode="B" horiz-adv-x="414" 
d="M76 0v591h163q46 0 77.5 -21.5t31.5 -75.5v-75q0 -42 -24 -71t-66 -36q45 0 70 -29t25 -74v-89q0 -52 -15.5 -77.5t-43 -34t-64.5 -8.5h-154zM92 319h126q56 0 85 27t29 74v76q0 39 -26.5 59t-66.5 20h-147v-256zM92 16h135q35 0 59.5 7.5t37.5 31t13 70.5v89
q0 53 -33 71t-81 18h-131v-287z" />
    <glyph glyph-name="C" unicode="C" horiz-adv-x="404" 
d="M202 -12q-38 0 -68.5 8.5t-48.5 36.5t-18 85v351q0 58 18 85.5t49.5 36t69.5 8.5q39 0 69.5 -9t48.5 -36.5t18 -84.5v-88h-16v92q0 48 -15.5 71.5t-42.5 31t-63 7.5q-37 0 -64 -8.5t-41.5 -33t-14.5 -74.5v-351q0 -48 16.5 -72t44 -32t59.5 -8q35 0 62.5 8t43 32t15.5 72
v73h16v-71q0 -58 -18 -85.5t-49 -36t-71 -8.5z" />
    <glyph glyph-name="D" unicode="D" horiz-adv-x="424" 
d="M76 0v591h156q36 0 64 -10.5t44.5 -38.5t16.5 -81v-331q0 -52 -15.5 -80.5t-43.5 -39t-66 -10.5h-156zM92 16h140q51 0 80 23.5t29 95.5v320q0 68 -28.5 94.5t-80.5 26.5h-140v-560z" />
    <glyph glyph-name="E" unicode="E" horiz-adv-x="346" 
d="M76 0v591h245v-16h-229v-256h178v-16h-178v-287h229v-16h-245z" />
    <glyph glyph-name="F" unicode="F" horiz-adv-x="339" 
d="M76 0v591h245v-16h-229v-256h178v-16h-178v-303h-16z" />
    <glyph glyph-name="G" unicode="G" horiz-adv-x="410" 
d="M206 -12q-38 0 -69.5 8.5t-50.5 36.5t-19 85v351q0 58 19 85.5t51.5 36t71.5 8.5q40 0 70 -9t47.5 -36.5t17.5 -84.5v-68h-16v67q0 49 -14 73.5t-41 33t-66 8.5q-38 0 -66 -8.5t-43 -33t-15 -73.5v-343q0 -53 16.5 -79t45 -34t62.5 -8q51 0 86 32t35 89v131h-107v15h123
v-271h-16v63q-8 -27 -42 -51t-80 -24z" />
    <glyph glyph-name="H" unicode="H" horiz-adv-x="433" 
d="M76 0v591h16v-273h249v273h16v-591h-16v302h-249v-302h-16z" />
    <glyph glyph-name="I" unicode="I" horiz-adv-x="168" 
d="M76 0v591h16v-591h-16z" />
    <glyph glyph-name="J" unicode="J" horiz-adv-x="197" 
d="M0 0v16h23q20 0 35 1.5t25 8.5q11 8 16.5 26t5.5 40v499h16v-474q0 -45 -4 -67t-23 -35q-20 -15 -74 -15h-20z" />
    <glyph glyph-name="K" unicode="K" horiz-adv-x="336" 
d="M304 0l-184 306l180 285h19l-181 -285l185 -306h-19zM76 0v591h16v-591h-16z" />
    <glyph glyph-name="L" unicode="L" horiz-adv-x="294" 
d="M76 0v591h16v-575h198v-16h-214z" />
    <glyph glyph-name="M" unicode="M" horiz-adv-x="526" 
d="M76 0v591h17l170 -559l171 559h16v-591h-16v537l-164 -537h-14l-164 537v-537h-16z" />
    <glyph glyph-name="N" unicode="N" horiz-adv-x="434" 
d="M76 0v591h22l244 -562v562h16v-591h-21l-245 565v-565h-16z" />
    <glyph glyph-name="O" unicode="O" horiz-adv-x="415" 
d="M206 -12q-73 0 -106 28.5t-33 101.5v351q0 72 33.5 101t107.5 29q77 0 108.5 -30.5t31.5 -99.5v-351q0 -72 -32 -101t-110 -29zM207 4q70 0 97.5 27t27.5 90v345q0 62 -27.5 89.5t-97.5 27.5q-69 0 -96.5 -27t-27.5 -90v-345q0 -64 28.5 -90.5t95.5 -26.5z" />
    <glyph glyph-name="P" unicode="P" horiz-adv-x="387" 
d="M76 0v591h152q60 0 92 -20.5t32 -76.5v-76q0 -52 -12 -84.5t-44 -47.5t-93 -15h-111v-271h-16zM92 287h111q55 0 83.5 12.5t39 41t10.5 76.5v54q0 60 -22.5 82t-86.5 22h-135v-288z" />
    <glyph glyph-name="Q" unicode="Q" horiz-adv-x="415" 
d="M317 -110l-59 101q-24 -3 -52 -3q-38 0 -69.5 8.5t-50.5 36.5t-19 85v351q0 58 19 85.5t51.5 36t70.5 8.5q39 0 70.5 -9t50.5 -36.5t19 -84.5v-351q0 -60 -20 -87t-53 -36l55 -96zM207 4q35 0 63.5 7.5t45 32.5t16.5 77v345q0 52 -17 77t-45.5 32.5t-62.5 7.5t-62.5 -7.5
t-45 -32.5t-16.5 -77v-345q0 -52 16.5 -77t45 -32.5t62.5 -7.5z" />
    <glyph glyph-name="R" unicode="R" horiz-adv-x="410" 
d="M76 0v591h166q43 0 74.5 -21.5t31.5 -75.5v-83q0 -41 -15 -66.5t-37.5 -38t-47.5 -15.5q16 -2 32 -22.5t23 -44.5l69 -224h-17l-61 200q-12 39 -33 63t-58 24h-111v-287h-16zM92 303h121q51 0 85 24t34 82v82q0 43 -26 63.5t-60 20.5h-154v-272z" />
    <glyph glyph-name="S" unicode="S" horiz-adv-x="346" 
d="M167 -9q-38 0 -67 15.5t-44.5 53.5t-15.5 103v12h16v-12q0 -60 14.5 -94t39.5 -48t57 -14q53 0 88 30.5t35 108.5q0 52 -17.5 79.5t-47 42.5t-64.5 28q-36 14 -62.5 31.5t-41 45.5t-14.5 75q0 67 29.5 107t98.5 40q60 0 95 -33t35 -93v-40h-16v36q0 54 -30 84t-84 30
q-62 0 -87 -37.5t-25 -93.5q0 -46 15.5 -72t41 -40t54.5 -26q48 -19 78 -37t44 -46.5t14 -80.5q0 -57 -18.5 -91t-50 -49t-70.5 -15z" />
    <glyph glyph-name="T" unicode="T" horiz-adv-x="261" 
d="M122 0v575h-111v16h239v-16h-112v-575h-16z" />
    <glyph glyph-name="U" unicode="U" horiz-adv-x="429" 
d="M209 -9q-37 0 -68 9t-49 35t-18 78v478h16v-475q0 -46 17 -69.5t44.5 -31.5t57.5 -8q31 0 60.5 8t49.5 31.5t20 69.5v475h16v-478q0 -52 -20.5 -78t-54 -35t-71.5 -9z" />
    <glyph glyph-name="V" unicode="V" horiz-adv-x="308" 
d="M150 0l-127 591h16l118 -547l112 547h16l-122 -591h-13z" />
    <glyph glyph-name="W" unicode="W" horiz-adv-x="513" 
d="M123 0l-100 591h16l93 -546l116 546h16l114 -556l96 556h16l-102 -591h-19l-113 553l-117 -553h-16z" />
    <glyph glyph-name="X" unicode="X" horiz-adv-x="300" 
d="M26 0l101 298l-90 293h16l88 -285h17l99 285h17l-102 -293l100 -298h-18l-96 290h-16l-99 -290h-17z" />
    <glyph glyph-name="Y" unicode="Y" horiz-adv-x="290" 
d="M130 0v253l-109 338h17l101 -316l113 316h17l-123 -338v-253h-16z" />
    <glyph glyph-name="Z" unicode="Z" horiz-adv-x="270" 
d="M23 0v10l201 567l-186 -2v16h202v-14l-198 -561h204v-16h-223z" />
    <glyph glyph-name="bracketleft" unicode="[" horiz-adv-x="271" 
d="M76 -62v692h171v-16h-155v-660h155v-16h-171z" />
    <glyph glyph-name="backslash" unicode="\" horiz-adv-x="442" 
d="M384 -46l-344 677h19l343 -677h-18z" />
    <glyph glyph-name="bracketright" unicode="]" horiz-adv-x="271" 
d="M24 -62v16h155v660h-155v16h171v-692h-171z" />
    <glyph glyph-name="asciicircum" unicode="^" horiz-adv-x="372" 
d="M50 467l128 164h16l128 -164h-21l-115 148l-116 -148h-20z" />
    <glyph glyph-name="underscore" unicode="_" horiz-adv-x="723" 
d="M40 -108v16h643v-16h-643z" />
    <glyph glyph-name="grave" unicode="`" horiz-adv-x="500" 
d="M278 545l-71 86h20l66 -86h-15z" />
    <glyph glyph-name="a" unicode="a" horiz-adv-x="354" 
d="M160 -4q-23 0 -47.5 8t-41.5 32.5t-17 75.5v34q0 32 14.5 56t35 40.5t40 27t28.5 15.5q40 22 62.5 38.5t32.5 34t10 42.5v14q0 34 -14.5 49t-36.5 19t-45 4q-44 0 -65.5 -15t-28 -40t-6.5 -56v-41h-16v43q0 58 23 91.5t93 33.5q54 0 77.5 -14t29 -36.5t5.5 -49.5v-402
h-15v73q-12 -35 -42.5 -56t-75.5 -21zM163 12q44 0 68.5 19t35 52t10.5 74v184q-16 -22 -43.5 -38.5t-56.5 -33.5q-25 -14 -49.5 -29.5t-41 -39.5t-16.5 -62v-26q0 -47 15 -68t37 -26.5t41 -5.5z" />
    <glyph glyph-name="b" unicode="b" horiz-adv-x="366" 
d="M188 -7q-50 0 -72 15.5t-32 38.5l-2 -47h-14v630h16v-181q10 22 33.5 38t70.5 16q42 0 66.5 -11.5t35.5 -31t14 -42.5t3 -46v-248q0 -31 -6 -61t-31 -50t-82 -20zM188 9q49 0 70.5 18.5t27 47.5t5.5 58v236q0 27 -5.5 54t-27 45.5t-70.5 18.5q-61 0 -82.5 -35t-21.5 -86
v-233q0 -29 4.5 -58t26 -47.5t73.5 -18.5z" />
    <glyph glyph-name="c" unicode="c" horiz-adv-x="345" 
d="M179 -7q-43 0 -67.5 11.5t-35.5 30.5t-14 42.5t-3 46.5v248q0 23 3 46t14 42.5t35.5 31t67.5 11.5q42 0 66.5 -11.5t35.5 -31t14 -42.5t3 -46v-44h-16v41q0 27 -5.5 54t-27 45.5t-70.5 18.5t-71 -18.5t-27.5 -45.5t-5.5 -54v-242q0 -26 5.5 -53.5t27.5 -46t71 -18.5
t70.5 18.5t27 46t5.5 53.5v40h16v-43q0 -31 -6 -61t-31 -50t-82 -20z" />
    <glyph glyph-name="d" unicode="d" horiz-adv-x="366" 
d="M178 -7q-56 0 -81.5 20t-31.5 50t-6 61v248q0 23 3 46t14 42.5t35.5 31t66.5 11.5q35 0 56 -7.5t32.5 -16.5t15.5 -13v164h16v-630h-13l-2 50q-7 -21 -35 -39t-70 -18zM178 9q42 0 64.5 16.5t31 43.5t8.5 58v310q-3 7 -11.5 18.5t-30 21.5t-62.5 10q-39 0 -60 -11
t-30 -28.5t-11 -38t-2 -40.5v-242q0 -20 2 -40.5t11 -38t30 -28.5t60 -11z" />
    <glyph glyph-name="e" unicode="e" horiz-adv-x="355" 
d="M179 -7q-43 0 -67.5 11.5t-35.5 30.5t-14 42.5t-3 46.5v248q0 31 7 61t32.5 50t80.5 20q56 0 81 -19t31.5 -49t6.5 -63v-109h-223v-136q0 -29 5.5 -56.5t27.5 -44.5t71 -17t70.5 17t27 44t5.5 57v40h16v-43q0 -31 -6 -61t-31 -50t-82 -20zM75 279h207v84q0 35 -5 63
t-26.5 44.5t-71.5 16.5q-44 0 -66.5 -15.5t-30 -43t-7.5 -65.5v-84z" />
    <glyph glyph-name="f" unicode="f" horiz-adv-x="188" 
d="M70 0v458h-31v16h31v69q0 47 17 70t56 23q19 0 35.5 -1.5t23.5 -2.5v-16q-18 2 -32 3.5t-28 1.5q-34 0 -45 -22.5t-11 -50.5v-74h116v-16h-116v-458h-16z" />
    <glyph glyph-name="g" unicode="g" horiz-adv-x="366" 
d="M176 -115q-22 0 -39.5 1.5t-24.5 2.5v17q27 -5 64 -5q27 0 51 8.5t39.5 31t15.5 62.5v73q-8 -20 -35.5 -37t-68.5 -17q-56 0 -81.5 20t-31.5 50t-6 61v219q0 23 3 46t14 42.5t35.5 31t66.5 11.5q35 0 56 -7.5t32.5 -16.5t15.5 -13l3 29h13v-490q0 -57 -30 -88.5
t-92 -31.5zM178 38q42 0 64.5 16.5t31 43.5t8.5 58v281q-3 7 -11.5 18.5t-30 21.5t-62.5 10q-39 0 -60 -11t-30 -28.5t-11 -38t-2 -40.5v-213q0 -20 2 -40.5t11 -38t30 -28.5t60 -11z" />
    <glyph glyph-name="h" unicode="h" horiz-adv-x="373" 
d="M68 0v630h16v-185q11 23 36.5 40.5t72.5 17.5q42 0 66.5 -11.5t35.5 -31t14 -42.5t3 -46v-372h-16v363q0 30 -5 58.5t-26.5 47t-71.5 18.5q-55 0 -80 -27.5t-29 -70.5v-389h-16z" />
    <glyph glyph-name="i" unicode="i" horiz-adv-x="152" 
d="M68 0v495h16v-495h-16zM76 566q-14 0 -14 14t14 14t14 -14t-14 -14z" />
    <glyph glyph-name="j" unicode="j" horiz-adv-x="154" 
d="M13 -116q-19 0 -34.5 1.5t-14.5 1.5v16q11 -1 23.5 -2.5t26.5 -1.5q32 0 44 21t12 48v527h16v-528q0 -40 -18 -61.5t-55 -21.5zM78 566q-14 0 -14 14t14 14t14 -14t-14 -14z" />
    <glyph glyph-name="k" unicode="k" horiz-adv-x="298" 
d="M68 0v630h16v-334h38l137 199h19l-143 -208l149 -287h-17l-146 280h-37v-280h-16z" />
    <glyph glyph-name="l" unicode="l" horiz-adv-x="152" 
d="M68 0v630h16v-630h-16z" />
    <glyph glyph-name="m" unicode="m" horiz-adv-x="602" 
d="M68 0v495h14l2 -50q11 23 36.5 40.5t72.5 17.5q59 0 83 -21.5t31 -51.5q11 34 40 53.5t75 19.5q42 0 66.5 -11.5t35.5 -31t14 -42.5t3 -46v-372h-16v363q0 30 -5 58.5t-26.5 47t-71.5 18.5q-55 0 -80.5 -32t-29.5 -83v-372h-16v363q0 30 -5 58.5t-26.5 47t-71.5 18.5
q-55 0 -80 -27.5t-29 -70.5v-389h-16z" />
    <glyph glyph-name="n" unicode="n" horiz-adv-x="373" 
d="M68 0v495h14l2 -52q11 23 36.5 41.5t72.5 18.5q42 0 66.5 -11.5t35.5 -31t14 -42.5t3 -46v-372h-16v363q0 30 -5 58.5t-26.5 47t-71.5 18.5q-55 0 -82 -30t-27 -73v-384h-16z" />
    <glyph glyph-name="o" unicode="o" horiz-adv-x="362" 
d="M179 -7q-43 0 -67.5 11.5t-35.5 30.5t-14 42.5t-3 46.5v248q0 23 3 46t14.5 42.5t36.5 31t70 11.5q55 0 80 -20t32.5 -50t7.5 -61v-248q0 -31 -7.5 -61t-33.5 -50t-83 -20zM179 9q52 0 74.5 18.5t28 46t5.5 53.5v242q0 27 -5.5 54t-27 45.5t-71.5 18.5q-40 0 -62.5 -11
t-32 -28.5t-11.5 -38t-2 -40.5v-242q0 -20 2 -40.5t11 -38t30.5 -28.5t60.5 -11z" />
    <glyph glyph-name="p" unicode="p" horiz-adv-x="366" 
d="M68 -116v611h14l2 -50q5 20 28.5 39t75.5 19q42 0 66.5 -11.5t35.5 -31t14 -42.5t3 -46v-248q0 -31 -6 -61t-31 -50t-82 -20q-50 0 -74 14.5t-30 30.5v-154h-16zM188 9q39 0 60 11t30 28.5t11 38t2 40.5v242q0 30 -4.5 57t-25.5 44t-73 17q-48 0 -70 -17.5t-28 -45.5
t-6 -61v-236q0 -20 2 -40.5t11 -38t30.5 -28.5t60.5 -11z" />
    <glyph glyph-name="q" unicode="q" horiz-adv-x="366" 
d="M282 -116v154q-6 -16 -30 -30.5t-74 -14.5q-56 0 -81.5 20t-31.5 50t-6 61v248q0 23 3 46t14 42.5t35.5 31t66.5 11.5q52 0 75.5 -19t28.5 -39l2 50h14v-611h-16zM178 9q39 0 60.5 11t30.5 28.5t11 38t2 40.5v236q0 33 -6 61t-28 45.5t-70 17.5q-52 0 -73 -17t-25.5 -44
t-4.5 -57v-242q0 -20 2 -40.5t11 -38t30 -28.5t60 -11z" />
    <glyph glyph-name="r" unicode="r" horiz-adv-x="229" 
d="M68 0v495h14l2 -50q11 23 36.5 40.5t72.5 17.5q21 0 37 -3v-16q-16 3 -37 3q-55 0 -82 -29t-27 -69v-389h-16z" />
    <glyph glyph-name="s" unicode="s" horiz-adv-x="322" 
d="M160 -6q-52 0 -85 25t-33 80v67h16v-67q0 -44 28.5 -66.5t73.5 -22.5q47 0 75.5 20t28.5 66v38q0 38 -16 59.5t-40.5 35t-52.5 25.5q-31 14 -57 28t-41.5 34.5t-15.5 53.5v34q0 42 32 70t89 28q52 0 85.5 -23.5t33.5 -77.5v-65h-16v59q0 48 -26.5 69.5t-76.5 21.5
t-77.5 -25t-27.5 -66v-18q0 -33 17 -53t41 -32.5t45 -22.5q30 -13 57.5 -28.5t45 -40t17.5 -66.5v-38q0 -39 -17 -61t-44 -31.5t-59 -9.5z" />
    <glyph glyph-name="t" unicode="t" horiz-adv-x="212" 
d="M141 0q-39 0 -56 23.5t-17 69.5v386h-38v14l38 2l3 97h13v-97h116v-16h-116v-391q0 -28 11 -50.5t45 -22.5q14 0 28 1.5t32 3.5v-16q-7 -1 -23.5 -2.5t-35.5 -1.5z" />
    <glyph glyph-name="u" unicode="u" horiz-adv-x="380" 
d="M187 -8q-42 0 -66.5 11.5t-35.5 31t-14 42.5t-3 46v372h16v-363q0 -29 5 -58t26.5 -47.5t71.5 -18.5q55 0 80 27.5t29 70.5v389h16v-495h-14l-2 50q-11 -23 -36.5 -40.5t-72.5 -17.5z" />
    <glyph glyph-name="v" unicode="v" horiz-adv-x="297" 
d="M139 0l-120 495h16l113 -468l114 468h16l-121 -495h-18z" />
    <glyph glyph-name="w" unicode="w" horiz-adv-x="540" 
d="M139 0l-120 495h16l113 -468l114 468h16l113 -468l114 468h16l-121 -495h-18l-112 462l-113 -462h-18z" />
    <glyph glyph-name="x" unicode="x" horiz-adv-x="299" 
d="M19 0l102 263l-86 232h17l84 -224h26l91 224h17l-94 -231l104 -264h-19l-98 255h-28l-98 -255h-18z" />
    <glyph glyph-name="y" unicode="y" horiz-adv-x="298" 
d="M53 -115q-15 0 -31 2.5t-18 3.5v14q2 -1 17 -3.5t32 -2.5q16 0 33.5 8t33 29t21.5 60l-121 499h16l113 -468l114 468h16l-121 -496q-13 -52 -36.5 -83t-68.5 -31z" />
    <glyph glyph-name="z" unicode="z" horiz-adv-x="247" 
d="M20 0v7l184 472h-172v16h193v-12l-184 -467h184v-16h-205z" />
    <glyph glyph-name="braceleft" unicode="{" horiz-adv-x="274" 
d="M211 -137q-53 12 -78.5 39t-25.5 82q0 42 14.5 74t29 60t14.5 57q0 28 -16 47t-40.5 29.5t-51.5 11.5v10q27 0 52 10.5t41 28t16 38.5q0 34 -15 65t-30 64.5t-15 71.5q0 54 31 80.5t74 33.5v-14q-40 -5 -64 -31t-24 -71q0 -36 15 -66.5t29.5 -60.5t14.5 -66
q0 -31 -20.5 -55.5t-55.5 -32.5q36 -10 56 -33.5t20 -52.5q0 -30 -9 -54t-20.5 -46t-20.5 -45.5t-9 -52.5q0 -35 13 -57t33.5 -33t41.5 -16v-15z" />
    <glyph glyph-name="bar" unicode="|" horiz-adv-x="176" 
d="M80 -46v676h16v-676h-16z" />
    <glyph glyph-name="braceright" unicode="}" horiz-adv-x="274" 
d="M63 -137v14q41 5 64.5 31t23.5 71q0 36 -14.5 66.5t-29.5 61t-15 65.5q0 32 20.5 56t55.5 32q-36 10 -56 34t-20 52q0 30 9 54t20.5 46t20.5 45.5t9 52.5q0 36 -13 57.5t-33 33t-42 15.5v15q53 -12 78.5 -39t25.5 -82q0 -42 -14.5 -74t-29 -59.5t-14.5 -57.5
q0 -27 16 -46.5t41 -29.5t51 -12v-10q-26 0 -51.5 -10.5t-41.5 -27.5t-16 -39q0 -33 15 -64.5t30 -64.5t15 -72q0 -54 -30.5 -80.5t-74.5 -33.5z" />
    <glyph glyph-name="asciitilde" unicode="~" horiz-adv-x="451" 
d="M309 544q-27 0 -47.5 7.5t-39.5 15.5q-19 9 -38.5 16t-45.5 7q-62 0 -71 -45h-17q5 29 28 45t60 16q29 0 50.5 -7.5t40.5 -16.5q18 -8 36.5 -15t43.5 -7q68 0 76 46h16q-4 -29 -28 -45.5t-64 -16.5z" />
    <glyph glyph-name="uni00A0" unicode="&#xa0;" horiz-adv-x="155" 
 />
    <glyph glyph-name="exclamdown" unicode="&#xa1;" horiz-adv-x="152" 
d="M76 415q-16 0 -16 16t16 16t16 -16t-16 -16zM68 -151v273l3 162h9l4 -162v-273h-16z" />
    <glyph glyph-name="cent" unicode="&#xa2;" horiz-adv-x="375" 
d="M180 -63v116q-41 0 -64 11.5t-33.5 31t-13 42.5t-2.5 46v248q0 31 6 61t29.5 50t78.5 20v80h16v-80q54 -1 78 -21.5t30 -50t6 -59.5v-44h-16v41q0 30 -5.5 57.5t-28 45t-74.5 17.5q-49 0 -71 -17.5t-27.5 -45t-5.5 -57.5v-242q0 -29 4.5 -57t26 -45.5t73.5 -17.5
t74.5 17.5t28 45.5t5.5 57v40h16v-43q0 -30 -6 -60t-30 -49.5t-78 -21.5v-116h-17z" />
    <glyph glyph-name="sterling" unicode="&#xa3;" horiz-adv-x="397" 
d="M269 -2q-15 0 -31 2.5t-30 4.5q-21 3 -43 5.5t-45 2.5q-43 0 -70 -10v11q22 20 43 56.5t35.5 82t14.5 90.5q0 8 -0.5 16.5t-1.5 15.5h-80v16h77q-8 34 -22 61.5t-25.5 56.5t-11.5 69q0 117 141 117q62 0 97 -30t35 -83v-32h-16v27q0 38 -17 60t-44 32t-58 10
q-55 0 -88.5 -24.5t-33.5 -77.5q0 -24 9 -51.5t20 -51t16 -36.5q10 -22 15 -47h83v-16h-81q3 -18 3 -36q0 -54 -20.5 -108.5t-55.5 -104.5q6 2 18 2.5t23 0.5q20 0 39.5 -2.5t42.5 -5.5q14 -2 30.5 -4.5t33.5 -2.5q32 0 48 15t16 52v55h16v-45q0 -42 -16.5 -67.5
t-65.5 -25.5z" />
    <glyph glyph-name="currency" unicode="&#xa4;" horiz-adv-x="382" 
d="M57 159l-7 7l56 61q-25 30 -25 73t25 74l-56 60l7 7l61 -57q14 12 32.5 19t40.5 7q43 0 74 -26l60 57l7 -7l-57 -62q26 -28 26 -72q0 -22 -7 -40.5t-19 -34.5l57 -59l-7 -7l-62 56q-28 -25 -72 -25q-43 0 -73 25zM191 206q40 0 67 27t27 67t-27 67t-67 27t-67 -27
t-27 -67t27 -67t67 -27z" />
    <glyph glyph-name="yen" unicode="&#xa5;" horiz-adv-x="328" 
d="M149 0v135h-92v16h92v93h-92v16h90l-107 331h17l101 -316l113 316h17l-120 -331h88v-16h-91v-93h91v-16h-91v-135h-16z" />
    <glyph glyph-name="brokenbar" unicode="&#xa6;" horiz-adv-x="176" 
d="M80 341v289h16v-289h-16zM80 -46v314h16v-314h-16z" />
    <glyph glyph-name="section" unicode="&#xa7;" horiz-adv-x="429" 
d="M179 -131q-52 0 -85 25t-33 80v67h16v-67q0 -44 28.5 -66.5t73.5 -22.5q47 0 75.5 20t28.5 66v38q0 38 -16 59.5t-40.5 35t-52.5 25.5q-31 14 -57 28t-41.5 34.5t-15.5 53.5v34q0 42 32 70t88 28q-23 14 -37 34t-14 51v34q0 42 32 70t89 28q52 0 85.5 -23.5t33.5 -77.5
v-65h-16v59q0 48 -26.5 69.5t-76.5 21.5t-77.5 -25t-27.5 -66v-18q0 -33 17 -53t41 -32.5t45 -22.5q30 -13 57.5 -28.5t45 -40t17.5 -66.5v-38q0 -50 -28.5 -73t-67.5 -28q12 -14 19.5 -33t7.5 -45v-38q0 -38 -17 -60.5t-44 -32t-59 -9.5zM256 102q44 2 70 21.5t26 64.5v38
q0 38 -16 59.5t-40.5 35t-52.5 25.5q-7 3 -14.5 6.5t-14.5 6.5q-12 1 -19 1.5t-14 0.5q-50 0 -77.5 -25t-27.5 -66v-18q0 -33 17 -53t41 -32.5t45 -22.5q20 -9 40.5 -18.5t36.5 -23.5z" />
    <glyph glyph-name="dieresis" unicode="&#xa8;" horiz-adv-x="500" 
d="M289 566q-14 0 -14 14t14 14t14 -14t-14 -14zM212 566q-14 0 -14 14t14 14t14 -14t-14 -14z" />
    <glyph glyph-name="copyright" unicode="&#xa9;" horiz-adv-x="660" 
d="M330 31q-58 0 -109 21.5t-89.5 60.5t-60 90t-21.5 109t21.5 108.5t60 89t89.5 60t109 21.5t109 -21.5t89.5 -60t60 -89t21.5 -108.5t-21.5 -109t-60 -90t-89.5 -60.5t-109 -21.5zM330 46q55 0 103 21t84 58t56 85t20 102q0 73 -35 132.5t-94.5 95t-133.5 35.5
q-54 0 -101.5 -20.5t-84 -56.5t-57.5 -84t-21 -102t21 -102t57.5 -85t84 -58t101.5 -21zM323 178q-31 0 -50.5 9.5t-28.5 38t-9 86.5q0 59 6 90t25.5 43t58.5 12q50 0 69 -20.5t21 -75.5h-15q-2 52 -19 67t-56 15q-32 0 -48 -9t-21 -36.5t-5 -84.5q0 -49 6.5 -75t22 -35.5
t43.5 -9.5q29 0 51.5 15t22.5 53h18q-2 -50 -27 -66.5t-65 -16.5z" />
    <glyph glyph-name="ordfeminine" unicode="&#xaa;" horiz-adv-x="262" 
d="M123 288q-14 0 -29.5 3.5t-26.5 19t-11 51.5v21q0 27 15 44.5t33 27.5t25 14q37 20 49 33t12 33v8q0 29 -17 35t-38 6q-38 0 -47.5 -18t-9.5 -46v-28h-15v29q0 41 17 59.5t55 18.5q34 0 48.5 -9t18 -23.5t3.5 -30.5v-244h-13l-1 30q-21 -34 -68 -34zM120 303q35 0 52 20
t17 66v103q-17 -18 -47 -34q-34 -19 -52 -33.5t-18 -46.5v-16q0 -28 7.5 -40.5t18.5 -15.5t22 -3z" />
    <glyph glyph-name="guillemotleft" unicode="&#xab;" horiz-adv-x="414" 
d="M348 115l-118 169l130 184h14l-126 -184l114 -169h-14zM168 115l-118 169l130 184h14l-126 -184l114 -169h-14z" />
    <glyph glyph-name="logicalnot" unicode="&#xac;" horiz-adv-x="555" 
d="M489 215v169h-439v16h455v-185h-16z" />
    <glyph glyph-name="uni00AD" unicode="&#xad;" 
 />
    <glyph glyph-name="registered" unicode="&#xae;" horiz-adv-x="412" 
d="M206 279q-43 0 -78.5 21t-56.5 56.5t-21 78.5t21 78.5t56.5 56.5t78.5 21q44 0 79 -21t56 -56.5t21 -78.5t-21 -78.5t-56 -56.5t-79 -21zM206 290q40 0 72.5 20t51.5 53t19 72q0 40 -19 72.5t-51.5 52t-72.5 19.5q-38 0 -70.5 -19.5t-52 -52t-19.5 -72.5q0 -39 19.5 -72
t52 -53t70.5 -20zM161 353v171h65q21 0 28.5 -10.5t7.5 -27.5q0 -16 -7 -30.5t-33 -17.5q8 -4 13.5 -15t7.5 -16l25 -54h-15q-6 14 -15.5 36t-17.5 35q-6 11 -21 11h-25v-82h-13zM174 447h28q29 0 38.5 9.5t9.5 28.5q0 28 -30 28h-46v-66z" />
    <glyph glyph-name="macron" unicode="&#xaf;" horiz-adv-x="500" 
d="M170 566v16h160v-16h-160z" />
    <glyph glyph-name="degree" unicode="&#xb0;" horiz-adv-x="288" 
d="M144 410q-44 0 -69 24t-25 67q0 44 25 68.5t71 24.5q44 0 68 -23.5t24 -67.5t-25 -68.5t-69 -24.5zM143 426q79 0 79 76q0 36 -19.5 56t-57.5 20t-58.5 -20t-20.5 -57q0 -35 20.5 -55t56.5 -20z" />
    <glyph glyph-name="plusminus" unicode="&#xb1;" horiz-adv-x="364" 
d="M174 160v124h-124v16h124v124h16v-124h124v-16h-124v-124h-16zM50 0v16h262v-16h-262z" />
    <glyph glyph-name="uni00B2" unicode="&#xb2;" horiz-adv-x="271" 
d="M56 237v64q0 36 13.5 54t38.5 32q5 3 23 13t28 16q43 27 43 82v12q0 30 -17 49.5t-52 19.5q-30 0 -48.5 -16.5t-18.5 -46.5v-38h-16v32q0 42 22 62.5t61 20.5q46 0 65.5 -23t19.5 -65q0 -37 -13 -63t-36 -39q-10 -6 -27.5 -15.5t-21.5 -11.5q-22 -13 -35 -29.5t-13 -45.5
v-49h149v-15h-165z" />
    <glyph glyph-name="uni00B3" unicode="&#xb3;" horiz-adv-x="267" 
d="M133 238q-40 0 -64 19t-24 67v31h16v-25q0 -43 19 -59.5t53 -16.5q73 0 73 83v9q0 38 -24.5 56t-50.5 18h-32v16h30q14 0 31 8t30 25.5t13 44.5v4q0 26 -17.5 43.5t-49.5 17.5q-65 0 -65 -62v-25h-16v19q0 44 20.5 64t60.5 20q39 0 61 -19.5t22 -56.5v-7q0 -30 -20 -54.5
t-49 -29.5q35 -4 53.5 -27t18.5 -46v-23q0 -45 -22 -69.5t-67 -24.5z" />
    <glyph glyph-name="acute" unicode="&#xb4;" horiz-adv-x="500" 
d="M207 545l66 86h20l-71 -86h-15z" />
    <glyph glyph-name="uni00B5" unicode="&#xb5;" horiz-adv-x="376" 
d="M68 -129v624h16v-375q0 -45 25.5 -78t83.5 -33q50 0 74.5 33t24.5 78v375h16v-363q0 -61 -27 -100t-89 -39q-53 0 -79 20.5t-29 36.5v-179h-16z" />
    <glyph glyph-name="paragraph" unicode="&#xb6;" horiz-adv-x="423" 
d="M232 -61v273q-172 0 -172 177q0 70 26.5 113t68.5 63t88 20h104v-646h-16v635h-83v-635h-16z" />
    <glyph glyph-name="periodcentered" unicode="&#xb7;" horiz-adv-x="132" 
d="M66 248q-16 0 -16 16t16 16t16 -16t-16 -16z" />
    <glyph glyph-name="cedilla" unicode="&#xb8;" horiz-adv-x="500" 
d="M242 -134q-15 0 -25 4t-18 8l8 14q13 -11 35 -11q43 0 43 33q0 29 -34 29q-26 0 -39 -10l-8 10l34 57h13l-22 -43q2 1 10 1.5t13 0.5q25 0 37 -13t12 -30q0 -18 -15 -34t-44 -16z" />
    <glyph glyph-name="uni00B9" unicode="&#xb9;" horiz-adv-x="186" 
d="M93 238v284h-43v10q29 0 38.5 13.5t9.5 45.5h11v-353h-16z" />
    <glyph glyph-name="ordmasculine" unicode="&#xba;" horiz-adv-x="257" 
d="M129 291q-42 0 -58 16.5t-16 62.5v159q0 43 16 58.5t58 15.5q41 0 57 -16t16 -58v-159q0 -46 -15.5 -62.5t-57.5 -16.5zM128 306q34 0 46 13.5t12 50.5v159q0 35 -12.5 48t-44.5 13q-33 0 -45.5 -13.5t-12.5 -47.5v-159q0 -37 11.5 -50.5t45.5 -13.5z" />
    <glyph glyph-name="guillemotright" unicode="&#xbb;" horiz-adv-x="414" 
d="M220 115l126 184l-114 169h14l118 -169l-130 -184h-14zM40 115l126 184l-114 169h14l118 -169l-130 -184h-14z" />
    <glyph glyph-name="onequarter" unicode="&#xbc;" horiz-adv-x="501" 
d="M93 238v284h-43v10q29 0 38.5 13.5t9.5 45.5h11v-353h-16zM394 -4v71h-136v9l138 275h14v-268h41v-16h-41v-71h-16zM278 83h116v231zM50 0l319 585h19l-321 -585h-17z" />
    <glyph glyph-name="onehalf" unicode="&#xbd;" horiz-adv-x="526" 
d="M93 238v284h-43v10q29 0 38.5 13.5t9.5 45.5h11v-353h-16zM311 1v64q0 36 13.5 54t38.5 32q5 3 23 13t28 16q43 27 43 82v12q0 30 -17 49.5t-52 19.5q-30 0 -48.5 -16.5t-18.5 -46.5v-38h-16v32q0 42 22 62.5t61 20.5q46 0 65.5 -23t19.5 -65q0 -37 -13 -63t-36 -39
q-10 -6 -27.5 -15.5t-21.5 -11.5q-22 -13 -35 -29.5t-13 -45.5v-49h149v-15h-165zM50 0l319 585h19l-321 -585h-17z" />
    <glyph glyph-name="threequarters" unicode="&#xbe;" horiz-adv-x="616" 
d="M133 238q-40 0 -64 19t-24 67v31h16v-25q0 -43 19 -59.5t53 -16.5q73 0 73 83v9q0 38 -24.5 56t-50.5 18h-32v16h30q14 0 31 8t30 25.5t13 44.5v4q0 26 -17.5 43.5t-49.5 17.5q-65 0 -65 -62v-25h-16v19q0 44 20.5 64t60.5 20q39 0 61 -19.5t22 -56.5v-7q0 -30 -20 -54.5
t-49 -29.5q35 -4 53.5 -27t18.5 -46v-23q0 -45 -22 -69.5t-67 -24.5zM165 0l319 585h19l-321 -585h-17zM509 -4v71h-136v9l138 275h14v-268h41v-16h-41v-71h-16zM393 83h116v231z" />
    <glyph glyph-name="questiondown" unicode="&#xbf;" horiz-adv-x="363" 
d="M226 415q-16 0 -16 16t16 16t16 -16t-16 -16zM186 -151q-73 0 -106 35t-33 111v71q0 47 21 75t51 40.5t55 12.5h47v106h16v-122h-59q-23 0 -50 -12t-46 -38.5t-19 -69.5v-65q0 -62 30 -95t91 -33q53 0 80.5 30t27.5 87v33h16v-29q0 -137 -122 -137z" />
    <glyph glyph-name="Agrave" unicode="&#xc0;" horiz-adv-x="365" 
d="M25 0l151 591h13l151 -591h-17l-40 160h-202l-39 -160h-17zM85 176h194l-92 356l-4 17l-4 -17zM202 633l-91 75h23l83 -75h-15z" />
    <glyph glyph-name="Aacute" unicode="&#xc1;" horiz-adv-x="365" 
d="M25 0l151 591h13l151 -591h-17l-40 160h-202l-39 -160h-17zM85 176h194l-92 356l-4 17l-4 -17zM161 633l83 75h23l-91 -75h-15z" />
    <glyph glyph-name="Acircumflex" unicode="&#xc2;" horiz-adv-x="365" 
d="M25 0l151 591h13l151 -591h-17l-40 160h-202l-39 -160h-17zM85 176h194l-92 356l-4 17l-4 -17zM93 624l83 86h15l81 -86h-20l-69 72l-72 -72h-18z" />
    <glyph glyph-name="Atilde" unicode="&#xc3;" horiz-adv-x="365" 
d="M25 0l151 591h13l151 -591h-17l-40 160h-202l-39 -160h-17zM85 176h194l-92 356l-4 17l-4 -17zM222 630q-17 0 -30 7.5t-24.5 15t-25.5 7.5q-9 0 -17.5 -4.5t-10.5 -21.5h-15q2 17 13 29t30 12q17 0 29 -7.5t23.5 -15t27.5 -7.5q10 0 19 5t11 22h15q-3 -19 -14.5 -30.5
t-30.5 -11.5z" />
    <glyph glyph-name="Adieresis" unicode="&#xc4;" horiz-adv-x="365" 
d="M25 0l151 591h13l151 -591h-17l-40 160h-202l-39 -160h-17zM85 176h194l-92 356l-4 17l-4 -17zM221 643q-14 0 -14 14t14 14t14 -14t-14 -14zM144 643q-14 0 -14 14t14 14t14 -14t-14 -14z" />
    <glyph glyph-name="Aring" unicode="&#xc5;" horiz-adv-x="365" 
d="M25 0l151 591h13l151 -591h-17l-40 160h-202l-39 -160h-17zM85 176h194l-92 356l-4 17l-4 -17zM183 619q-23 0 -39 15.5t-16 37.5t16 37.5t38 15.5q23 0 38.5 -15.5t15.5 -37.5t-15 -37.5t-38 -15.5zM182 635q16 0 27 10.5t11 26.5q0 17 -11 27t-27 10t-27 -10t-11 -27
q0 -16 11 -26.5t27 -10.5z" />
    <glyph glyph-name="AE" unicode="&#xc6;" horiz-adv-x="501" 
d="M2 0l224 591h197v-16h-178l36 -256h151v-16h-149l40 -287h160v-16h-174l-22 160h-206l-61 -160h-18zM87 176h197l-53 382z" />
    <glyph glyph-name="Ccedilla" unicode="&#xc7;" horiz-adv-x="404" 
d="M202 -12q-38 0 -68.5 8.5t-48.5 36.5t-18 85v351q0 58 18 85.5t49.5 36t69.5 8.5q39 0 69.5 -9t48.5 -36.5t18 -84.5v-88h-16v92q0 48 -15.5 71.5t-42.5 31t-63 7.5q-37 0 -64 -8.5t-41.5 -33t-14.5 -74.5v-351q0 -48 16.5 -72t44 -32t59.5 -8q35 0 62.5 8t43 32t15.5 72
v73h16v-71q0 -58 -18 -85.5t-49 -36t-71 -8.5zM204 -143q-15 0 -25 4t-18 8l8 14q13 -11 35 -11q43 0 43 33q0 29 -34 29q-26 0 -39 -10l-8 10l34 57h13l-22 -43q2 1 10 1.5t13 0.5q25 0 37 -13t12 -30q0 -18 -15 -34t-44 -16z" />
    <glyph glyph-name="Egrave" unicode="&#xc8;" horiz-adv-x="346" 
d="M76 0v591h245v-16h-229v-256h178v-16h-178v-287h229v-16h-245zM218 633l-91 75h23l83 -75h-15z" />
    <glyph glyph-name="Eacute" unicode="&#xc9;" horiz-adv-x="346" 
d="M76 0v591h245v-16h-229v-256h178v-16h-178v-287h229v-16h-245zM177 633l83 75h23l-91 -75h-15z" />
    <glyph glyph-name="Ecircumflex" unicode="&#xca;" horiz-adv-x="346" 
d="M76 0v591h245v-16h-229v-256h178v-16h-178v-287h229v-16h-245zM109 624l83 86h15l81 -86h-20l-69 72l-72 -72h-18z" />
    <glyph glyph-name="Edieresis" unicode="&#xcb;" horiz-adv-x="346" 
d="M76 0v591h245v-16h-229v-256h178v-16h-178v-287h229v-16h-245zM237 643q-14 0 -14 14t14 14t14 -14t-14 -14zM160 643q-14 0 -14 14t14 14t14 -14t-14 -14z" />
    <glyph glyph-name="Igrave" unicode="&#xcc;" horiz-adv-x="168" 
d="M76 0v591h16v-591h-16zM105 633l-91 75h23l83 -75h-15z" />
    <glyph glyph-name="Iacute" unicode="&#xcd;" horiz-adv-x="168" 
d="M76 0v591h16v-591h-16zM64 633l83 75h23l-91 -75h-15z" />
    <glyph glyph-name="Icircumflex" unicode="&#xce;" horiz-adv-x="168" 
d="M76 0v591h16v-591h-16zM-4 624l83 86h15l81 -86h-20l-69 72l-72 -72h-18z" />
    <glyph glyph-name="Idieresis" unicode="&#xcf;" horiz-adv-x="168" 
d="M76 0v591h16v-591h-16zM124 643q-14 0 -14 14t14 14t14 -14t-14 -14zM47 643q-14 0 -14 14t14 14t14 -14t-14 -14z" />
    <glyph glyph-name="Eth" unicode="&#xd0;" horiz-adv-x="424" 
d="M76 0v591h156q36 0 64 -10.5t44.5 -38.5t16.5 -81v-331q0 -52 -15.5 -80.5t-43.5 -39t-66 -10.5h-156zM92 16h140q51 0 80 23.5t29 95.5v320q0 68 -28.5 94.5t-80.5 26.5h-140v-560zM34 289v15h171v-15h-171z" />
    <glyph glyph-name="Ntilde" unicode="&#xd1;" horiz-adv-x="434" 
d="M76 0v591h22l244 -562v562h16v-591h-21l-245 565v-565h-16zM267 630q-17 0 -30 7.5t-24.5 15t-25.5 7.5q-9 0 -17.5 -4.5t-10.5 -21.5h-15q2 17 13 29t30 12q17 0 29 -7.5t23.5 -15t27.5 -7.5q10 0 19 5t11 22h15q-3 -19 -14.5 -30.5t-30.5 -11.5z" />
    <glyph glyph-name="Ograve" unicode="&#xd2;" horiz-adv-x="415" 
d="M206 -12q-73 0 -106 28.5t-33 101.5v351q0 72 33.5 101t107.5 29q77 0 108.5 -30.5t31.5 -99.5v-351q0 -72 -32 -101t-110 -29zM207 4q70 0 97.5 27t27.5 90v345q0 62 -27.5 89.5t-97.5 27.5q-69 0 -96.5 -27t-27.5 -90v-345q0 -64 28.5 -90.5t95.5 -26.5zM226 633
l-91 75h23l83 -75h-15z" />
    <glyph glyph-name="Oacute" unicode="&#xd3;" horiz-adv-x="415" 
d="M206 -12q-73 0 -106 28.5t-33 101.5v351q0 72 33.5 101t107.5 29q77 0 108.5 -30.5t31.5 -99.5v-351q0 -72 -32 -101t-110 -29zM207 4q70 0 97.5 27t27.5 90v345q0 62 -27.5 89.5t-97.5 27.5q-69 0 -96.5 -27t-27.5 -90v-345q0 -64 28.5 -90.5t95.5 -26.5zM185 633l83 75
h23l-91 -75h-15z" />
    <glyph glyph-name="Ocircumflex" unicode="&#xd4;" horiz-adv-x="415" 
d="M206 -12q-73 0 -106 28.5t-33 101.5v351q0 72 33.5 101t107.5 29q77 0 108.5 -30.5t31.5 -99.5v-351q0 -72 -32 -101t-110 -29zM207 4q70 0 97.5 27t27.5 90v345q0 62 -27.5 89.5t-97.5 27.5q-69 0 -96.5 -27t-27.5 -90v-345q0 -64 28.5 -90.5t95.5 -26.5zM117 624l83 86
h15l81 -86h-20l-69 72l-72 -72h-18z" />
    <glyph glyph-name="Otilde" unicode="&#xd5;" horiz-adv-x="415" 
d="M206 -12q-73 0 -106 28.5t-33 101.5v351q0 72 33.5 101t107.5 29q77 0 108.5 -30.5t31.5 -99.5v-351q0 -72 -32 -101t-110 -29zM207 4q70 0 97.5 27t27.5 90v345q0 62 -27.5 89.5t-97.5 27.5q-69 0 -96.5 -27t-27.5 -90v-345q0 -64 28.5 -90.5t95.5 -26.5zM246 630
q-17 0 -30 7.5t-24.5 15t-25.5 7.5q-9 0 -17.5 -4.5t-10.5 -21.5h-15q2 17 13 29t30 12q17 0 29 -7.5t23.5 -15t27.5 -7.5q10 0 19 5t11 22h15q-3 -19 -14.5 -30.5t-30.5 -11.5z" />
    <glyph glyph-name="Odieresis" unicode="&#xd6;" horiz-adv-x="415" 
d="M206 -12q-73 0 -106 28.5t-33 101.5v351q0 72 33.5 101t107.5 29q77 0 108.5 -30.5t31.5 -99.5v-351q0 -72 -32 -101t-110 -29zM207 4q70 0 97.5 27t27.5 90v345q0 62 -27.5 89.5t-97.5 27.5q-69 0 -96.5 -27t-27.5 -90v-345q0 -64 28.5 -90.5t95.5 -26.5zM245 643
q-14 0 -14 14t14 14t14 -14t-14 -14zM168 643q-14 0 -14 14t14 14t14 -14t-14 -14z" />
    <glyph glyph-name="multiply" unicode="&#xd7;" horiz-adv-x="318" 
d="M60 163l88 88l-88 87l11 12l88 -88l88 88l11 -12l-88 -87l88 -88l-11 -11l-88 87l-88 -87z" />
    <glyph glyph-name="Oslash" unicode="&#xd8;" horiz-adv-x="415" 
d="M30 -56l51 100q-14 28 -14 74v351q0 58 19 85.5t51.5 36t70.5 8.5q42 0 76 -10t50 -46l40 78h17l-49 -97q6 -24 6 -55v-351q0 -58 -19 -85.5t-51 -36t-72 -8.5q-36 0 -66.5 7.5t-49.5 32.5l-42 -84h-18zM91 64l233 459q-13 39 -45 49.5t-72 10.5q-34 0 -62.5 -7.5
t-45 -32.5t-16.5 -77v-345q0 -33 8 -57zM207 4q35 0 63.5 7.5t45 32.5t16.5 77v345q0 10 -0.5 18.5t-1.5 15.5l-231 -455q17 -26 45.5 -33.5t62.5 -7.5z" />
    <glyph glyph-name="Ugrave" unicode="&#xd9;" horiz-adv-x="429" 
d="M209 -9q-37 0 -68 9t-49 35t-18 78v478h16v-475q0 -46 17 -69.5t44.5 -31.5t57.5 -8q31 0 60.5 8t49.5 31.5t20 69.5v475h16v-478q0 -52 -20.5 -78t-54 -35t-71.5 -9zM235 633l-91 75h23l83 -75h-15z" />
    <glyph glyph-name="Uacute" unicode="&#xda;" horiz-adv-x="429" 
d="M209 -9q-37 0 -68 9t-49 35t-18 78v478h16v-475q0 -46 17 -69.5t44.5 -31.5t57.5 -8q31 0 60.5 8t49.5 31.5t20 69.5v475h16v-478q0 -52 -20.5 -78t-54 -35t-71.5 -9zM194 633l83 75h23l-91 -75h-15z" />
    <glyph glyph-name="Ucircumflex" unicode="&#xdb;" horiz-adv-x="429" 
d="M209 -9q-37 0 -68 9t-49 35t-18 78v478h16v-475q0 -46 17 -69.5t44.5 -31.5t57.5 -8q31 0 60.5 8t49.5 31.5t20 69.5v475h16v-478q0 -52 -20.5 -78t-54 -35t-71.5 -9zM126 624l83 86h15l81 -86h-20l-69 72l-72 -72h-18z" />
    <glyph glyph-name="Udieresis" unicode="&#xdc;" horiz-adv-x="429" 
d="M209 -9q-37 0 -68 9t-49 35t-18 78v478h16v-475q0 -46 17 -69.5t44.5 -31.5t57.5 -8q31 0 60.5 8t49.5 31.5t20 69.5v475h16v-478q0 -52 -20.5 -78t-54 -35t-71.5 -9zM254 643q-14 0 -14 14t14 14t14 -14t-14 -14zM177 643q-14 0 -14 14t14 14t14 -14t-14 -14z" />
    <glyph glyph-name="Yacute" unicode="&#xdd;" horiz-adv-x="290" 
d="M130 0v253l-109 338h17l101 -316l113 316h17l-123 -338v-253h-16zM119 633l83 75h23l-91 -75h-15z" />
    <glyph glyph-name="Thorn" unicode="&#xde;" horiz-adv-x="383" 
d="M76 0v591h16v-120h148q43 0 74.5 -21.5t31.5 -75.5v-104q0 -29 -10.5 -56.5t-36.5 -45t-73 -17.5h-134v-151h-16zM92 167h130q49 0 78.5 24t29.5 79v101q0 43 -26 63.5t-60 20.5h-152v-288z" />
    <glyph glyph-name="germandbls" unicode="&#xdf;" horiz-adv-x="381" 
d="M14 -146q-18 0 -39 1t-29 2v15l22 -2q10 -1 20.5 -1h19.5q39 0 50.5 19.5t11.5 56.5v496h-31v16h31v70q0 54 23.5 80t96.5 26q56 0 89 -20.5t33 -74.5v-109q0 -33 -22 -58.5t-54 -28.5v-1q35 -4 61 -29.5t26 -67.5v-125q0 -52 -15.5 -77.5t-41.5 -33.5t-59 -8h-77v16h77
q30 0 52.5 7.5t35 30.5t12.5 69v116q0 53 -34.5 73.5t-79.5 20.5h-43v16h54q44 0 67.5 24t23.5 60v98q0 46 -25.5 66t-79.5 20q-47 0 -69.5 -12.5t-28.5 -32.5t-6 -44v-588q0 -41 -16 -63.5t-56 -22.5z" />
    <glyph glyph-name="agrave" unicode="&#xe0;" horiz-adv-x="354" 
d="M160 -4q-23 0 -47.5 8t-41.5 32.5t-17 75.5v34q0 32 14.5 56t35 40.5t40 27t28.5 15.5q40 22 62.5 38.5t32.5 34t10 42.5v14q0 34 -14.5 49t-36.5 19t-45 4q-44 0 -65.5 -15t-28 -40t-6.5 -56v-41h-16v43q0 58 23 91.5t93 33.5q54 0 77.5 -14t29 -36.5t5.5 -49.5v-402
h-15v73q-12 -35 -42.5 -56t-75.5 -21zM163 12q44 0 68.5 19t35 52t10.5 74v184q-16 -22 -43.5 -38.5t-56.5 -33.5q-25 -14 -49.5 -29.5t-41 -39.5t-16.5 -62v-26q0 -47 15 -68t37 -26.5t41 -5.5zM194 545l-71 86h20l66 -86h-15z" />
    <glyph glyph-name="aacute" unicode="&#xe1;" horiz-adv-x="354" 
d="M160 -4q-23 0 -47.5 8t-41.5 32.5t-17 75.5v34q0 32 14.5 56t35 40.5t40 27t28.5 15.5q40 22 62.5 38.5t32.5 34t10 42.5v14q0 34 -14.5 49t-36.5 19t-45 4q-44 0 -65.5 -15t-28 -40t-6.5 -56v-41h-16v43q0 58 23 91.5t93 33.5q54 0 77.5 -14t29 -36.5t5.5 -49.5v-402
h-15v73q-12 -35 -42.5 -56t-75.5 -21zM163 12q44 0 68.5 19t35 52t10.5 74v184q-16 -22 -43.5 -38.5t-56.5 -33.5q-25 -14 -49.5 -29.5t-41 -39.5t-16.5 -62v-26q0 -47 15 -68t37 -26.5t41 -5.5zM147 545l66 86h20l-71 -86h-15z" />
    <glyph glyph-name="acircumflex" unicode="&#xe2;" horiz-adv-x="354" 
d="M160 -4q-23 0 -47.5 8t-41.5 32.5t-17 75.5v34q0 32 14.5 56t35 40.5t40 27t28.5 15.5q40 22 62.5 38.5t32.5 34t10 42.5v14q0 34 -14.5 49t-36.5 19t-45 4q-44 0 -65.5 -15t-28 -40t-6.5 -56v-41h-16v43q0 58 23 91.5t93 33.5q54 0 77.5 -14t29 -36.5t5.5 -49.5v-402
h-15v73q-12 -35 -42.5 -56t-75.5 -21zM163 12q44 0 68.5 19t35 52t10.5 74v184q-16 -22 -43.5 -38.5t-56.5 -33.5q-25 -14 -49.5 -29.5t-41 -39.5t-16.5 -62v-26q0 -47 15 -68t37 -26.5t41 -5.5zM91 546l83 86h15l81 -86h-20l-69 72l-72 -72h-18z" />
    <glyph glyph-name="atilde" unicode="&#xe3;" horiz-adv-x="354" 
d="M160 -4q-23 0 -47.5 8t-41.5 32.5t-17 75.5v34q0 32 14.5 56t35 40.5t40 27t28.5 15.5q40 22 62.5 38.5t32.5 34t10 42.5v14q0 34 -14.5 49t-36.5 19t-45 4q-44 0 -65.5 -15t-28 -40t-6.5 -56v-41h-16v43q0 58 23 91.5t93 33.5q54 0 77.5 -14t29 -36.5t5.5 -49.5v-402
h-15v73q-12 -35 -42.5 -56t-75.5 -21zM163 12q44 0 68.5 19t35 52t10.5 74v184q-16 -22 -43.5 -38.5t-56.5 -33.5q-25 -14 -49.5 -29.5t-41 -39.5t-16.5 -62v-26q0 -47 15 -68t37 -26.5t41 -5.5zM221 550q-17 0 -30 7.5t-24.5 15t-25.5 7.5q-9 0 -17.5 -4.5t-10.5 -21.5h-15
q2 17 13 29t30 12q17 0 29 -7.5t23.5 -15t27.5 -7.5q10 0 19 5t11 22h15q-3 -19 -14.5 -30.5t-30.5 -11.5z" />
    <glyph glyph-name="adieresis" unicode="&#xe4;" horiz-adv-x="354" 
d="M160 -4q-23 0 -47.5 8t-41.5 32.5t-17 75.5v34q0 32 14.5 56t35 40.5t40 27t28.5 15.5q40 22 62.5 38.5t32.5 34t10 42.5v14q0 34 -14.5 49t-36.5 19t-45 4q-44 0 -65.5 -15t-28 -40t-6.5 -56v-41h-16v43q0 58 23 91.5t93 33.5q54 0 77.5 -14t29 -36.5t5.5 -49.5v-402
h-15v73q-12 -35 -42.5 -56t-75.5 -21zM163 12q44 0 68.5 19t35 52t10.5 74v184q-16 -22 -43.5 -38.5t-56.5 -33.5q-25 -14 -49.5 -29.5t-41 -39.5t-16.5 -62v-26q0 -47 15 -68t37 -26.5t41 -5.5zM219 566q-14 0 -14 14t14 14t14 -14t-14 -14zM142 566q-14 0 -14 14t14 14
t14 -14t-14 -14z" />
    <glyph glyph-name="aring" unicode="&#xe5;" horiz-adv-x="354" 
d="M160 -4q-23 0 -47.5 8t-41.5 32.5t-17 75.5v34q0 32 14.5 56t35 40.5t40 27t28.5 15.5q40 22 62.5 38.5t32.5 34t10 42.5v14q0 34 -14.5 49t-36.5 19t-45 4q-44 0 -65.5 -15t-28 -40t-6.5 -56v-41h-16v43q0 58 23 91.5t93 33.5q54 0 77.5 -14t29 -36.5t5.5 -49.5v-402
h-15v73q-12 -35 -42.5 -56t-75.5 -21zM163 12q44 0 68.5 19t35 52t10.5 74v184q-16 -22 -43.5 -38.5t-56.5 -33.5q-25 -14 -49.5 -29.5t-41 -39.5t-16.5 -62v-26q0 -47 15 -68t37 -26.5t41 -5.5zM182 542q-23 0 -39 15.5t-16 37.5t16 37.5t38 15.5q23 0 38.5 -15.5
t15.5 -37.5t-15 -37.5t-38 -15.5zM181 558q16 0 27 10.5t11 26.5q0 17 -11 27t-27 10t-27 -10t-11 -27q0 -16 11 -26.5t27 -10.5z" />
    <glyph glyph-name="ae" unicode="&#xe6;" horiz-adv-x="573" 
d="M397 -7q-44 0 -68.5 12.5t-35.5 31.5v-37h-15v73q-12 -35 -42.5 -56t-75.5 -21q-23 0 -47.5 8t-41.5 32.5t-17 75.5v34q0 32 14.5 56t35 40.5t40 27t28.5 15.5q40 22 62.5 38.5t32.5 34t10 42.5v14q0 34 -14.5 49t-36.5 19t-45 4q-44 0 -65.5 -15t-28 -40t-6.5 -56v-41
h-16v43q0 58 23 91.5t93 33.5q56 0 79 -15t29 -39q11 24 35.5 39.5t72.5 15.5q56 0 81 -19t31.5 -49t6.5 -63v-109h-223v-136q0 -29 5.5 -56.5t27.5 -44.5t71 -17t70.5 17t27 44t5.5 57v40h16v-43q0 -31 -6 -61t-31 -50t-82 -20zM293 279h207v84q0 35 -5 63t-26.5 44.5
t-71.5 16.5q-44 0 -66.5 -15.5t-30 -43t-7.5 -65.5v-84zM163 12q44 0 68.5 19t35 52t10.5 74v184q-16 -22 -43.5 -38.5t-56.5 -33.5q-25 -14 -49.5 -29.5t-41 -39.5t-16.5 -62v-26q0 -47 15 -68t37 -26.5t41 -5.5z" />
    <glyph glyph-name="ccedilla" unicode="&#xe7;" horiz-adv-x="345" 
d="M179 -7q-43 0 -67.5 11.5t-35.5 30.5t-14 42.5t-3 46.5v248q0 23 3 46t14 42.5t35.5 31t67.5 11.5q42 0 66.5 -11.5t35.5 -31t14 -42.5t3 -46v-44h-16v41q0 27 -5.5 54t-27 45.5t-70.5 18.5t-71 -18.5t-27.5 -45.5t-5.5 -54v-242q0 -26 5.5 -53.5t27.5 -46t71 -18.5
t70.5 18.5t27 46t5.5 53.5v40h16v-43q0 -31 -6 -61t-31 -50t-82 -20zM177 -134q-15 0 -25 4t-18 8l8 14q13 -11 35 -11q43 0 43 33q0 29 -34 29q-26 0 -39 -10l-8 10l34 57h13l-22 -43q2 1 10 1.5t13 0.5q25 0 37 -13t12 -30q0 -18 -15 -34t-44 -16z" />
    <glyph glyph-name="egrave" unicode="&#xe8;" horiz-adv-x="355" 
d="M179 -7q-43 0 -67.5 11.5t-35.5 30.5t-14 42.5t-3 46.5v248q0 31 7 61t32.5 50t80.5 20q56 0 81 -19t31.5 -49t6.5 -63v-109h-223v-136q0 -29 5.5 -56.5t27.5 -44.5t71 -17t70.5 17t27 44t5.5 57v40h16v-43q0 -31 -6 -61t-31 -50t-82 -20zM75 279h207v84q0 35 -5 63
t-26.5 44.5t-71.5 16.5q-44 0 -66.5 -15.5t-30 -43t-7.5 -65.5v-84zM197 545l-71 86h20l66 -86h-15z" />
    <glyph glyph-name="eacute" unicode="&#xe9;" horiz-adv-x="355" 
d="M179 -7q-43 0 -67.5 11.5t-35.5 30.5t-14 42.5t-3 46.5v248q0 31 7 61t32.5 50t80.5 20q56 0 81 -19t31.5 -49t6.5 -63v-109h-223v-136q0 -29 5.5 -56.5t27.5 -44.5t71 -17t70.5 17t27 44t5.5 57v40h16v-43q0 -31 -6 -61t-31 -50t-82 -20zM75 279h207v84q0 35 -5 63
t-26.5 44.5t-71.5 16.5q-44 0 -66.5 -15.5t-30 -43t-7.5 -65.5v-84zM150 545l66 86h20l-71 -86h-15z" />
    <glyph glyph-name="ecircumflex" unicode="&#xea;" horiz-adv-x="355" 
d="M179 -7q-43 0 -67.5 11.5t-35.5 30.5t-14 42.5t-3 46.5v248q0 31 7 61t32.5 50t80.5 20q56 0 81 -19t31.5 -49t6.5 -63v-109h-223v-136q0 -29 5.5 -56.5t27.5 -44.5t71 -17t70.5 17t27 44t5.5 57v40h16v-43q0 -31 -6 -61t-31 -50t-82 -20zM75 279h207v84q0 35 -5 63
t-26.5 44.5t-71.5 16.5q-44 0 -66.5 -15.5t-30 -43t-7.5 -65.5v-84zM94 546l83 86h15l81 -86h-20l-69 72l-72 -72h-18z" />
    <glyph glyph-name="edieresis" unicode="&#xeb;" horiz-adv-x="355" 
d="M179 -7q-43 0 -67.5 11.5t-35.5 30.5t-14 42.5t-3 46.5v248q0 31 7 61t32.5 50t80.5 20q56 0 81 -19t31.5 -49t6.5 -63v-109h-223v-136q0 -29 5.5 -56.5t27.5 -44.5t71 -17t70.5 17t27 44t5.5 57v40h16v-43q0 -31 -6 -61t-31 -50t-82 -20zM75 279h207v84q0 35 -5 63
t-26.5 44.5t-71.5 16.5q-44 0 -66.5 -15.5t-30 -43t-7.5 -65.5v-84zM222 566q-14 0 -14 14t14 14t14 -14t-14 -14zM145 566q-14 0 -14 14t14 14t14 -14t-14 -14z" />
    <glyph glyph-name="igrave" unicode="&#xec;" horiz-adv-x="152" 
d="M68 0v495h16v-495h-16zM89 545l-71 86h20l66 -86h-15z" />
    <glyph glyph-name="iacute" unicode="&#xed;" horiz-adv-x="152" 
d="M68 0v495h16v-495h-16zM42 545l66 86h20l-71 -86h-15z" />
    <glyph glyph-name="icircumflex" unicode="&#xee;" horiz-adv-x="152" 
d="M68 0v495h16v-495h-16zM-14 546l83 86h15l81 -86h-20l-69 72l-72 -72h-18z" />
    <glyph glyph-name="idieresis" unicode="&#xef;" horiz-adv-x="152" 
d="M68 0v495h16v-495h-16zM114 566q-14 0 -14 14t14 14t14 -14t-14 -14zM37 566q-14 0 -14 14t14 14t14 -14t-14 -14z" />
    <glyph glyph-name="eth" unicode="&#xf0;" horiz-adv-x="362" 
d="M179 -7q-43 0 -67.5 11.5t-35.5 30.5t-14 42.5t-3 46.5v248q0 23 3 46t14 42.5t35.5 31t66.5 11.5q52 0 77.5 -15.5t31.5 -23.5v54q0 39 -14 61t-37 31t-49 10l-28 -53h-15l28 53q-16 0 -34.5 -2t-40.5 -7v16q22 5 41.5 7t41.5 2l25 47l15 -1l-25 -46q55 -4 81.5 -35
t26.5 -85v-392q0 -31 -7.5 -61t-33.5 -50t-83 -20zM179 9q52 0 74.5 18.5t28 46t5.5 53.5v310q-3 7 -13 18.5t-32.5 21.5t-63.5 10q-39 0 -60 -11t-30 -28.5t-11 -38t-2 -40.5v-242q0 -20 2 -40.5t11 -38t30.5 -28.5t60.5 -11z" />
    <glyph glyph-name="ntilde" unicode="&#xf1;" horiz-adv-x="373" 
d="M68 0v495h14l2 -52q11 23 36.5 41.5t72.5 18.5q42 0 66.5 -11.5t35.5 -31t14 -42.5t3 -46v-372h-16v363q0 30 -5 58.5t-26.5 47t-71.5 18.5q-55 0 -82 -30t-27 -73v-384h-16zM230 550q-17 0 -30 7.5t-24.5 15t-25.5 7.5q-9 0 -17.5 -4.5t-10.5 -21.5h-15q2 17 13 29
t30 12q17 0 29 -7.5t23.5 -15t27.5 -7.5q10 0 19 5t11 22h15q-3 -19 -14.5 -30.5t-30.5 -11.5z" />
    <glyph glyph-name="ograve" unicode="&#xf2;" horiz-adv-x="362" 
d="M179 -7q-43 0 -67.5 11.5t-35.5 30.5t-14 42.5t-3 46.5v248q0 23 3 46t14.5 42.5t36.5 31t70 11.5q55 0 80 -20t32.5 -50t7.5 -61v-248q0 -31 -7.5 -61t-33.5 -50t-83 -20zM179 9q52 0 74.5 18.5t28 46t5.5 53.5v242q0 27 -5.5 54t-27 45.5t-71.5 18.5q-40 0 -62.5 -11
t-32 -28.5t-11.5 -38t-2 -40.5v-242q0 -20 2 -40.5t11 -38t30.5 -28.5t60.5 -11zM193 545l-71 86h20l66 -86h-15z" />
    <glyph glyph-name="oacute" unicode="&#xf3;" horiz-adv-x="362" 
d="M179 -7q-43 0 -67.5 11.5t-35.5 30.5t-14 42.5t-3 46.5v248q0 23 3 46t14.5 42.5t36.5 31t70 11.5q55 0 80 -20t32.5 -50t7.5 -61v-248q0 -31 -7.5 -61t-33.5 -50t-83 -20zM179 9q52 0 74.5 18.5t28 46t5.5 53.5v242q0 27 -5.5 54t-27 45.5t-71.5 18.5q-40 0 -62.5 -11
t-32 -28.5t-11.5 -38t-2 -40.5v-242q0 -20 2 -40.5t11 -38t30.5 -28.5t60.5 -11zM146 545l66 86h20l-71 -86h-15z" />
    <glyph glyph-name="ocircumflex" unicode="&#xf4;" horiz-adv-x="362" 
d="M179 -7q-43 0 -67.5 11.5t-35.5 30.5t-14 42.5t-3 46.5v248q0 23 3 46t14.5 42.5t36.5 31t70 11.5q55 0 80 -20t32.5 -50t7.5 -61v-248q0 -31 -7.5 -61t-33.5 -50t-83 -20zM179 9q52 0 74.5 18.5t28 46t5.5 53.5v242q0 27 -5.5 54t-27 45.5t-71.5 18.5q-40 0 -62.5 -11
t-32 -28.5t-11.5 -38t-2 -40.5v-242q0 -20 2 -40.5t11 -38t30.5 -28.5t60.5 -11zM90 546l83 86h15l81 -86h-20l-69 72l-72 -72h-18z" />
    <glyph glyph-name="otilde" unicode="&#xf5;" horiz-adv-x="362" 
d="M179 -7q-43 0 -67.5 11.5t-35.5 30.5t-14 42.5t-3 46.5v248q0 23 3 46t14.5 42.5t36.5 31t70 11.5q55 0 80 -20t32.5 -50t7.5 -61v-248q0 -31 -7.5 -61t-33.5 -50t-83 -20zM179 9q52 0 74.5 18.5t28 46t5.5 53.5v242q0 27 -5.5 54t-27 45.5t-71.5 18.5q-40 0 -62.5 -11
t-32 -28.5t-11.5 -38t-2 -40.5v-242q0 -20 2 -40.5t11 -38t30.5 -28.5t60.5 -11zM220 550q-17 0 -30 7.5t-24.5 15t-25.5 7.5q-9 0 -17.5 -4.5t-10.5 -21.5h-15q2 17 13 29t30 12q17 0 29 -7.5t23.5 -15t27.5 -7.5q10 0 19 5t11 22h15q-3 -19 -14.5 -30.5t-30.5 -11.5z" />
    <glyph glyph-name="odieresis" unicode="&#xf6;" horiz-adv-x="362" 
d="M179 -7q-43 0 -67.5 11.5t-35.5 30.5t-14 42.5t-3 46.5v248q0 23 3 46t14.5 42.5t36.5 31t70 11.5q55 0 80 -20t32.5 -50t7.5 -61v-248q0 -31 -7.5 -61t-33.5 -50t-83 -20zM179 9q52 0 74.5 18.5t28 46t5.5 53.5v242q0 27 -5.5 54t-27 45.5t-71.5 18.5q-40 0 -62.5 -11
t-32 -28.5t-11.5 -38t-2 -40.5v-242q0 -20 2 -40.5t11 -38t30.5 -28.5t60.5 -11zM218 566q-14 0 -14 14t14 14t14 -14t-14 -14zM141 566q-14 0 -14 14t14 14t14 -14t-14 -14z" />
    <glyph glyph-name="divide" unicode="&#xf7;" horiz-adv-x="352" 
d="M176 427q-16 0 -16 16t16 16t16 -16t-16 -16zM50 281v16h252v-16h-252zM176 107q-16 0 -16 16t16 16t16 -16t-16 -16z" />
    <glyph glyph-name="oslash" unicode="&#xf8;" horiz-adv-x="362" 
d="M19 -46l49 97q-6 17 -7.5 35.5t-1.5 37.5v248q0 23 3 46t14.5 42.5t36.5 31t70 11.5q38 0 61 -10t36 -27l41 82h17l-49 -97q9 -17 11.5 -38t2.5 -41v-248q0 -31 -7.5 -61t-33.5 -50t-83 -20q-42 0 -66 11t-36 29l-40 -79h-18zM79 72l192 378q-10 17 -31 27t-57 10
q-40 0 -62.5 -11t-32 -28.5t-11.5 -38t-2 -40.5v-242q0 -13 0.5 -27t3.5 -28zM179 9q52 0 74.5 18.5t28 46t5.5 53.5v242q0 16 -1.5 32t-6.5 31l-193 -381q10 -18 31.5 -30t61.5 -12z" />
    <glyph glyph-name="ugrave" unicode="&#xf9;" horiz-adv-x="380" 
d="M187 -8q-42 0 -66.5 11.5t-35.5 31t-14 42.5t-3 46v372h16v-363q0 -29 5 -58t26.5 -47.5t71.5 -18.5q55 0 80 27.5t29 70.5v389h16v-495h-14l-2 50q-11 -23 -36.5 -40.5t-72.5 -17.5zM203 545l-71 86h20l66 -86h-15z" />
    <glyph glyph-name="uacute" unicode="&#xfa;" horiz-adv-x="380" 
d="M187 -8q-42 0 -66.5 11.5t-35.5 31t-14 42.5t-3 46v372h16v-363q0 -29 5 -58t26.5 -47.5t71.5 -18.5q55 0 80 27.5t29 70.5v389h16v-495h-14l-2 50q-11 -23 -36.5 -40.5t-72.5 -17.5zM156 545l66 86h20l-71 -86h-15z" />
    <glyph glyph-name="ucircumflex" unicode="&#xfb;" horiz-adv-x="380" 
d="M187 -8q-42 0 -66.5 11.5t-35.5 31t-14 42.5t-3 46v372h16v-363q0 -29 5 -58t26.5 -47.5t71.5 -18.5q55 0 80 27.5t29 70.5v389h16v-495h-14l-2 50q-11 -23 -36.5 -40.5t-72.5 -17.5zM100 546l83 86h15l81 -86h-20l-69 72l-72 -72h-18z" />
    <glyph glyph-name="udieresis" unicode="&#xfc;" horiz-adv-x="380" 
d="M187 -8q-42 0 -66.5 11.5t-35.5 31t-14 42.5t-3 46v372h16v-363q0 -29 5 -58t26.5 -47.5t71.5 -18.5q55 0 80 27.5t29 70.5v389h16v-495h-14l-2 50q-11 -23 -36.5 -40.5t-72.5 -17.5zM228 566q-14 0 -14 14t14 14t14 -14t-14 -14zM151 566q-14 0 -14 14t14 14t14 -14
t-14 -14z" />
    <glyph glyph-name="yacute" unicode="&#xfd;" horiz-adv-x="298" 
d="M53 -115q-15 0 -31 2.5t-18 3.5v14q2 -1 17 -3.5t32 -2.5q16 0 33.5 8t33 29t21.5 60l-121 499h16l113 -468l114 468h16l-121 -496q-13 -52 -36.5 -83t-68.5 -31zM114 545l66 86h20l-71 -86h-15z" />
    <glyph glyph-name="thorn" unicode="&#xfe;" horiz-adv-x="366" 
d="M68 -116v746h16v-185q5 20 28.5 39t75.5 19q42 0 66.5 -11.5t35.5 -31t14 -42.5t3 -46v-248q0 -31 -6 -61t-31 -50t-82 -20q-50 0 -74 14.5t-30 30.5v-154h-16zM188 9q39 0 60 11t30 28.5t11 38t2 40.5v242q0 30 -4.5 57t-25.5 44t-73 17q-48 0 -70 -17.5t-28 -45.5
t-6 -61v-236q0 -20 2 -40.5t11 -38t30.5 -28.5t60.5 -11z" />
    <glyph glyph-name="ydieresis" unicode="&#xff;" horiz-adv-x="298" 
d="M53 -115q-15 0 -31 2.5t-18 3.5v14q2 -1 17 -3.5t32 -2.5q16 0 33.5 8t33 29t21.5 60l-121 499h16l113 -468l114 468h16l-121 -496q-13 -52 -36.5 -83t-68.5 -31zM186 566q-14 0 -14 14t14 14t14 -14t-14 -14zM109 566q-14 0 -14 14t14 14t14 -14t-14 -14z" />
    <glyph glyph-name="Amacron" unicode="&#x100;" horiz-adv-x="365" 
d="M25 0l151 591h13l151 -591h-17l-40 160h-202l-39 -160h-17zM85 176h194l-92 356l-4 17l-4 -17zM99 652v16h166v-16h-166z" />
    <glyph glyph-name="amacron" unicode="&#x101;" horiz-adv-x="354" 
d="M160 -4q-23 0 -47.5 8t-41.5 32.5t-17 75.5v34q0 32 14.5 56t35 40.5t40 27t28.5 15.5q40 22 62.5 38.5t32.5 34t10 42.5v14q0 34 -14.5 49t-36.5 19t-45 4q-44 0 -65.5 -15t-28 -40t-6.5 -56v-41h-16v43q0 58 23 91.5t93 33.5q54 0 77.5 -14t29 -36.5t5.5 -49.5v-402
h-15v73q-12 -35 -42.5 -56t-75.5 -21zM163 12q44 0 68.5 19t35 52t10.5 74v184q-16 -22 -43.5 -38.5t-56.5 -33.5q-25 -14 -49.5 -29.5t-41 -39.5t-16.5 -62v-26q0 -47 15 -68t37 -26.5t41 -5.5zM101 566v16h160v-16h-160z" />
    <glyph glyph-name="Abreve" unicode="&#x102;" horiz-adv-x="365" 
d="M25 0l151 591h13l151 -591h-17l-40 160h-202l-39 -160h-17zM85 176h194l-92 356l-4 17l-4 -17zM178 624q-43 0 -60 24.5t-17 52.5h16q1 -33 19 -47t43 -14q26 0 49.5 15t23.5 46h16q0 -28 -23 -52.5t-67 -24.5z" />
    <glyph glyph-name="abreve" unicode="&#x103;" horiz-adv-x="354" 
d="M160 -4q-23 0 -47.5 8t-41.5 32.5t-17 75.5v34q0 32 14.5 56t35 40.5t40 27t28.5 15.5q40 22 62.5 38.5t32.5 34t10 42.5v14q0 34 -14.5 49t-36.5 19t-45 4q-44 0 -65.5 -15t-28 -40t-6.5 -56v-41h-16v43q0 58 23 91.5t93 33.5q54 0 77.5 -14t29 -36.5t5.5 -49.5v-402
h-15v73q-12 -35 -42.5 -56t-75.5 -21zM163 12q44 0 68.5 19t35 52t10.5 74v184q-16 -22 -43.5 -38.5t-56.5 -33.5q-25 -14 -49.5 -29.5t-41 -39.5t-16.5 -62v-26q0 -47 15 -68t37 -26.5t41 -5.5zM179 546q-43 0 -60 24.5t-17 52.5h16q1 -33 19 -47t43 -14q26 0 49.5 15
t23.5 46h16q0 -28 -23 -52.5t-67 -24.5z" />
    <glyph glyph-name="Aogonek" unicode="&#x104;" horiz-adv-x="365" 
d="M25 0l151 591h13l151 -591h-17l-40 160h-202l-39 -160h-17zM85 176h194l-92 356l-4 17l-4 -17zM330 -129q-27 0 -43.5 14.5t-16.5 39.5q0 26 18 46t36 29h16q-19 -12 -36.5 -33t-17.5 -42q0 -17 12.5 -28t31.5 -11q18 0 34 8l6 -12q-9 -6 -19.5 -8.5t-20.5 -2.5z" />
    <glyph glyph-name="aogonek" unicode="&#x105;" horiz-adv-x="354" 
d="M160 -4q-23 0 -47.5 8t-41.5 32.5t-17 75.5v34q0 32 14.5 56t35 40.5t40 27t28.5 15.5q40 22 62.5 38.5t32.5 34t10 42.5v14q0 34 -14.5 49t-36.5 19t-45 4q-44 0 -65.5 -15t-28 -40t-6.5 -56v-41h-16v43q0 58 23 91.5t93 33.5q54 0 77.5 -14t29 -36.5t5.5 -49.5v-402
h-15v73q-12 -35 -42.5 -56t-75.5 -21zM163 12q44 0 68.5 19t35 52t10.5 74v184q-16 -22 -43.5 -38.5t-56.5 -33.5q-25 -14 -49.5 -29.5t-41 -39.5t-16.5 -62v-26q0 -47 15 -68t37 -26.5t41 -5.5zM283 -129q-27 0 -43.5 14.5t-16.5 39.5q0 26 18 46t36 29h16
q-19 -12 -36.5 -33t-17.5 -42q0 -17 12.5 -28t31.5 -11q18 0 34 8l6 -12q-9 -6 -19.5 -8.5t-20.5 -2.5z" />
    <glyph glyph-name="Cacute" unicode="&#x106;" horiz-adv-x="404" 
d="M202 -12q-38 0 -68.5 8.5t-48.5 36.5t-18 85v351q0 58 18 85.5t49.5 36t69.5 8.5q39 0 69.5 -9t48.5 -36.5t18 -84.5v-88h-16v92q0 48 -15.5 71.5t-42.5 31t-63 7.5q-37 0 -64 -8.5t-41.5 -33t-14.5 -74.5v-351q0 -48 16.5 -72t44 -32t59.5 -8q35 0 62.5 8t43 32t15.5 72
v73h16v-71q0 -58 -18 -85.5t-49 -36t-71 -8.5zM183 633l83 75h23l-91 -75h-15z" />
    <glyph glyph-name="cacute" unicode="&#x107;" horiz-adv-x="345" 
d="M179 -7q-43 0 -67.5 11.5t-35.5 30.5t-14 42.5t-3 46.5v248q0 23 3 46t14 42.5t35.5 31t67.5 11.5q42 0 66.5 -11.5t35.5 -31t14 -42.5t3 -46v-44h-16v41q0 27 -5.5 54t-27 45.5t-70.5 18.5t-71 -18.5t-27.5 -45.5t-5.5 -54v-242q0 -26 5.5 -53.5t27.5 -46t71 -18.5
t70.5 18.5t27 46t5.5 53.5v40h16v-43q0 -31 -6 -61t-31 -50t-82 -20zM143 545l66 86h20l-71 -86h-15z" />
    <glyph glyph-name="Ccircumflex" unicode="&#x108;" horiz-adv-x="404" 
d="M202 -12q-38 0 -68.5 8.5t-48.5 36.5t-18 85v351q0 58 18 85.5t49.5 36t69.5 8.5q39 0 69.5 -9t48.5 -36.5t18 -84.5v-88h-16v92q0 48 -15.5 71.5t-42.5 31t-63 7.5q-37 0 -64 -8.5t-41.5 -33t-14.5 -74.5v-351q0 -48 16.5 -72t44 -32t59.5 -8q35 0 62.5 8t43 32t15.5 72
v73h16v-71q0 -58 -18 -85.5t-49 -36t-71 -8.5zM115 624l83 86h15l81 -86h-20l-69 72l-72 -72h-18z" />
    <glyph glyph-name="ccircumflex" unicode="&#x109;" horiz-adv-x="345" 
d="M179 -7q-43 0 -67.5 11.5t-35.5 30.5t-14 42.5t-3 46.5v248q0 23 3 46t14 42.5t35.5 31t67.5 11.5q42 0 66.5 -11.5t35.5 -31t14 -42.5t3 -46v-44h-16v41q0 27 -5.5 54t-27 45.5t-70.5 18.5t-71 -18.5t-27.5 -45.5t-5.5 -54v-242q0 -26 5.5 -53.5t27.5 -46t71 -18.5
t70.5 18.5t27 46t5.5 53.5v40h16v-43q0 -31 -6 -61t-31 -50t-82 -20zM87 546l83 86h15l81 -86h-20l-69 72l-72 -72h-18z" />
    <glyph glyph-name="Cdotaccent" unicode="&#x10a;" horiz-adv-x="404" 
d="M202 -12q-38 0 -68.5 8.5t-48.5 36.5t-18 85v351q0 58 18 85.5t49.5 36t69.5 8.5q39 0 69.5 -9t48.5 -36.5t18 -84.5v-88h-16v92q0 48 -15.5 71.5t-42.5 31t-63 7.5q-37 0 -64 -8.5t-41.5 -33t-14.5 -74.5v-351q0 -48 16.5 -72t44 -32t59.5 -8q35 0 62.5 8t43 32t15.5 72
v73h16v-71q0 -58 -18 -85.5t-49 -36t-71 -8.5zM204 640q-14 0 -14 14t14 14t14 -14t-14 -14z" />
    <glyph glyph-name="cdotaccent" unicode="&#x10b;" horiz-adv-x="345" 
d="M179 -7q-43 0 -67.5 11.5t-35.5 30.5t-14 42.5t-3 46.5v248q0 23 3 46t14 42.5t35.5 31t67.5 11.5q42 0 66.5 -11.5t35.5 -31t14 -42.5t3 -46v-44h-16v41q0 27 -5.5 54t-27 45.5t-70.5 18.5t-71 -18.5t-27.5 -45.5t-5.5 -54v-242q0 -26 5.5 -53.5t27.5 -46t71 -18.5
t70.5 18.5t27 46t5.5 53.5v40h16v-43q0 -31 -6 -61t-31 -50t-82 -20zM177 566q-14 0 -14 14t14 14t14 -14t-14 -14z" />
    <glyph glyph-name="Ccaron" unicode="&#x10c;" horiz-adv-x="404" 
d="M202 -12q-38 0 -68.5 8.5t-48.5 36.5t-18 85v351q0 58 18 85.5t49.5 36t69.5 8.5q39 0 69.5 -9t48.5 -36.5t18 -84.5v-88h-16v92q0 48 -15.5 71.5t-42.5 31t-63 7.5q-37 0 -64 -8.5t-41.5 -33t-14.5 -74.5v-351q0 -48 16.5 -72t44 -32t59.5 -8q35 0 62.5 8t43 32t15.5 72
v73h16v-71q0 -58 -18 -85.5t-49 -36t-71 -8.5zM196 611l-83 86h18l72 -72l69 72h20l-81 -86h-15z" />
    <glyph glyph-name="ccaron" unicode="&#x10d;" horiz-adv-x="345" 
d="M179 -7q-43 0 -67.5 11.5t-35.5 30.5t-14 42.5t-3 46.5v248q0 23 3 46t14 42.5t35.5 31t67.5 11.5q42 0 66.5 -11.5t35.5 -31t14 -42.5t3 -46v-44h-16v41q0 27 -5.5 54t-27 45.5t-70.5 18.5t-71 -18.5t-27.5 -45.5t-5.5 -54v-242q0 -26 5.5 -53.5t27.5 -46t71 -18.5
t70.5 18.5t27 46t5.5 53.5v40h16v-43q0 -31 -6 -61t-31 -50t-82 -20zM180 539l-83 86h18l72 -72l69 72h20l-81 -86h-15z" />
    <glyph glyph-name="Dcaron" unicode="&#x10e;" horiz-adv-x="424" 
d="M76 0v591h156q36 0 64 -10.5t44.5 -38.5t16.5 -81v-331q0 -52 -15.5 -80.5t-43.5 -39t-66 -10.5h-156zM92 16h140q51 0 80 23.5t29 95.5v320q0 68 -28.5 94.5t-80.5 26.5h-140v-560zM186 611l-83 86h18l72 -72l69 72h20l-81 -86h-15z" />
    <glyph glyph-name="dcaron" unicode="&#x10f;" horiz-adv-x="366" 
d="M178 -7q-56 0 -81.5 20t-31.5 50t-6 61v248q0 23 3 46t14 42.5t35.5 31t66.5 11.5q35 0 56 -7.5t32.5 -16.5t15.5 -13v164h16v-630h-13l-2 50q-7 -21 -35 -39t-70 -18zM178 9q42 0 64.5 16.5t31 43.5t8.5 58v310q-3 7 -11.5 18.5t-30 21.5t-62.5 10q-39 0 -60 -11
t-30 -28.5t-11 -38t-2 -40.5v-242q0 -20 2 -40.5t11 -38t30 -28.5t60 -11zM351 512l14 111h15l-19 -111h-10z" />
    <glyph glyph-name="Dcroat" unicode="&#x110;" horiz-adv-x="424" 
d="M76 0v591h156q36 0 64 -10.5t44.5 -38.5t16.5 -81v-331q0 -52 -15.5 -80.5t-43.5 -39t-66 -10.5h-156zM92 16h140q51 0 80 23.5t29 95.5v320q0 68 -28.5 94.5t-80.5 26.5h-140v-560zM34 289v15h171v-15h-171z" />
    <glyph glyph-name="dcroat" unicode="&#x111;" horiz-adv-x="366" 
d="M178 -7q-56 0 -81.5 20t-31.5 50t-6 61v248q0 23 3 46t14 42.5t35.5 31t66.5 11.5q35 0 56 -7.5t32.5 -16.5t15.5 -13v94h-105v15h105v55h16v-55h50v-15h-50v-560h-13l-2 50q-7 -21 -35 -39t-70 -18zM178 9q42 0 64.5 16.5t31 43.5t8.5 58v310q-3 7 -11.5 18.5t-30 21.5
t-62.5 10q-39 0 -60 -11t-30 -28.5t-11 -38t-2 -40.5v-242q0 -20 2 -40.5t11 -38t30 -28.5t60 -11z" />
    <glyph glyph-name="Emacron" unicode="&#x112;" horiz-adv-x="346" 
d="M76 0v591h245v-16h-229v-256h178v-16h-178v-287h229v-16h-245zM115 652v16h166v-16h-166z" />
    <glyph glyph-name="emacron" unicode="&#x113;" horiz-adv-x="355" 
d="M179 -7q-43 0 -67.5 11.5t-35.5 30.5t-14 42.5t-3 46.5v248q0 31 7 61t32.5 50t80.5 20q56 0 81 -19t31.5 -49t6.5 -63v-109h-223v-136q0 -29 5.5 -56.5t27.5 -44.5t71 -17t70.5 17t27 44t5.5 57v40h16v-43q0 -31 -6 -61t-31 -50t-82 -20zM75 279h207v84q0 35 -5 63
t-26.5 44.5t-71.5 16.5q-44 0 -66.5 -15.5t-30 -43t-7.5 -65.5v-84zM104 566v16h160v-16h-160z" />
    <glyph glyph-name="Ebreve" unicode="&#x114;" horiz-adv-x="346" 
d="M76 0v591h245v-16h-229v-256h178v-16h-178v-287h229v-16h-245zM194 624q-43 0 -60 24.5t-17 52.5h16q1 -33 19 -47t43 -14q26 0 49.5 15t23.5 46h16q0 -28 -23 -52.5t-67 -24.5z" />
    <glyph glyph-name="ebreve" unicode="&#x115;" horiz-adv-x="355" 
d="M179 -7q-43 0 -67.5 11.5t-35.5 30.5t-14 42.5t-3 46.5v248q0 31 7 61t32.5 50t80.5 20q56 0 81 -19t31.5 -49t6.5 -63v-109h-223v-136q0 -29 5.5 -56.5t27.5 -44.5t71 -17t70.5 17t27 44t5.5 57v40h16v-43q0 -31 -6 -61t-31 -50t-82 -20zM75 279h207v84q0 35 -5 63
t-26.5 44.5t-71.5 16.5q-44 0 -66.5 -15.5t-30 -43t-7.5 -65.5v-84zM182 546q-43 0 -60 24.5t-17 52.5h16q1 -33 19 -47t43 -14q26 0 49.5 15t23.5 46h16q0 -28 -23 -52.5t-67 -24.5z" />
    <glyph glyph-name="Edotaccent" unicode="&#x116;" horiz-adv-x="346" 
d="M76 0v591h245v-16h-229v-256h178v-16h-178v-287h229v-16h-245zM198 640q-14 0 -14 14t14 14t14 -14t-14 -14z" />
    <glyph glyph-name="edotaccent" unicode="&#x117;" horiz-adv-x="355" 
d="M179 -7q-43 0 -67.5 11.5t-35.5 30.5t-14 42.5t-3 46.5v248q0 31 7 61t32.5 50t80.5 20q56 0 81 -19t31.5 -49t6.5 -63v-109h-223v-136q0 -29 5.5 -56.5t27.5 -44.5t71 -17t70.5 17t27 44t5.5 57v40h16v-43q0 -31 -6 -61t-31 -50t-82 -20zM75 279h207v84q0 35 -5 63
t-26.5 44.5t-71.5 16.5q-44 0 -66.5 -15.5t-30 -43t-7.5 -65.5v-84zM184 566q-14 0 -14 14t14 14t14 -14t-14 -14z" />
    <glyph glyph-name="Eogonek" unicode="&#x118;" horiz-adv-x="346" 
d="M76 0v591h245v-16h-229v-256h178v-16h-178v-287h229v-16h-245zM292 -129q-27 0 -43.5 14.5t-16.5 39.5q0 26 18 46t36 29h16q-19 -12 -36.5 -33t-17.5 -42q0 -17 12.5 -28t31.5 -11q18 0 34 8l6 -12q-9 -6 -19.5 -8.5t-20.5 -2.5z" />
    <glyph glyph-name="eogonek" unicode="&#x119;" horiz-adv-x="355" 
d="M179 -7q-43 0 -67.5 11.5t-35.5 30.5t-14 42.5t-3 46.5v248q0 31 7 61t32.5 50t80.5 20q56 0 81 -19t31.5 -49t6.5 -63v-109h-223v-136q0 -29 5.5 -56.5t27.5 -44.5t71 -17t70.5 17t27 44t5.5 57v40h16v-43q0 -31 -6 -61t-31 -50t-82 -20zM75 279h207v84q0 35 -5 63
t-26.5 44.5t-71.5 16.5q-44 0 -66.5 -15.5t-30 -43t-7.5 -65.5v-84zM237 -123q-27 0 -43.5 14.5t-16.5 39.5q0 26 18 46t36 29h16q-19 -12 -36.5 -33t-17.5 -42q0 -17 12.5 -28t31.5 -11q18 0 34 8l6 -12q-9 -6 -19.5 -8.5t-20.5 -2.5z" />
    <glyph glyph-name="Ecaron" unicode="&#x11a;" horiz-adv-x="346" 
d="M76 0v591h245v-16h-229v-256h178v-16h-178v-287h229v-16h-245zM190 611l-83 86h18l72 -72l69 72h20l-81 -86h-15z" />
    <glyph glyph-name="ecaron" unicode="&#x11b;" horiz-adv-x="355" 
d="M179 -7q-43 0 -67.5 11.5t-35.5 30.5t-14 42.5t-3 46.5v248q0 31 7 61t32.5 50t80.5 20q56 0 81 -19t31.5 -49t6.5 -63v-109h-223v-136q0 -29 5.5 -56.5t27.5 -44.5t71 -17t70.5 17t27 44t5.5 57v40h16v-43q0 -31 -6 -61t-31 -50t-82 -20zM75 279h207v84q0 35 -5 63
t-26.5 44.5t-71.5 16.5q-44 0 -66.5 -15.5t-30 -43t-7.5 -65.5v-84zM187 539l-83 86h18l72 -72l69 72h20l-81 -86h-15z" />
    <glyph glyph-name="Gcircumflex" unicode="&#x11c;" horiz-adv-x="410" 
d="M206 -12q-38 0 -69.5 8.5t-50.5 36.5t-19 85v351q0 58 19 85.5t51.5 36t71.5 8.5q40 0 70 -9t47.5 -36.5t17.5 -84.5v-68h-16v67q0 49 -14 73.5t-41 33t-66 8.5q-38 0 -66 -8.5t-43 -33t-15 -73.5v-343q0 -53 16.5 -79t45 -34t62.5 -8q51 0 86 32t35 89v131h-107v15h123
v-271h-16v63q-8 -27 -42 -51t-80 -24zM116 624l83 86h15l81 -86h-20l-69 72l-72 -72h-18z" />
    <glyph glyph-name="gcircumflex" unicode="&#x11d;" horiz-adv-x="366" 
d="M176 -115q-22 0 -39.5 1.5t-24.5 2.5v17q27 -5 64 -5q27 0 51 8.5t39.5 31t15.5 62.5v73q-8 -20 -35.5 -37t-68.5 -17q-56 0 -81.5 20t-31.5 50t-6 61v219q0 23 3 46t14 42.5t35.5 31t66.5 11.5q35 0 56 -7.5t32.5 -16.5t15.5 -13l3 29h13v-490q0 -57 -30 -88.5
t-92 -31.5zM178 38q42 0 64.5 16.5t31 43.5t8.5 58v281q-3 7 -11.5 18.5t-30 21.5t-62.5 10q-39 0 -60 -11t-30 -28.5t-11 -38t-2 -40.5v-213q0 -20 2 -40.5t11 -38t30 -28.5t60 -11zM97 546l83 86h15l81 -86h-20l-69 72l-72 -72h-18z" />
    <glyph glyph-name="Gbreve" unicode="&#x11e;" horiz-adv-x="410" 
d="M206 -12q-38 0 -69.5 8.5t-50.5 36.5t-19 85v351q0 58 19 85.5t51.5 36t71.5 8.5q40 0 70 -9t47.5 -36.5t17.5 -84.5v-68h-16v67q0 49 -14 73.5t-41 33t-66 8.5q-38 0 -66 -8.5t-43 -33t-15 -73.5v-343q0 -53 16.5 -79t45 -34t62.5 -8q51 0 86 32t35 89v131h-107v15h123
v-271h-16v63q-8 -27 -42 -51t-80 -24zM201 624q-43 0 -60 24.5t-17 52.5h16q1 -33 19 -47t43 -14q26 0 49.5 15t23.5 46h16q0 -28 -23 -52.5t-67 -24.5z" />
    <glyph glyph-name="gbreve" unicode="&#x11f;" horiz-adv-x="366" 
d="M176 -115q-22 0 -39.5 1.5t-24.5 2.5v17q27 -5 64 -5q27 0 51 8.5t39.5 31t15.5 62.5v73q-8 -20 -35.5 -37t-68.5 -17q-56 0 -81.5 20t-31.5 50t-6 61v219q0 23 3 46t14 42.5t35.5 31t66.5 11.5q35 0 56 -7.5t32.5 -16.5t15.5 -13l3 29h13v-490q0 -57 -30 -88.5
t-92 -31.5zM178 38q42 0 64.5 16.5t31 43.5t8.5 58v281q-3 7 -11.5 18.5t-30 21.5t-62.5 10q-39 0 -60 -11t-30 -28.5t-11 -38t-2 -40.5v-213q0 -20 2 -40.5t11 -38t30 -28.5t60 -11zM185 546q-43 0 -60 24.5t-17 52.5h16q1 -33 19 -47t43 -14q26 0 49.5 15t23.5 46h16
q0 -28 -23 -52.5t-67 -24.5z" />
    <glyph glyph-name="Gdotaccent" unicode="&#x120;" horiz-adv-x="410" 
d="M206 -12q-38 0 -69.5 8.5t-50.5 36.5t-19 85v351q0 58 19 85.5t51.5 36t71.5 8.5q40 0 70 -9t47.5 -36.5t17.5 -84.5v-68h-16v67q0 49 -14 73.5t-41 33t-66 8.5q-38 0 -66 -8.5t-43 -33t-15 -73.5v-343q0 -53 16.5 -79t45 -34t62.5 -8q51 0 86 32t35 89v131h-107v15h123
v-271h-16v63q-8 -27 -42 -51t-80 -24zM205 640q-14 0 -14 14t14 14t14 -14t-14 -14z" />
    <glyph glyph-name="gdotaccent" unicode="&#x121;" horiz-adv-x="366" 
d="M176 -115q-22 0 -39.5 1.5t-24.5 2.5v17q27 -5 64 -5q27 0 51 8.5t39.5 31t15.5 62.5v73q-8 -20 -35.5 -37t-68.5 -17q-56 0 -81.5 20t-31.5 50t-6 61v219q0 23 3 46t14 42.5t35.5 31t66.5 11.5q35 0 56 -7.5t32.5 -16.5t15.5 -13l3 29h13v-490q0 -57 -30 -88.5
t-92 -31.5zM178 38q42 0 64.5 16.5t31 43.5t8.5 58v281q-3 7 -11.5 18.5t-30 21.5t-62.5 10q-39 0 -60 -11t-30 -28.5t-11 -38t-2 -40.5v-213q0 -20 2 -40.5t11 -38t30 -28.5t60 -11zM187 566q-14 0 -14 14t14 14t14 -14t-14 -14z" />
    <glyph glyph-name="uni0122" unicode="&#x122;" horiz-adv-x="410" 
d="M206 -12q-38 0 -69.5 8.5t-50.5 36.5t-19 85v351q0 58 19 85.5t51.5 36t71.5 8.5q40 0 70 -9t47.5 -36.5t17.5 -84.5v-68h-16v67q0 49 -14 73.5t-41 33t-66 8.5q-38 0 -66 -8.5t-43 -33t-15 -73.5v-343q0 -53 16.5 -79t45 -34t62.5 -8q51 0 86 32t35 89v131h-107v15h123
v-271h-16v63q-8 -27 -42 -51t-80 -24zM181 -130q5 8 13.5 23.5t8.5 25.5q0 8 -6.5 11t-6.5 15q0 5 4 9.5t11 4.5q10 0 14 -5.5t4 -13.5q0 -16 -10 -36t-21 -34h-11z" />
    <glyph glyph-name="uni0123" unicode="&#x123;" horiz-adv-x="366" 
d="M176 -115q-22 0 -39.5 1.5t-24.5 2.5v17q27 -5 64 -5q27 0 51 8.5t39.5 31t15.5 62.5v73q-8 -20 -35.5 -37t-68.5 -17q-56 0 -81.5 20t-31.5 50t-6 61v219q0 23 3 46t14 42.5t35.5 31t66.5 11.5q35 0 56 -7.5t32.5 -16.5t15.5 -13l3 29h13v-490q0 -57 -30 -88.5
t-92 -31.5zM178 38q42 0 64.5 16.5t31 43.5t8.5 58v281q-3 7 -11.5 18.5t-30 21.5t-62.5 10q-39 0 -60 -11t-30 -28.5t-11 -38t-2 -40.5v-213q0 -20 2 -40.5t11 -38t30 -28.5t60 -11zM186 544q-10 0 -14 6t-4 13q0 16 10 36t21 34h11q-5 -7 -13.5 -22.5t-8.5 -26.5
q0 -7 6.5 -10.5t6.5 -15.5q0 -5 -3.5 -9.5t-11.5 -4.5z" />
    <glyph glyph-name="Hcircumflex" unicode="&#x124;" horiz-adv-x="433" 
d="M76 0v591h16v-273h249v273h16v-591h-16v302h-249v-302h-16zM128 624l83 86h15l81 -86h-20l-69 72l-72 -72h-18z" />
    <glyph glyph-name="hcircumflex" unicode="&#x125;" horiz-adv-x="373" 
d="M68 0v630h16v-185q11 23 36.5 40.5t72.5 17.5q42 0 66.5 -11.5t35.5 -31t14 -42.5t3 -46v-372h-16v363q0 30 -5 58.5t-26.5 47t-71.5 18.5q-55 0 -80 -27.5t-29 -70.5v-389h-16zM-11 663l83 86h15l81 -86h-20l-69 72l-72 -72h-18z" />
    <glyph glyph-name="Hbar" unicode="&#x126;" horiz-adv-x="433" 
d="M76 0v451h-50v15h50v125h16v-125h249v125h16v-125h50v-15h-50v-451h-16v302h-249v-302h-16zM92 318h249v133h-249v-133z" />
    <glyph glyph-name="hbar" unicode="&#x127;" horiz-adv-x="373" 
d="M68 0v630h16v-185q11 23 36.5 40.5t72.5 17.5q42 0 66.5 -11.5t35.5 -31t14 -42.5t3 -46v-372h-16v363q0 30 -5 58.5t-26.5 47t-71.5 18.5q-55 0 -80 -27.5t-29 -70.5v-389h-16zM26 538v15h171v-15h-171z" />
    <glyph glyph-name="Itilde" unicode="&#x128;" horiz-adv-x="168" 
d="M76 0v591h16v-591h-16zM125 630q-17 0 -30 7.5t-24.5 15t-25.5 7.5q-9 0 -17.5 -4.5t-10.5 -21.5h-15q2 17 13 29t30 12q17 0 29 -7.5t23.5 -15t27.5 -7.5q10 0 19 5t11 22h15q-3 -19 -14.5 -30.5t-30.5 -11.5z" />
    <glyph glyph-name="itilde" unicode="&#x129;" horiz-adv-x="152" 
d="M68 0v495h16v-495h-16zM116 550q-17 0 -30 7.5t-24.5 15t-25.5 7.5q-9 0 -17.5 -4.5t-10.5 -21.5h-15q2 17 13 29t30 12q17 0 29 -7.5t23.5 -15t27.5 -7.5q10 0 19 5t11 22h15q-3 -19 -14.5 -30.5t-30.5 -11.5z" />
    <glyph glyph-name="Imacron" unicode="&#x12a;" horiz-adv-x="168" 
d="M76 0v591h16v-591h-16zM2 652v16h166v-16h-166z" />
    <glyph glyph-name="imacron" unicode="&#x12b;" horiz-adv-x="152" 
d="M68 0v495h16v-495h-16zM-4 566v16h160v-16h-160z" />
    <glyph glyph-name="Ibreve" unicode="&#x12c;" horiz-adv-x="168" 
d="M76 0v591h16v-591h-16zM81 624q-43 0 -60 24.5t-17 52.5h16q1 -33 19 -47t43 -14q26 0 49.5 15t23.5 46h16q0 -28 -23 -52.5t-67 -24.5z" />
    <glyph glyph-name="ibreve" unicode="&#x12d;" horiz-adv-x="152" 
d="M68 0v495h16v-495h-16zM74 546q-43 0 -60 24.5t-17 52.5h16q1 -33 19 -47t43 -14q26 0 49.5 15t23.5 46h16q0 -28 -23 -52.5t-67 -24.5z" />
    <glyph glyph-name="Iogonek" unicode="&#x12e;" horiz-adv-x="168" 
d="M76 0v591h16v-591h-16zM81 -129q-27 0 -43.5 14.5t-16.5 39.5q0 26 18 46t36 29h16q-19 -12 -36.5 -33t-17.5 -42q0 -17 12.5 -28t31.5 -11q18 0 34 8l6 -12q-9 -6 -19.5 -8.5t-20.5 -2.5z" />
    <glyph glyph-name="iogonek" unicode="&#x12f;" horiz-adv-x="152" 
d="M68 0v495h16v-495h-16zM76 566q-14 0 -14 14t14 14t14 -14t-14 -14zM74 -129q-27 0 -43.5 14.5t-16.5 39.5q0 26 18 46t36 29h16q-19 -12 -36.5 -33t-17.5 -42q0 -17 12.5 -28t31.5 -11q18 0 34 8l6 -12q-9 -6 -19.5 -8.5t-20.5 -2.5z" />
    <glyph glyph-name="Idotaccent" unicode="&#x130;" horiz-adv-x="168" 
d="M76 0v591h16v-591h-16zM85 640q-14 0 -14 14t14 14t14 -14t-14 -14z" />
    <glyph glyph-name="dotlessi" unicode="&#x131;" horiz-adv-x="152" 
d="M68 0v495h16v-495h-16z" />
    <glyph glyph-name="Jcircumflex" unicode="&#x134;" horiz-adv-x="197" 
d="M0 0v16h23q20 0 35 1.5t25 8.5q11 8 16.5 26t5.5 40v499h16v-474q0 -45 -4 -67t-23 -35q-20 -15 -74 -15h-20zM22 624l83 86h15l81 -86h-20l-69 72l-72 -72h-18z" />
    <glyph glyph-name="jcircumflex" unicode="&#x135;" horiz-adv-x="154" 
d="M13 -116q-19 0 -34.5 1.5t-14.5 1.5v16q11 -1 23.5 -2.5t26.5 -1.5q32 0 44 21t12 48v527h16v-528q0 -40 -18 -61.5t-55 -21.5zM-12 546l83 86h15l81 -86h-20l-69 72l-72 -72h-18z" />
    <glyph glyph-name="uni0136" unicode="&#x136;" horiz-adv-x="336" 
d="M304 0l-184 306l180 285h19l-181 -285l185 -306h-19zM76 0v591h16v-591h-16zM162 -130q5 8 13.5 23.5t8.5 25.5q0 8 -6.5 11t-6.5 15q0 5 4 9.5t11 4.5q10 0 14 -5.5t4 -13.5q0 -16 -10 -36t-21 -34h-11z" />
    <glyph glyph-name="uni0137" unicode="&#x137;" horiz-adv-x="298" 
d="M68 0v630h16v-334h38l137 199h19l-143 -208l149 -287h-17l-146 280h-37v-280h-16zM142 -130q5 8 13.5 23.5t8.5 25.5q0 8 -6.5 11t-6.5 15q0 5 4 9.5t11 4.5q10 0 14 -5.5t4 -13.5q0 -16 -10 -36t-21 -34h-11z" />
    <glyph glyph-name="kgreenlandic" unicode="&#x138;" horiz-adv-x="316" 
d="M68 0v630h16v-387q14 32 36.5 68.5t51 71.5t61 62t65.5 38v-16q-46 -17 -87.5 -62.5t-73.5 -95.5l157 -309h-17l-150 293q-29 -48 -43 -85v-208h-16z" />
    <glyph glyph-name="Lacute" unicode="&#x139;" horiz-adv-x="294" 
d="M76 0v591h16v-575h198v-16h-214zM61 633l83 75h23l-91 -75h-15z" />
    <glyph glyph-name="lacute" unicode="&#x13a;" horiz-adv-x="152" 
d="M68 0v630h16v-630h-16zM56 672l83 75h23l-91 -75h-15z" />
    <glyph glyph-name="uni013B" unicode="&#x13b;" horiz-adv-x="294" 
d="M76 0v591h16v-575h198v-16h-214zM157 -130q5 8 13.5 23.5t8.5 25.5q0 8 -6.5 11t-6.5 15q0 5 4 9.5t11 4.5q10 0 14 -5.5t4 -13.5q0 -16 -10 -36t-21 -34h-11z" />
    <glyph glyph-name="uni013C" unicode="&#x13c;" horiz-adv-x="152" 
d="M68 0v630h16v-630h-16zM53 -130q5 8 13.5 23.5t8.5 25.5q0 8 -6.5 11t-6.5 15q0 5 4 9.5t11 4.5q10 0 14 -5.5t4 -13.5q0 -16 -10 -36t-21 -34h-11z" />
    <glyph glyph-name="Lcaron" unicode="&#x13d;" horiz-adv-x="294" 
d="M76 0v591h16v-575h198v-16h-214zM219 494l14 111h15l-19 -111h-10z" />
    <glyph glyph-name="lcaron" unicode="&#x13e;" horiz-adv-x="152" 
d="M68 0v630h16v-630h-16zM124 515l14 111h15l-19 -111h-10z" />
    <glyph glyph-name="Ldot" unicode="&#x13f;" horiz-adv-x="294" 
d="M76 0v591h16v-575h198v-16h-214zM231 288q-16 0 -16 16t16 16t16 -16t-16 -16z" />
    <glyph glyph-name="ldot" unicode="&#x140;" horiz-adv-x="152" 
d="M68 0v630h16v-630h-16zM152 288q-16 0 -16 16t16 16t16 -16t-16 -16z" />
    <glyph glyph-name="Lslash" unicode="&#x141;" horiz-adv-x="294" 
d="M76 0v325l-64 -30v18l64 29v249h16v-241l83 38v-17l-83 -39v-316h198v-16h-214z" />
    <glyph glyph-name="lslash" unicode="&#x142;" horiz-adv-x="152" 
d="M68 0v322l-55 -47v20l55 47v288h16v-275l55 47v-20l-55 -47v-335h-16z" />
    <glyph glyph-name="Nacute" unicode="&#x143;" horiz-adv-x="434" 
d="M76 0v591h22l244 -562v562h16v-591h-21l-245 565v-565h-16zM206 633l83 75h23l-91 -75h-15z" />
    <glyph glyph-name="nacute" unicode="&#x144;" horiz-adv-x="373" 
d="M68 0v495h14l2 -52q11 23 36.5 41.5t72.5 18.5q42 0 66.5 -11.5t35.5 -31t14 -42.5t3 -46v-372h-16v363q0 30 -5 58.5t-26.5 47t-71.5 18.5q-55 0 -82 -30t-27 -73v-384h-16zM156 545l66 86h20l-71 -86h-15z" />
    <glyph glyph-name="uni0145" unicode="&#x145;" horiz-adv-x="434" 
d="M76 0v591h22l244 -562v562h16v-591h-21l-245 565v-565h-16zM197 -130q5 8 13.5 23.5t8.5 25.5q0 8 -6.5 11t-6.5 15q0 5 4 9.5t11 4.5q10 0 14 -5.5t4 -13.5q0 -16 -10 -36t-21 -34h-11z" />
    <glyph glyph-name="uni0146" unicode="&#x146;" horiz-adv-x="373" 
d="M68 0v495h14l2 -52q11 23 36.5 41.5t72.5 18.5q42 0 66.5 -11.5t35.5 -31t14 -42.5t3 -46v-372h-16v363q0 30 -5 58.5t-26.5 47t-71.5 18.5q-55 0 -82 -30t-27 -73v-384h-16zM166 -130q5 8 13.5 23.5t8.5 25.5q0 8 -6.5 11t-6.5 15q0 5 4 9.5t11 4.5q10 0 14 -5.5
t4 -13.5q0 -16 -10 -36t-21 -34h-11z" />
    <glyph glyph-name="Ncaron" unicode="&#x147;" horiz-adv-x="434" 
d="M76 0v591h22l244 -562v562h16v-591h-21l-245 565v-565h-16zM219 611l-83 86h18l72 -72l69 72h20l-81 -86h-15z" />
    <glyph glyph-name="ncaron" unicode="&#x148;" horiz-adv-x="373" 
d="M68 0v495h14l2 -52q11 23 36.5 41.5t72.5 18.5q42 0 66.5 -11.5t35.5 -31t14 -42.5t3 -46v-372h-16v363q0 30 -5 58.5t-26.5 47t-71.5 18.5q-55 0 -82 -30t-27 -73v-384h-16zM193 539l-83 86h18l72 -72l69 72h20l-81 -86h-15z" />
    <glyph glyph-name="Eng" unicode="&#x14a;" horiz-adv-x="433" 
d="M284 -116q-19 0 -34.5 1.5t-14.5 1.5v16q11 -1 23.5 -2.5t26.5 -1.5q32 0 44 21t12 48v23l-249 574v-565h-16v591h22l244 -562v562h15v-624q0 -40 -18 -61.5t-55 -21.5z" />
    <glyph glyph-name="eng" unicode="&#x14b;" horiz-adv-x="373" 
d="M239 -116q-19 0 -34.5 1.5t-14.5 1.5v16q11 -1 23.5 -2.5t26.5 -1.5q32 0 44 21t12 48v395q0 30 -5 58.5t-26.5 47t-71.5 18.5q-55 0 -82 -30t-27 -73v-384h-16v495h14l2 -52q11 23 36.5 41.5t72.5 18.5q42 0 66.5 -11.5t35.5 -31t14 -42.5t3 -46v-405q0 -40 -18 -61.5
t-55 -21.5z" />
    <glyph glyph-name="Omacron" unicode="&#x14c;" horiz-adv-x="415" 
d="M206 -12q-73 0 -106 28.5t-33 101.5v351q0 72 33.5 101t107.5 29q77 0 108.5 -30.5t31.5 -99.5v-351q0 -72 -32 -101t-110 -29zM207 4q70 0 97.5 27t27.5 90v345q0 62 -27.5 89.5t-97.5 27.5q-69 0 -96.5 -27t-27.5 -90v-345q0 -64 28.5 -90.5t95.5 -26.5zM123 652v16
h166v-16h-166z" />
    <glyph glyph-name="omacron" unicode="&#x14d;" horiz-adv-x="362" 
d="M179 -7q-43 0 -67.5 11.5t-35.5 30.5t-14 42.5t-3 46.5v248q0 23 3 46t14.5 42.5t36.5 31t70 11.5q55 0 80 -20t32.5 -50t7.5 -61v-248q0 -31 -7.5 -61t-33.5 -50t-83 -20zM179 9q52 0 74.5 18.5t28 46t5.5 53.5v242q0 27 -5.5 54t-27 45.5t-71.5 18.5q-40 0 -62.5 -11
t-32 -28.5t-11.5 -38t-2 -40.5v-242q0 -20 2 -40.5t11 -38t30.5 -28.5t60.5 -11zM100 566v16h160v-16h-160z" />
    <glyph glyph-name="Obreve" unicode="&#x14e;" horiz-adv-x="415" 
d="M206 -12q-73 0 -106 28.5t-33 101.5v351q0 72 33.5 101t107.5 29q77 0 108.5 -30.5t31.5 -99.5v-351q0 -72 -32 -101t-110 -29zM207 4q70 0 97.5 27t27.5 90v345q0 62 -27.5 89.5t-97.5 27.5q-69 0 -96.5 -27t-27.5 -90v-345q0 -64 28.5 -90.5t95.5 -26.5zM202 624
q-43 0 -60 24.5t-17 52.5h16q1 -33 19 -47t43 -14q26 0 49.5 15t23.5 46h16q0 -28 -23 -52.5t-67 -24.5z" />
    <glyph glyph-name="obreve" unicode="&#x14f;" horiz-adv-x="362" 
d="M179 -7q-43 0 -67.5 11.5t-35.5 30.5t-14 42.5t-3 46.5v248q0 23 3 46t14.5 42.5t36.5 31t70 11.5q55 0 80 -20t32.5 -50t7.5 -61v-248q0 -31 -7.5 -61t-33.5 -50t-83 -20zM179 9q52 0 74.5 18.5t28 46t5.5 53.5v242q0 27 -5.5 54t-27 45.5t-71.5 18.5q-40 0 -62.5 -11
t-32 -28.5t-11.5 -38t-2 -40.5v-242q0 -20 2 -40.5t11 -38t30.5 -28.5t60.5 -11zM178 546q-43 0 -60 24.5t-17 52.5h16q1 -33 19 -47t43 -14q26 0 49.5 15t23.5 46h16q0 -28 -23 -52.5t-67 -24.5z" />
    <glyph glyph-name="Ohungarumlaut" unicode="&#x150;" horiz-adv-x="415" 
d="M206 -12q-73 0 -106 28.5t-33 101.5v351q0 72 33.5 101t107.5 29q77 0 108.5 -30.5t31.5 -99.5v-351q0 -72 -32 -101t-110 -29zM207 4q70 0 97.5 27t27.5 90v345q0 62 -27.5 89.5t-97.5 27.5q-69 0 -96.5 -27t-27.5 -90v-345q0 -64 28.5 -90.5t95.5 -26.5zM166 633l81 75
h25l-93 -75h-13zM213 632l81 75h25l-93 -75h-13z" />
    <glyph glyph-name="ohungarumlaut" unicode="&#x151;" horiz-adv-x="362" 
d="M179 -7q-43 0 -67.5 11.5t-35.5 30.5t-14 42.5t-3 46.5v248q0 23 3 46t14.5 42.5t36.5 31t70 11.5q55 0 80 -20t32.5 -50t7.5 -61v-248q0 -31 -7.5 -61t-33.5 -50t-83 -20zM179 9q52 0 74.5 18.5t28 46t5.5 53.5v242q0 27 -5.5 54t-27 45.5t-71.5 18.5q-40 0 -62.5 -11
t-32 -28.5t-11.5 -38t-2 -40.5v-242q0 -20 2 -40.5t11 -38t30.5 -28.5t60.5 -11zM147 545l66 86h20l-71 -86h-15zM192 544l66 86h20l-71 -86h-15z" />
    <glyph glyph-name="OE" unicode="&#x152;" horiz-adv-x="602" 
d="M206 -12q-38 0 -69.5 8.5t-50.5 36.5t-19 85v351q0 58 19 85.5t51.5 36t70.5 8.5q41 0 74 -9.5t50 -41.5v43h245v-16h-229v-256h178v-16h-178v-287h229v-16h-245v38q-17 -32 -50.5 -41t-75.5 -9zM207 4q35 0 63.5 7.5t45 32.5t16.5 77v345q0 52 -17 77t-45.5 32.5
t-62.5 7.5t-62.5 -7.5t-45 -32.5t-16.5 -77v-345q0 -52 16.5 -77t45 -32.5t62.5 -7.5z" />
    <glyph glyph-name="oe" unicode="&#x153;" horiz-adv-x="583" 
d="M179 -7q-43 0 -67.5 11.5t-35.5 30.5t-14 42.5t-3 46.5v248q0 23 3 46t14.5 42.5t36.5 31t70 11.5q53 0 78 -19t34 -47q9 28 34 47t78 19q56 0 81 -19t31.5 -49t6.5 -63v-109h-223v-136q0 -29 5.5 -56.5t27.5 -44.5t71 -17t70.5 17t27 44t5.5 57v40h16v-43q0 -31 -6 -61
t-31 -50t-82 -20q-55 0 -80 18.5t-33 45.5q-10 -27 -35.5 -45.5t-79.5 -18.5zM179 9q52 0 74.5 18.5t28 46t5.5 53.5v242q0 27 -5.5 54t-27 45.5t-71.5 18.5q-40 0 -62.5 -11t-32 -28.5t-11.5 -38t-2 -40.5v-242q0 -20 2 -40.5t11 -38t30.5 -28.5t60.5 -11zM303 279h207v84
q0 35 -5 63t-26.5 44.5t-71.5 16.5q-44 0 -66.5 -15.5t-30 -43t-7.5 -65.5v-84z" />
    <glyph glyph-name="Racute" unicode="&#x154;" horiz-adv-x="410" 
d="M76 0v591h166q43 0 74.5 -21.5t31.5 -75.5v-83q0 -41 -15 -66.5t-37.5 -38t-47.5 -15.5q16 -2 32 -22.5t23 -44.5l69 -224h-17l-61 200q-12 39 -33 63t-58 24h-111v-287h-16zM92 303h121q51 0 85 24t34 82v82q0 43 -26 63.5t-60 20.5h-154v-272zM183 633l83 75h23
l-91 -75h-15z" />
    <glyph glyph-name="racute" unicode="&#x155;" horiz-adv-x="229" 
d="M68 0v495h14l2 -50q11 23 36.5 40.5t72.5 17.5q21 0 37 -3v-16q-16 3 -37 3q-55 0 -82 -29t-27 -69v-389h-16zM104 545l66 86h20l-71 -86h-15z" />
    <glyph glyph-name="uni0156" unicode="&#x156;" horiz-adv-x="410" 
d="M76 0v591h166q43 0 74.5 -21.5t31.5 -75.5v-83q0 -41 -15 -66.5t-37.5 -38t-47.5 -15.5q16 -2 32 -22.5t23 -44.5l69 -224h-17l-61 200q-12 39 -33 63t-58 24h-111v-287h-16zM92 303h121q51 0 85 24t34 82v82q0 43 -26 63.5t-60 20.5h-154v-272zM185 -130q5 8 13.5 23.5
t8.5 25.5q0 8 -6.5 11t-6.5 15q0 5 4 9.5t11 4.5q10 0 14 -5.5t4 -13.5q0 -16 -10 -36t-21 -34h-11z" />
    <glyph glyph-name="uni0157" unicode="&#x157;" horiz-adv-x="229" 
d="M68 0v495h14l2 -50q11 23 36.5 40.5t72.5 17.5q21 0 37 -3v-16q-16 3 -37 3q-55 0 -82 -29t-27 -69v-389h-16zM51 -130q5 8 13.5 23.5t8.5 25.5q0 8 -6.5 11t-6.5 15q0 5 4 9.5t11 4.5q10 0 14 -5.5t4 -13.5q0 -16 -10 -36t-21 -34h-11z" />
    <glyph glyph-name="Rcaron" unicode="&#x158;" horiz-adv-x="410" 
d="M76 0v591h166q43 0 74.5 -21.5t31.5 -75.5v-83q0 -41 -15 -66.5t-37.5 -38t-47.5 -15.5q16 -2 32 -22.5t23 -44.5l69 -224h-17l-61 200q-12 39 -33 63t-58 24h-111v-287h-16zM92 303h121q51 0 85 24t34 82v82q0 43 -26 63.5t-60 20.5h-154v-272zM196 611l-83 86h18
l72 -72l69 72h20l-81 -86h-15z" />
    <glyph glyph-name="rcaron" unicode="&#x159;" horiz-adv-x="229" 
d="M68 0v495h14l2 -50q11 23 36.5 40.5t72.5 17.5q21 0 37 -3v-16q-16 3 -37 3q-55 0 -82 -29t-27 -69v-389h-16zM141 539l-83 86h18l72 -72l69 72h20l-81 -86h-15z" />
    <glyph glyph-name="Sacute" unicode="&#x15a;" horiz-adv-x="346" 
d="M167 -9q-38 0 -67 15.5t-44.5 53.5t-15.5 103v12h16v-12q0 -60 14.5 -94t39.5 -48t57 -14q53 0 88 30.5t35 108.5q0 52 -17.5 79.5t-47 42.5t-64.5 28q-36 14 -62.5 31.5t-41 45.5t-14.5 75q0 67 29.5 107t98.5 40q60 0 95 -33t35 -93v-40h-16v36q0 54 -30 84t-84 30
q-62 0 -87 -37.5t-25 -93.5q0 -46 15.5 -72t41 -40t54.5 -26q48 -19 78 -37t44 -46.5t14 -80.5q0 -57 -18.5 -91t-50 -49t-70.5 -15zM150 633l83 75h23l-91 -75h-15z" />
    <glyph glyph-name="sacute" unicode="&#x15b;" horiz-adv-x="322" 
d="M160 -6q-52 0 -85 25t-33 80v67h16v-67q0 -44 28.5 -66.5t73.5 -22.5q47 0 75.5 20t28.5 66v38q0 38 -16 59.5t-40.5 35t-52.5 25.5q-31 14 -57 28t-41.5 34.5t-15.5 53.5v34q0 42 32 70t89 28q52 0 85.5 -23.5t33.5 -77.5v-65h-16v59q0 48 -26.5 69.5t-76.5 21.5
t-77.5 -25t-27.5 -66v-18q0 -33 17 -53t41 -32.5t45 -22.5q30 -13 57.5 -28.5t45 -40t17.5 -66.5v-38q0 -39 -17 -61t-44 -31.5t-59 -9.5zM131 545l66 86h20l-71 -86h-15z" />
    <glyph glyph-name="Scircumflex" unicode="&#x15c;" horiz-adv-x="346" 
d="M167 -9q-38 0 -67 15.5t-44.5 53.5t-15.5 103v12h16v-12q0 -60 14.5 -94t39.5 -48t57 -14q53 0 88 30.5t35 108.5q0 52 -17.5 79.5t-47 42.5t-64.5 28q-36 14 -62.5 31.5t-41 45.5t-14.5 75q0 67 29.5 107t98.5 40q60 0 95 -33t35 -93v-40h-16v36q0 54 -30 84t-84 30
q-62 0 -87 -37.5t-25 -93.5q0 -46 15.5 -72t41 -40t54.5 -26q48 -19 78 -37t44 -46.5t14 -80.5q0 -57 -18.5 -91t-50 -49t-70.5 -15zM82 624l83 86h15l81 -86h-20l-69 72l-72 -72h-18z" />
    <glyph glyph-name="scircumflex" unicode="&#x15d;" horiz-adv-x="322" 
d="M160 -6q-52 0 -85 25t-33 80v67h16v-67q0 -44 28.5 -66.5t73.5 -22.5q47 0 75.5 20t28.5 66v38q0 38 -16 59.5t-40.5 35t-52.5 25.5q-31 14 -57 28t-41.5 34.5t-15.5 53.5v34q0 42 32 70t89 28q52 0 85.5 -23.5t33.5 -77.5v-65h-16v59q0 48 -26.5 69.5t-76.5 21.5
t-77.5 -25t-27.5 -66v-18q0 -33 17 -53t41 -32.5t45 -22.5q30 -13 57.5 -28.5t45 -40t17.5 -66.5v-38q0 -39 -17 -61t-44 -31.5t-59 -9.5zM75 546l83 86h15l81 -86h-20l-69 72l-72 -72h-18z" />
    <glyph glyph-name="Scedilla" unicode="&#x15e;" horiz-adv-x="346" 
d="M167 -9q-38 0 -67 15.5t-44.5 53.5t-15.5 103v12h16v-12q0 -60 14.5 -94t39.5 -48t57 -14q53 0 88 30.5t35 108.5q0 52 -17.5 79.5t-47 42.5t-64.5 28q-36 14 -62.5 31.5t-41 45.5t-14.5 75q0 67 29.5 107t98.5 40q60 0 95 -33t35 -93v-40h-16v36q0 54 -30 84t-84 30
q-62 0 -87 -37.5t-25 -93.5q0 -46 15.5 -72t41 -40t54.5 -26q48 -19 78 -37t44 -46.5t14 -80.5q0 -57 -18.5 -91t-50 -49t-70.5 -15zM171 -134q-15 0 -25 4t-18 8l8 14q13 -11 35 -11q43 0 43 33q0 29 -34 29q-26 0 -39 -10l-8 10l34 57h13l-22 -43q2 1 10 1.5t13 0.5
q25 0 37 -13t12 -30q0 -18 -15 -34t-44 -16z" />
    <glyph glyph-name="scedilla" unicode="&#x15f;" horiz-adv-x="322" 
d="M160 -6q-52 0 -85 25t-33 80v67h16v-67q0 -44 28.5 -66.5t73.5 -22.5q47 0 75.5 20t28.5 66v38q0 38 -16 59.5t-40.5 35t-52.5 25.5q-31 14 -57 28t-41.5 34.5t-15.5 53.5v34q0 42 32 70t89 28q52 0 85.5 -23.5t33.5 -77.5v-65h-16v59q0 48 -26.5 69.5t-76.5 21.5
t-77.5 -25t-27.5 -66v-18q0 -33 17 -53t41 -32.5t45 -22.5q30 -13 57.5 -28.5t45 -40t17.5 -66.5v-38q0 -39 -17 -61t-44 -31.5t-59 -9.5zM162 -134q-15 0 -25 4t-18 8l8 14q13 -11 35 -11q43 0 43 33q0 29 -34 29q-26 0 -39 -10l-8 10l34 57h13l-22 -43q2 1 10 1.5t13 0.5
q25 0 37 -13t12 -30q0 -18 -15 -34t-44 -16z" />
    <glyph glyph-name="Scaron" unicode="&#x160;" horiz-adv-x="346" 
d="M167 -9q-38 0 -67 15.5t-44.5 53.5t-15.5 103v12h16v-12q0 -60 14.5 -94t39.5 -48t57 -14q53 0 88 30.5t35 108.5q0 52 -17.5 79.5t-47 42.5t-64.5 28q-36 14 -62.5 31.5t-41 45.5t-14.5 75q0 67 29.5 107t98.5 40q60 0 95 -33t35 -93v-40h-16v36q0 54 -30 84t-84 30
q-62 0 -87 -37.5t-25 -93.5q0 -46 15.5 -72t41 -40t54.5 -26q48 -19 78 -37t44 -46.5t14 -80.5q0 -57 -18.5 -91t-50 -49t-70.5 -15zM163 611l-83 86h18l72 -72l69 72h20l-81 -86h-15z" />
    <glyph glyph-name="scaron" unicode="&#x161;" horiz-adv-x="322" 
d="M160 -6q-52 0 -85 25t-33 80v67h16v-67q0 -44 28.5 -66.5t73.5 -22.5q47 0 75.5 20t28.5 66v38q0 38 -16 59.5t-40.5 35t-52.5 25.5q-31 14 -57 28t-41.5 34.5t-15.5 53.5v34q0 42 32 70t89 28q52 0 85.5 -23.5t33.5 -77.5v-65h-16v59q0 48 -26.5 69.5t-76.5 21.5
t-77.5 -25t-27.5 -66v-18q0 -33 17 -53t41 -32.5t45 -22.5q30 -13 57.5 -28.5t45 -40t17.5 -66.5v-38q0 -39 -17 -61t-44 -31.5t-59 -9.5zM168 539l-83 86h18l72 -72l69 72h20l-81 -86h-15z" />
    <glyph glyph-name="uni0162" unicode="&#x162;" horiz-adv-x="261" 
d="M122 0v575h-111v16h239v-16h-112v-575h-16zM129 -134q-15 0 -25 4t-18 8l8 14q13 -11 35 -11q43 0 43 33q0 29 -34 29q-26 0 -39 -10l-8 10l34 57h13l-22 -43q2 1 10 1.5t13 0.5q25 0 37 -13t12 -30q0 -18 -15 -34t-44 -16z" />
    <glyph glyph-name="uni0163" unicode="&#x163;" horiz-adv-x="212" 
d="M141 0q-39 0 -56 23.5t-17 69.5v386h-38v14l38 2l3 97h13v-97h116v-16h-116v-391q0 -28 11 -50.5t45 -22.5q14 0 28 1.5t32 3.5v-16q-7 -1 -23.5 -2.5t-35.5 -1.5zM138 -134q-15 0 -25 4t-18 8l8 14q13 -11 35 -11q43 0 43 33q0 29 -34 29q-26 0 -39 -10l-8 10l34 57h13
l-22 -43q2 1 10 1.5t13 0.5q25 0 37 -13t12 -30q0 -18 -15 -34t-44 -16z" />
    <glyph glyph-name="Tcaron" unicode="&#x164;" horiz-adv-x="261" 
d="M122 0v575h-111v16h239v-16h-112v-575h-16zM121 611l-83 86h18l72 -72l69 72h20l-81 -86h-15z" />
    <glyph glyph-name="tcaron" unicode="&#x165;" horiz-adv-x="212" 
d="M141 0q-39 0 -56 23.5t-17 69.5v386h-38v14l38 2l3 97h13v-97h116v-16h-116v-391q0 -28 11 -50.5t45 -22.5q14 0 28 1.5t32 3.5v-16q-7 -1 -23.5 -2.5t-35.5 -1.5zM146 527l14 111h15l-19 -111h-10z" />
    <glyph glyph-name="Tbar" unicode="&#x166;" horiz-adv-x="261" 
d="M122 0v575h-111v16h239v-16h-112v-575h-16zM43 388v15h171v-15h-171z" />
    <glyph glyph-name="tbar" unicode="&#x167;" horiz-adv-x="212" 
d="M141 0q-39 0 -56 23.5t-17 69.5v386h-38v14l38 2l3 97h13v-97h116v-16h-116v-391q0 -28 11 -50.5t45 -22.5q14 0 28 1.5t32 3.5v-16q-7 -1 -23.5 -2.5t-35.5 -1.5zM25 371v15h171v-15h-171z" />
    <glyph glyph-name="Utilde" unicode="&#x168;" horiz-adv-x="429" 
d="M209 -9q-37 0 -68 9t-49 35t-18 78v478h16v-475q0 -46 17 -69.5t44.5 -31.5t57.5 -8q31 0 60.5 8t49.5 31.5t20 69.5v475h16v-478q0 -52 -20.5 -78t-54 -35t-71.5 -9zM255 630q-17 0 -30 7.5t-24.5 15t-25.5 7.5q-9 0 -17.5 -4.5t-10.5 -21.5h-15q2 17 13 29t30 12
q17 0 29 -7.5t23.5 -15t27.5 -7.5q10 0 19 5t11 22h15q-3 -19 -14.5 -30.5t-30.5 -11.5z" />
    <glyph glyph-name="utilde" unicode="&#x169;" horiz-adv-x="380" 
d="M187 -8q-42 0 -66.5 11.5t-35.5 31t-14 42.5t-3 46v372h16v-363q0 -29 5 -58t26.5 -47.5t71.5 -18.5q55 0 80 27.5t29 70.5v389h16v-495h-14l-2 50q-11 -23 -36.5 -40.5t-72.5 -17.5zM230 550q-17 0 -30 7.5t-24.5 15t-25.5 7.5q-9 0 -17.5 -4.5t-10.5 -21.5h-15
q2 17 13 29t30 12q17 0 29 -7.5t23.5 -15t27.5 -7.5q10 0 19 5t11 22h15q-3 -19 -14.5 -30.5t-30.5 -11.5z" />
    <glyph glyph-name="Umacron" unicode="&#x16a;" horiz-adv-x="429" 
d="M209 -9q-37 0 -68 9t-49 35t-18 78v478h16v-475q0 -46 17 -69.5t44.5 -31.5t57.5 -8q31 0 60.5 8t49.5 31.5t20 69.5v475h16v-478q0 -52 -20.5 -78t-54 -35t-71.5 -9zM132 652v16h166v-16h-166z" />
    <glyph glyph-name="umacron" unicode="&#x16b;" horiz-adv-x="380" 
d="M187 -8q-42 0 -66.5 11.5t-35.5 31t-14 42.5t-3 46v372h16v-363q0 -29 5 -58t26.5 -47.5t71.5 -18.5q55 0 80 27.5t29 70.5v389h16v-495h-14l-2 50q-11 -23 -36.5 -40.5t-72.5 -17.5zM110 566v16h160v-16h-160z" />
    <glyph glyph-name="Ubreve" unicode="&#x16c;" horiz-adv-x="429" 
d="M209 -9q-37 0 -68 9t-49 35t-18 78v478h16v-475q0 -46 17 -69.5t44.5 -31.5t57.5 -8q31 0 60.5 8t49.5 31.5t20 69.5v475h16v-478q0 -52 -20.5 -78t-54 -35t-71.5 -9zM211 624q-43 0 -60 24.5t-17 52.5h16q1 -33 19 -47t43 -14q26 0 49.5 15t23.5 46h16q0 -28 -23 -52.5
t-67 -24.5z" />
    <glyph glyph-name="ubreve" unicode="&#x16d;" horiz-adv-x="380" 
d="M187 -8q-42 0 -66.5 11.5t-35.5 31t-14 42.5t-3 46v372h16v-363q0 -29 5 -58t26.5 -47.5t71.5 -18.5q55 0 80 27.5t29 70.5v389h16v-495h-14l-2 50q-11 -23 -36.5 -40.5t-72.5 -17.5zM188 546q-43 0 -60 24.5t-17 52.5h16q1 -33 19 -47t43 -14q26 0 49.5 15t23.5 46h16
q0 -28 -23 -52.5t-67 -24.5z" />
    <glyph glyph-name="Uring" unicode="&#x16e;" horiz-adv-x="429" 
d="M209 -9q-37 0 -68 9t-49 35t-18 78v478h16v-475q0 -46 17 -69.5t44.5 -31.5t57.5 -8q31 0 60.5 8t49.5 31.5t20 69.5v475h16v-478q0 -52 -20.5 -78t-54 -35t-71.5 -9zM216 619q-23 0 -39 15.5t-16 37.5t16 37.5t38 15.5q23 0 38.5 -15.5t15.5 -37.5t-15 -37.5t-38 -15.5z
M215 635q16 0 27 10.5t11 26.5q0 17 -11 27t-27 10t-27 -10t-11 -27q0 -16 11 -26.5t27 -10.5z" />
    <glyph glyph-name="uring" unicode="&#x16f;" horiz-adv-x="380" 
d="M187 -8q-42 0 -66.5 11.5t-35.5 31t-14 42.5t-3 46v372h16v-363q0 -29 5 -58t26.5 -47.5t71.5 -18.5q55 0 80 27.5t29 70.5v389h16v-495h-14l-2 50q-11 -23 -36.5 -40.5t-72.5 -17.5zM191 542q-23 0 -39 15.5t-16 37.5t16 37.5t38 15.5q23 0 38.5 -15.5t15.5 -37.5
t-15 -37.5t-38 -15.5zM190 558q16 0 27 10.5t11 26.5q0 17 -11 27t-27 10t-27 -10t-11 -27q0 -16 11 -26.5t27 -10.5z" />
    <glyph glyph-name="Uhungarumlaut" unicode="&#x170;" horiz-adv-x="429" 
d="M209 -9q-37 0 -68 9t-49 35t-18 78v478h16v-475q0 -46 17 -69.5t44.5 -31.5t57.5 -8q31 0 60.5 8t49.5 31.5t20 69.5v475h16v-478q0 -52 -20.5 -78t-54 -35t-71.5 -9zM175 633l81 75h25l-93 -75h-13zM222 632l81 75h25l-93 -75h-13z" />
    <glyph glyph-name="uhungarumlaut" unicode="&#x171;" horiz-adv-x="380" 
d="M187 -8q-42 0 -66.5 11.5t-35.5 31t-14 42.5t-3 46v372h16v-363q0 -29 5 -58t26.5 -47.5t71.5 -18.5q55 0 80 27.5t29 70.5v389h16v-495h-14l-2 50q-11 -23 -36.5 -40.5t-72.5 -17.5zM157 545l66 86h20l-71 -86h-15zM202 544l66 86h20l-71 -86h-15z" />
    <glyph glyph-name="Uogonek" unicode="&#x172;" horiz-adv-x="429" 
d="M209 -9q-37 0 -68 9t-49 35t-18 78v478h16v-475q0 -46 17 -69.5t44.5 -31.5t57.5 -8q31 0 60.5 8t49.5 31.5t20 69.5v475h16v-478q0 -52 -20.5 -78t-54 -35t-71.5 -9zM222 -129q-27 0 -43.5 14.5t-16.5 39.5q0 26 18 46t36 29h16q-19 -12 -36.5 -33t-17.5 -42
q0 -17 12.5 -28t31.5 -11q18 0 34 8l6 -12q-9 -6 -19.5 -8.5t-20.5 -2.5z" />
    <glyph glyph-name="uogonek" unicode="&#x173;" horiz-adv-x="380" 
d="M187 -8q-42 0 -66.5 11.5t-35.5 31t-14 42.5t-3 46v372h16v-363q0 -29 5 -58t26.5 -47.5t71.5 -18.5q55 0 80 27.5t29 70.5v389h16v-495h-14l-2 50q-11 -23 -36.5 -40.5t-72.5 -17.5zM302 -129q-27 0 -43.5 14.5t-16.5 39.5q0 26 18 46t36 29h16q-19 -12 -36.5 -33
t-17.5 -42q0 -17 12.5 -28t31.5 -11q18 0 34 8l6 -12q-9 -6 -19.5 -8.5t-20.5 -2.5z" />
    <glyph glyph-name="Wcircumflex" unicode="&#x174;" horiz-adv-x="513" 
d="M123 0l-100 591h16l93 -546l116 546h16l114 -556l96 556h16l-102 -591h-19l-113 553l-117 -553h-16zM170 624l83 86h15l81 -86h-20l-69 72l-72 -72h-18z" />
    <glyph glyph-name="wcircumflex" unicode="&#x175;" horiz-adv-x="540" 
d="M139 0l-120 495h16l113 -468l114 468h16l113 -468l114 468h16l-121 -495h-18l-112 462l-113 -462h-18zM180 546l83 86h15l81 -86h-20l-69 72l-72 -72h-18z" />
    <glyph glyph-name="Ycircumflex" unicode="&#x176;" horiz-adv-x="290" 
d="M130 0v253l-109 338h17l101 -316l113 316h17l-123 -338v-253h-16zM51 624l83 86h15l81 -86h-20l-69 72l-72 -72h-18z" />
    <glyph glyph-name="ycircumflex" unicode="&#x177;" horiz-adv-x="298" 
d="M53 -115q-15 0 -31 2.5t-18 3.5v14q2 -1 17 -3.5t32 -2.5q16 0 33.5 8t33 29t21.5 60l-121 499h16l113 -468l114 468h16l-121 -496q-13 -52 -36.5 -83t-68.5 -31zM58 546l83 86h15l81 -86h-20l-69 72l-72 -72h-18z" />
    <glyph glyph-name="Ydieresis" unicode="&#x178;" horiz-adv-x="290" 
d="M130 0v253l-109 338h17l101 -316l113 316h17l-123 -338v-253h-16zM179 643q-14 0 -14 14t14 14t14 -14t-14 -14zM102 643q-14 0 -14 14t14 14t14 -14t-14 -14z" />
    <glyph glyph-name="Zacute" unicode="&#x179;" horiz-adv-x="270" 
d="M23 0v10l201 567l-186 -2v16h202v-14l-198 -561h204v-16h-223zM117 633l83 75h23l-91 -75h-15z" />
    <glyph glyph-name="zacute" unicode="&#x17a;" horiz-adv-x="247" 
d="M20 0v7l184 472h-172v16h193v-12l-184 -467h184v-16h-205zM90 545l66 86h20l-71 -86h-15z" />
    <glyph glyph-name="Zdotaccent" unicode="&#x17b;" horiz-adv-x="270" 
d="M23 0v10l201 567l-186 -2v16h202v-14l-198 -561h204v-16h-223zM138 640q-14 0 -14 14t14 14t14 -14t-14 -14z" />
    <glyph glyph-name="zdotaccent" unicode="&#x17c;" horiz-adv-x="247" 
d="M20 0v7l184 472h-172v16h193v-12l-184 -467h184v-16h-205zM124 566q-14 0 -14 14t14 14t14 -14t-14 -14z" />
    <glyph glyph-name="Zcaron" unicode="&#x17d;" horiz-adv-x="270" 
d="M23 0v10l201 567l-186 -2v16h202v-14l-198 -561h204v-16h-223zM130 611l-83 86h18l72 -72l69 72h20l-81 -86h-15z" />
    <glyph glyph-name="zcaron" unicode="&#x17e;" horiz-adv-x="247" 
d="M20 0v7l184 472h-172v16h193v-12l-184 -467h184v-16h-205zM127 539l-83 86h18l72 -72l69 72h20l-81 -86h-15z" />
    <glyph glyph-name="longs" unicode="&#x17f;" horiz-adv-x="188" 
d="M16 -147q-20 0 -35 1.5t-26 2.5v15q8 -1 26.5 -2.5t33.5 -1.5q28 0 42 21.5t14 47.5l-1 488h-31v16h31v106q0 42 17 65.5t56 23.5q23 0 38.5 -1.5t20.5 -2.5v-15q-10 2 -29.5 3t-24.5 1q-26 0 -39.5 -10.5t-17.5 -26.5t-4 -32v-610q0 -42 -17.5 -65.5t-53.5 -23.5z" />
    <glyph glyph-name="uni018F" unicode="&#x18f;" horiz-adv-x="404" 
d="M200 -8q-38 0 -69 8.5t-49 36.5t-18 85v125h257v221q0 52 -16.5 77.5t-43.5 33.5t-60 8t-60.5 -8t-44 -33.5t-16.5 -77.5v-66h-16v71q0 58 19.5 85.5t51 36t67.5 8.5q38 0 68.5 -9t48.5 -36.5t18 -84.5v-351q0 -58 -18 -85.5t-49 -36t-70 -8.5zM80 124q0 -50 15.5 -75
t43 -33t62.5 -8q36 0 63 8.5t42 35t15 78.5v101h-241v-107z" />
    <glyph glyph-name="florin" unicode="&#x192;" horiz-adv-x="297" 
d="M-11 -149q-18 0 -34 1.5t-24 2.5l3 15l17 -2q8 -1 18 -1.5t23 -0.5q35 0 48 24.5t17 50.5l64 468h-43l3 16h42l16 117q7 46 27.5 70t59.5 24q19 0 34 -1t25 -3l-2 -14l-17 2q-8 1 -18.5 1.5t-23.5 0.5q-31 0 -48 -24t-24 -76l-13 -97h108l-3 -16h-107l-64 -469
q-6 -42 -25.5 -65.5t-58.5 -23.5z" />
    <glyph glyph-name="Ohorn" unicode="&#x1a0;" horiz-adv-x="415" 
d="M206 -12q-73 0 -106 28.5t-33 101.5v351q0 72 33.5 101t107.5 29q77 0 108.5 -30.5t31.5 -99.5v-351q0 -72 -32 -101t-110 -29zM207 4q70 0 97.5 27t27.5 90v345q0 62 -27.5 89.5t-97.5 27.5q-69 0 -96.5 -27t-27.5 -90v-345q0 -64 28.5 -90.5t95.5 -26.5zM263 580l-2 11
q30 0 47 12.5t17 41.5v10h16v-9q0 -34 -21.5 -50t-56.5 -16z" />
    <glyph glyph-name="ohorn" unicode="&#x1a1;" horiz-adv-x="362" 
d="M179 -7q-43 0 -67.5 11.5t-35.5 30.5t-14 42.5t-3 46.5v248q0 23 3 46t14.5 42.5t36.5 31t70 11.5q55 0 80 -20t32.5 -50t7.5 -61v-248q0 -31 -7.5 -61t-33.5 -50t-83 -20zM179 9q52 0 74.5 18.5t28 46t5.5 53.5v242q0 27 -5.5 54t-27 45.5t-71.5 18.5q-40 0 -62.5 -11
t-32 -28.5t-11.5 -38t-2 -40.5v-242q0 -20 2 -40.5t11 -38t30.5 -28.5t60.5 -11zM216 484l-2 11q30 0 47 12.5t17 41.5v10h16v-9q0 -34 -21.5 -50t-56.5 -16z" />
    <glyph glyph-name="Uhorn" unicode="&#x1af;" horiz-adv-x="429" 
d="M209 -9q-37 0 -68 9t-49 35t-18 78v478h16v-475q0 -46 17 -69.5t44.5 -31.5t57.5 -8q31 0 60.5 8t49.5 31.5t20 69.5v475h16v-478q0 -52 -20.5 -78t-54 -35t-71.5 -9zM351 580l-2 11q30 0 47 12.5t17 41.5v10h16v-9q0 -34 -21.5 -50t-56.5 -16z" />
    <glyph glyph-name="uhorn" unicode="&#x1b0;" horiz-adv-x="380" 
d="M187 -8q-42 0 -66.5 11.5t-35.5 31t-14 42.5t-3 46v372h16v-363q0 -29 5 -58t26.5 -47.5t71.5 -18.5q55 0 80 27.5t29 70.5v389h16v-495h-14l-2 50q-11 -23 -36.5 -40.5t-72.5 -17.5zM298 484l-2 11q30 0 47 12.5t17 41.5v10h16v-9q0 -34 -21.5 -50t-56.5 -16z" />
    <glyph glyph-name="uni01C4" unicode="&#x1c4;" horiz-adv-x="694" 
d="M76 0v591h156q36 0 64 -10.5t44.5 -38.5t16.5 -81v-331q0 -52 -15.5 -80.5t-43.5 -39t-66 -10.5h-156zM92 16h140q51 0 80 23.5t29 95.5v320q0 68 -28.5 94.5t-80.5 26.5h-140v-560zM447 0v10l201 567l-186 -2v16h202v-14l-198 -561h204v-16h-223zM554 611l-83 86h18
l72 -72l69 72h20l-81 -86h-15z" />
    <glyph glyph-name="uni01C5" unicode="&#x1c5;" horiz-adv-x="671" 
d="M76 0v591h156q36 0 64 -10.5t44.5 -38.5t16.5 -81v-331q0 -52 -15.5 -80.5t-43.5 -39t-66 -10.5h-156zM92 16h140q51 0 80 23.5t29 95.5v320q0 68 -28.5 94.5t-80.5 26.5h-140v-560zM444 0v7l184 472h-172v16h193v-12l-184 -467h184v-16h-205zM551 539l-83 86h18l72 -72
l69 72h20l-81 -86h-15z" />
    <glyph glyph-name="uni01C6" unicode="&#x1c6;" horiz-adv-x="613" 
d="M178 -7q-56 0 -81.5 20t-31.5 50t-6 61v248q0 23 3 46t14 42.5t35.5 31t66.5 11.5q35 0 56 -7.5t32.5 -16.5t15.5 -13v164h16v-630h-13l-2 50q-7 -21 -35 -39t-70 -18zM178 9q42 0 64.5 16.5t31 43.5t8.5 58v310q-3 7 -11.5 18.5t-30 21.5t-62.5 10q-39 0 -60 -11
t-30 -28.5t-11 -38t-2 -40.5v-242q0 -20 2 -40.5t11 -38t30 -28.5t60 -11zM386 0v7l184 472h-172v16h193v-12l-184 -467h184v-16h-205zM493 539l-83 86h18l72 -72l69 72h20l-81 -86h-15z" />
    <glyph glyph-name="uni01C7" unicode="&#x1c7;" horiz-adv-x="511" 
d="M76 0v591h16v-575h198v-16h-214zM314 0v16h23q20 0 35 1.5t25 8.5q11 8 16.5 26t5.5 40v499h16v-474q0 -45 -4 -67t-23 -35q-20 -15 -74 -15h-20z" />
    <glyph glyph-name="uni01C8" unicode="&#x1c8;" horiz-adv-x="448" 
d="M76 0v591h16v-575h198v-16h-214zM307 -116q-19 0 -34.5 1.5t-14.5 1.5v16q11 -1 23.5 -2.5t26.5 -1.5q32 0 44 21t12 48v527h16v-528q0 -40 -18 -61.5t-55 -21.5zM372 566q-14 0 -14 14t14 14t14 -14t-14 -14z" />
    <glyph glyph-name="uni01C9" unicode="&#x1c9;" horiz-adv-x="306" 
d="M68 0v630h16v-630h-16zM165 -116q-19 0 -34.5 1.5t-14.5 1.5v16q11 -1 23.5 -2.5t26.5 -1.5q32 0 44 21t12 48v527h16v-528q0 -40 -18 -61.5t-55 -21.5zM230 566q-14 0 -14 14t14 14t14 -14t-14 -14z" />
    <glyph glyph-name="uni01CA" unicode="&#x1ca;" horiz-adv-x="631" 
d="M76 0v591h22l244 -562v562h16v-591h-21l-245 565v-565h-16zM434 0v16h23q20 0 35 1.5t25 8.5q11 8 16.5 26t5.5 40v499h16v-474q0 -45 -4 -67t-23 -35q-20 -15 -74 -15h-20z" />
    <glyph glyph-name="uni01CB" unicode="&#x1cb;" horiz-adv-x="588" 
d="M76 0v591h22l244 -562v562h16v-591h-21l-245 565v-565h-16zM447 -116q-19 0 -34.5 1.5t-14.5 1.5v16q11 -1 23.5 -2.5t26.5 -1.5q32 0 44 21t12 48v527h16v-528q0 -40 -18 -61.5t-55 -21.5zM512 566q-14 0 -14 14t14 14t14 -14t-14 -14z" />
    <glyph glyph-name="uni01CC" unicode="&#x1cc;" horiz-adv-x="527" 
d="M68 0v495h14l2 -52q11 23 36.5 41.5t72.5 18.5q42 0 66.5 -11.5t35.5 -31t14 -42.5t3 -46v-372h-16v363q0 30 -5 58.5t-26.5 47t-71.5 18.5q-55 0 -82 -30t-27 -73v-384h-16zM386 -116q-19 0 -34.5 1.5t-14.5 1.5v16q11 -1 23.5 -2.5t26.5 -1.5q32 0 44 21t12 48v527h16
v-528q0 -40 -18 -61.5t-55 -21.5zM451 566q-14 0 -14 14t14 14t14 -14t-14 -14z" />
    <glyph glyph-name="uni01CD" unicode="&#x1cd;" horiz-adv-x="365" 
d="M25 0l151 591h13l151 -591h-17l-40 160h-202l-39 -160h-17zM85 176h194l-92 356l-4 17l-4 -17zM174 611l-83 86h18l72 -72l69 72h20l-81 -86h-15z" />
    <glyph glyph-name="uni01CE" unicode="&#x1ce;" horiz-adv-x="354" 
d="M160 -4q-23 0 -47.5 8t-41.5 32.5t-17 75.5v34q0 32 14.5 56t35 40.5t40 27t28.5 15.5q40 22 62.5 38.5t32.5 34t10 42.5v14q0 34 -14.5 49t-36.5 19t-45 4q-44 0 -65.5 -15t-28 -40t-6.5 -56v-41h-16v43q0 58 23 91.5t93 33.5q54 0 77.5 -14t29 -36.5t5.5 -49.5v-402
h-15v73q-12 -35 -42.5 -56t-75.5 -21zM163 12q44 0 68.5 19t35 52t10.5 74v184q-16 -22 -43.5 -38.5t-56.5 -33.5q-25 -14 -49.5 -29.5t-41 -39.5t-16.5 -62v-26q0 -47 15 -68t37 -26.5t41 -5.5zM184 539l-83 86h18l72 -72l69 72h20l-81 -86h-15z" />
    <glyph glyph-name="uni01CF" unicode="&#x1cf;" horiz-adv-x="168" 
d="M76 0v591h16v-591h-16zM77 611l-83 86h18l72 -72l69 72h20l-81 -86h-15z" />
    <glyph glyph-name="uni01D0" unicode="&#x1d0;" horiz-adv-x="152" 
d="M68 0v495h16v-495h-16zM79 539l-83 86h18l72 -72l69 72h20l-81 -86h-15z" />
    <glyph glyph-name="uni01D1" unicode="&#x1d1;" horiz-adv-x="415" 
d="M206 -12q-73 0 -106 28.5t-33 101.5v351q0 72 33.5 101t107.5 29q77 0 108.5 -30.5t31.5 -99.5v-351q0 -72 -32 -101t-110 -29zM207 4q70 0 97.5 27t27.5 90v345q0 62 -27.5 89.5t-97.5 27.5q-69 0 -96.5 -27t-27.5 -90v-345q0 -64 28.5 -90.5t95.5 -26.5zM198 611
l-83 86h18l72 -72l69 72h20l-81 -86h-15z" />
    <glyph glyph-name="uni01D2" unicode="&#x1d2;" horiz-adv-x="362" 
d="M179 -7q-43 0 -67.5 11.5t-35.5 30.5t-14 42.5t-3 46.5v248q0 23 3 46t14.5 42.5t36.5 31t70 11.5q55 0 80 -20t32.5 -50t7.5 -61v-248q0 -31 -7.5 -61t-33.5 -50t-83 -20zM179 9q52 0 74.5 18.5t28 46t5.5 53.5v242q0 27 -5.5 54t-27 45.5t-71.5 18.5q-40 0 -62.5 -11
t-32 -28.5t-11.5 -38t-2 -40.5v-242q0 -20 2 -40.5t11 -38t30.5 -28.5t60.5 -11zM183 539l-83 86h18l72 -72l69 72h20l-81 -86h-15z" />
    <glyph glyph-name="uni01D3" unicode="&#x1d3;" horiz-adv-x="429" 
d="M209 -9q-37 0 -68 9t-49 35t-18 78v478h16v-475q0 -46 17 -69.5t44.5 -31.5t57.5 -8q31 0 60.5 8t49.5 31.5t20 69.5v475h16v-478q0 -52 -20.5 -78t-54 -35t-71.5 -9zM207 611l-83 86h18l72 -72l69 72h20l-81 -86h-15z" />
    <glyph glyph-name="uni01D4" unicode="&#x1d4;" horiz-adv-x="380" 
d="M187 -8q-42 0 -66.5 11.5t-35.5 31t-14 42.5t-3 46v372h16v-363q0 -29 5 -58t26.5 -47.5t71.5 -18.5q55 0 80 27.5t29 70.5v389h16v-495h-14l-2 50q-11 -23 -36.5 -40.5t-72.5 -17.5zM193 539l-83 86h18l72 -72l69 72h20l-81 -86h-15z" />
    <glyph glyph-name="uni01D5" unicode="&#x1d5;" horiz-adv-x="429" 
d="M209 -9q-37 0 -68 9t-49 35t-18 78v478h16v-475q0 -46 17 -69.5t44.5 -31.5t57.5 -8q31 0 60.5 8t49.5 31.5t20 69.5v475h16v-478q0 -52 -20.5 -78t-54 -35t-71.5 -9zM254 643q-14 0 -14 14t14 14t14 -14t-14 -14zM177 643q-14 0 -14 14t14 14t14 -14t-14 -14zM132 719
v16h166v-16h-166z" />
    <glyph glyph-name="uni01D6" unicode="&#x1d6;" horiz-adv-x="380" 
d="M187 -8q-42 0 -66.5 11.5t-35.5 31t-14 42.5t-3 46v372h16v-363q0 -29 5 -58t26.5 -47.5t71.5 -18.5q55 0 80 27.5t29 70.5v389h16v-495h-14l-2 50q-11 -23 -36.5 -40.5t-72.5 -17.5zM228 566q-14 0 -14 14t14 14t14 -14t-14 -14zM151 566q-14 0 -14 14t14 14t14 -14
t-14 -14zM110 641v16h160v-16h-160z" />
    <glyph glyph-name="uni01D7" unicode="&#x1d7;" horiz-adv-x="429" 
d="M209 -9q-37 0 -68 9t-49 35t-18 78v478h16v-475q0 -46 17 -69.5t44.5 -31.5t57.5 -8q31 0 60.5 8t49.5 31.5t20 69.5v475h16v-478q0 -52 -20.5 -78t-54 -35t-71.5 -9zM254 643q-14 0 -14 14t14 14t14 -14t-14 -14zM177 643q-14 0 -14 14t14 14t14 -14t-14 -14zM194 700
l83 75h23l-91 -75h-15z" />
    <glyph glyph-name="uni01D8" unicode="&#x1d8;" horiz-adv-x="380" 
d="M187 -8q-42 0 -66.5 11.5t-35.5 31t-14 42.5t-3 46v372h16v-363q0 -29 5 -58t26.5 -47.5t71.5 -18.5q55 0 80 27.5t29 70.5v389h16v-495h-14l-2 50q-11 -23 -36.5 -40.5t-72.5 -17.5zM228 566q-14 0 -14 14t14 14t14 -14t-14 -14zM151 566q-14 0 -14 14t14 14t14 -14
t-14 -14zM156 620l66 86h20l-71 -86h-15z" />
    <glyph glyph-name="uni01D9" unicode="&#x1d9;" horiz-adv-x="429" 
d="M209 -9q-37 0 -68 9t-49 35t-18 78v478h16v-475q0 -46 17 -69.5t44.5 -31.5t57.5 -8q31 0 60.5 8t49.5 31.5t20 69.5v475h16v-478q0 -52 -20.5 -78t-54 -35t-71.5 -9zM254 643q-14 0 -14 14t14 14t14 -14t-14 -14zM177 643q-14 0 -14 14t14 14t14 -14t-14 -14zM207 678
l-83 86h18l72 -72l69 72h20l-81 -86h-15z" />
    <glyph glyph-name="uni01DA" unicode="&#x1da;" horiz-adv-x="380" 
d="M187 -8q-42 0 -66.5 11.5t-35.5 31t-14 42.5t-3 46v372h16v-363q0 -29 5 -58t26.5 -47.5t71.5 -18.5q55 0 80 27.5t29 70.5v389h16v-495h-14l-2 50q-11 -23 -36.5 -40.5t-72.5 -17.5zM228 566q-14 0 -14 14t14 14t14 -14t-14 -14zM151 566q-14 0 -14 14t14 14t14 -14
t-14 -14zM193 614l-83 86h18l72 -72l69 72h20l-81 -86h-15z" />
    <glyph glyph-name="uni01DB" unicode="&#x1db;" horiz-adv-x="429" 
d="M209 -9q-37 0 -68 9t-49 35t-18 78v478h16v-475q0 -46 17 -69.5t44.5 -31.5t57.5 -8q31 0 60.5 8t49.5 31.5t20 69.5v475h16v-478q0 -52 -20.5 -78t-54 -35t-71.5 -9zM254 643q-14 0 -14 14t14 14t14 -14t-14 -14zM177 643q-14 0 -14 14t14 14t14 -14t-14 -14zM235 700
l-91 75h23l83 -75h-15z" />
    <glyph glyph-name="uni01DC" unicode="&#x1dc;" horiz-adv-x="380" 
d="M187 -8q-42 0 -66.5 11.5t-35.5 31t-14 42.5t-3 46v372h16v-363q0 -29 5 -58t26.5 -47.5t71.5 -18.5q55 0 80 27.5t29 70.5v389h16v-495h-14l-2 50q-11 -23 -36.5 -40.5t-72.5 -17.5zM228 566q-14 0 -14 14t14 14t14 -14t-14 -14zM151 566q-14 0 -14 14t14 14t14 -14
t-14 -14zM203 620l-71 86h20l66 -86h-15z" />
    <glyph glyph-name="Gcaron" unicode="&#x1e6;" horiz-adv-x="410" 
d="M206 -12q-38 0 -69.5 8.5t-50.5 36.5t-19 85v351q0 58 19 85.5t51.5 36t71.5 8.5q40 0 70 -9t47.5 -36.5t17.5 -84.5v-68h-16v67q0 49 -14 73.5t-41 33t-66 8.5q-38 0 -66 -8.5t-43 -33t-15 -73.5v-343q0 -53 16.5 -79t45 -34t62.5 -8q51 0 86 32t35 89v131h-107v15h123
v-271h-16v63q-8 -27 -42 -51t-80 -24zM197 611l-83 86h18l72 -72l69 72h20l-81 -86h-15z" />
    <glyph glyph-name="gcaron" unicode="&#x1e7;" horiz-adv-x="366" 
d="M176 -115q-22 0 -39.5 1.5t-24.5 2.5v17q27 -5 64 -5q27 0 51 8.5t39.5 31t15.5 62.5v73q-8 -20 -35.5 -37t-68.5 -17q-56 0 -81.5 20t-31.5 50t-6 61v219q0 23 3 46t14 42.5t35.5 31t66.5 11.5q35 0 56 -7.5t32.5 -16.5t15.5 -13l3 29h13v-490q0 -57 -30 -88.5
t-92 -31.5zM178 38q42 0 64.5 16.5t31 43.5t8.5 58v281q-3 7 -11.5 18.5t-30 21.5t-62.5 10q-39 0 -60 -11t-30 -28.5t-11 -38t-2 -40.5v-213q0 -20 2 -40.5t11 -38t30 -28.5t60 -11zM190 539l-83 86h18l72 -72l69 72h20l-81 -86h-15z" />
    <glyph glyph-name="uni01EA" unicode="&#x1ea;" horiz-adv-x="415" 
d="M206 -12q-73 0 -106 28.5t-33 101.5v351q0 72 33.5 101t107.5 29q77 0 108.5 -30.5t31.5 -99.5v-351q0 -72 -32 -101t-110 -29zM207 4q70 0 97.5 27t27.5 90v345q0 62 -27.5 89.5t-97.5 27.5q-69 0 -96.5 -27t-27.5 -90v-345q0 -64 28.5 -90.5t95.5 -26.5zM223 -132
q-27 0 -43.5 14.5t-16.5 39.5q0 26 18 46t36 29h16q-19 -12 -36.5 -33t-17.5 -42q0 -17 12.5 -28t31.5 -11q18 0 34 8l6 -12q-9 -6 -19.5 -8.5t-20.5 -2.5z" />
    <glyph glyph-name="uni01EB" unicode="&#x1eb;" horiz-adv-x="362" 
d="M179 -7q-43 0 -67.5 11.5t-35.5 30.5t-14 42.5t-3 46.5v248q0 23 3 46t14.5 42.5t36.5 31t70 11.5q55 0 80 -20t32.5 -50t7.5 -61v-248q0 -31 -7.5 -61t-33.5 -50t-83 -20zM179 9q52 0 74.5 18.5t28 46t5.5 53.5v242q0 27 -5.5 54t-27 45.5t-71.5 18.5q-40 0 -62.5 -11
t-32 -28.5t-11.5 -38t-2 -40.5v-242q0 -20 2 -40.5t11 -38t30.5 -28.5t60.5 -11zM193 -129q-27 0 -43.5 14.5t-16.5 39.5q0 26 18 46t36 29h16q-19 -12 -36.5 -33t-17.5 -42q0 -17 12.5 -28t31.5 -11q18 0 34 8l6 -12q-9 -6 -19.5 -8.5t-20.5 -2.5z" />
    <glyph glyph-name="Aringacute" unicode="&#x1fa;" horiz-adv-x="365" 
d="M25 0l151 591h13l151 -591h-17l-40 160h-202l-39 -160h-17zM85 176h194l-92 356l-4 17l-4 -17zM183 638q-23 0 -39 15.5t-16 37.5t16 37.5t38 15.5q19 0 33 -11l59 77h20l-70 -85q12 -15 12 -34q0 -22 -15 -37.5t-38 -15.5zM182 654q16 0 27 10.5t11 26.5q0 17 -11 27
t-27 10t-27 -10t-11 -27q0 -16 11 -26.5t27 -10.5z" />
    <glyph glyph-name="aringacute" unicode="&#x1fb;" horiz-adv-x="354" 
d="M160 -4q-23 0 -47.5 8t-41.5 32.5t-17 75.5v34q0 32 14.5 56t35 40.5t40 27t28.5 15.5q40 22 62.5 38.5t32.5 34t10 42.5v14q0 34 -14.5 49t-36.5 19t-45 4q-44 0 -65.5 -15t-28 -40t-6.5 -56v-41h-16v43q0 58 23 91.5t93 33.5q54 0 77.5 -14t29 -36.5t5.5 -49.5v-402
h-15v73q-12 -35 -42.5 -56t-75.5 -21zM163 12q44 0 68.5 19t35 52t10.5 74v184q-16 -22 -43.5 -38.5t-56.5 -33.5q-25 -14 -49.5 -29.5t-41 -39.5t-16.5 -62v-26q0 -47 15 -68t37 -26.5t41 -5.5zM182 542q-23 0 -39 15.5t-16 37.5t16 37.5t38 15.5q19 0 33 -11l59 77h20
l-70 -85q12 -15 12 -34q0 -22 -15 -37.5t-38 -15.5zM181 558q16 0 27 10.5t11 26.5q0 17 -11 27t-27 10t-27 -10t-11 -27q0 -16 11 -26.5t27 -10.5z" />
    <glyph glyph-name="AEacute" unicode="&#x1fc;" horiz-adv-x="501" 
d="M2 0l224 591h197v-16h-178l36 -256h151v-16h-149l40 -287h160v-16h-174l-22 160h-206l-61 -160h-18zM87 176h197l-53 382zM259 633l83 75h23l-91 -75h-15z" />
    <glyph glyph-name="aeacute" unicode="&#x1fd;" horiz-adv-x="573" 
d="M397 -7q-44 0 -68.5 12.5t-35.5 31.5v-37h-15v73q-12 -35 -42.5 -56t-75.5 -21q-23 0 -47.5 8t-41.5 32.5t-17 75.5v34q0 32 14.5 56t35 40.5t40 27t28.5 15.5q40 22 62.5 38.5t32.5 34t10 42.5v14q0 34 -14.5 49t-36.5 19t-45 4q-44 0 -65.5 -15t-28 -40t-6.5 -56v-41
h-16v43q0 58 23 91.5t93 33.5q56 0 79 -15t29 -39q11 24 35.5 39.5t72.5 15.5q56 0 81 -19t31.5 -49t6.5 -63v-109h-223v-136q0 -29 5.5 -56.5t27.5 -44.5t71 -17t70.5 17t27 44t5.5 57v40h16v-43q0 -31 -6 -61t-31 -50t-82 -20zM293 279h207v84q0 35 -5 63t-26.5 44.5
t-71.5 16.5q-44 0 -66.5 -15.5t-30 -43t-7.5 -65.5v-84zM163 12q44 0 68.5 19t35 52t10.5 74v184q-16 -22 -43.5 -38.5t-56.5 -33.5q-25 -14 -49.5 -29.5t-41 -39.5t-16.5 -62v-26q0 -47 15 -68t37 -26.5t41 -5.5zM265 543l66 86h20l-71 -86h-15z" />
    <glyph glyph-name="Oslashacute" unicode="&#x1fe;" horiz-adv-x="415" 
d="M30 -56l51 100q-14 28 -14 74v351q0 58 19 85.5t51.5 36t70.5 8.5q42 0 76 -10t50 -46l40 78h17l-49 -97q6 -24 6 -55v-351q0 -58 -19 -85.5t-51 -36t-72 -8.5q-36 0 -66.5 7.5t-49.5 32.5l-42 -84h-18zM91 64l233 459q-13 39 -45 49.5t-72 10.5q-34 0 -62.5 -7.5
t-45 -32.5t-16.5 -77v-345q0 -33 8 -57zM207 4q35 0 63.5 7.5t45 32.5t16.5 77v345q0 10 -0.5 18.5t-1.5 15.5l-231 -455q17 -26 45.5 -33.5t62.5 -7.5zM180 631l83 75h23l-91 -75h-15z" />
    <glyph glyph-name="oslashacute" unicode="&#x1ff;" horiz-adv-x="362" 
d="M19 -46l49 97q-6 17 -7.5 35.5t-1.5 37.5v248q0 23 3 46t14.5 42.5t36.5 31t70 11.5q38 0 61 -10t36 -27l41 82h17l-49 -97q9 -17 11.5 -38t2.5 -41v-248q0 -31 -7.5 -61t-33.5 -50t-83 -20q-42 0 -66 11t-36 29l-40 -79h-18zM79 72l192 378q-10 17 -31 27t-57 10
q-40 0 -62.5 -11t-32 -28.5t-11.5 -38t-2 -40.5v-242q0 -13 0.5 -27t3.5 -28zM179 9q52 0 74.5 18.5t28 46t5.5 53.5v242q0 16 -1.5 32t-6.5 31l-193 -381q10 -18 31.5 -30t61.5 -12zM147 545l66 86h20l-71 -86h-15z" />
    <glyph glyph-name="uni0200" unicode="&#x200;" horiz-adv-x="365" 
d="M25 0l151 591h13l151 -591h-17l-40 160h-202l-39 -160h-17zM85 176h194l-92 356l-4 17l-4 -17zM213 641l-71 86h20l66 -86h-15zM175 640l-71 86h20l66 -86h-15z" />
    <glyph glyph-name="uni0201" unicode="&#x201;" horiz-adv-x="354" 
d="M160 -4q-23 0 -47.5 8t-41.5 32.5t-17 75.5v34q0 32 14.5 56t35 40.5t40 27t28.5 15.5q40 22 62.5 38.5t32.5 34t10 42.5v14q0 34 -14.5 49t-36.5 19t-45 4q-44 0 -65.5 -15t-28 -40t-6.5 -56v-41h-16v43q0 58 23 91.5t93 33.5q54 0 77.5 -14t29 -36.5t5.5 -49.5v-402
h-15v73q-12 -35 -42.5 -56t-75.5 -21zM163 12q44 0 68.5 19t35 52t10.5 74v184q-16 -22 -43.5 -38.5t-56.5 -33.5q-25 -14 -49.5 -29.5t-41 -39.5t-16.5 -62v-26q0 -47 15 -68t37 -26.5t41 -5.5zM212 545l-71 86h20l66 -86h-15zM174 544l-71 86h20l66 -86h-15z" />
    <glyph glyph-name="uni0202" unicode="&#x202;" horiz-adv-x="365" 
d="M25 0l151 591h13l151 -591h-17l-40 160h-202l-39 -160h-17zM85 176h194l-92 356l-4 17l-4 -17zM94 643q0 29 23 53t67 24t60.5 -24.5t16.5 -52.5h-16q-1 33 -18.5 47t-43.5 14t-49.5 -15t-23.5 -46h-16z" />
    <glyph glyph-name="uni0203" unicode="&#x203;" horiz-adv-x="354" 
d="M160 -4q-23 0 -47.5 8t-41.5 32.5t-17 75.5v34q0 32 14.5 56t35 40.5t40 27t28.5 15.5q40 22 62.5 38.5t32.5 34t10 42.5v14q0 34 -14.5 49t-36.5 19t-45 4q-44 0 -65.5 -15t-28 -40t-6.5 -56v-41h-16v43q0 58 23 91.5t93 33.5q54 0 77.5 -14t29 -36.5t5.5 -49.5v-402
h-15v73q-12 -35 -42.5 -56t-75.5 -21zM163 12q44 0 68.5 19t35 52t10.5 74v184q-16 -22 -43.5 -38.5t-56.5 -33.5q-25 -14 -49.5 -29.5t-41 -39.5t-16.5 -62v-26q0 -47 15 -68t37 -26.5t41 -5.5zM93 547q0 29 23 53t67 24t60.5 -24.5t16.5 -52.5h-16q-1 33 -18.5 47
t-43.5 14t-49.5 -15t-23.5 -46h-16z" />
    <glyph glyph-name="uni0204" unicode="&#x204;" horiz-adv-x="346" 
d="M76 0v591h245v-16h-229v-256h178v-16h-178v-287h229v-16h-245zM229 641l-71 86h20l66 -86h-15zM191 640l-71 86h20l66 -86h-15z" />
    <glyph glyph-name="uni0205" unicode="&#x205;" horiz-adv-x="355" 
d="M179 -7q-43 0 -67.5 11.5t-35.5 30.5t-14 42.5t-3 46.5v248q0 31 7 61t32.5 50t80.5 20q56 0 81 -19t31.5 -49t6.5 -63v-109h-223v-136q0 -29 5.5 -56.5t27.5 -44.5t71 -17t70.5 17t27 44t5.5 57v40h16v-43q0 -31 -6 -61t-31 -50t-82 -20zM75 279h207v84q0 35 -5 63
t-26.5 44.5t-71.5 16.5q-44 0 -66.5 -15.5t-30 -43t-7.5 -65.5v-84zM215 545l-71 86h20l66 -86h-15zM177 544l-71 86h20l66 -86h-15z" />
    <glyph glyph-name="uni0206" unicode="&#x206;" horiz-adv-x="346" 
d="M76 0v591h245v-16h-229v-256h178v-16h-178v-287h229v-16h-245zM110 643q0 29 23 53t67 24t60.5 -24.5t16.5 -52.5h-16q-1 33 -18.5 47t-43.5 14t-49.5 -15t-23.5 -46h-16z" />
    <glyph glyph-name="uni0207" unicode="&#x207;" horiz-adv-x="355" 
d="M179 -7q-43 0 -67.5 11.5t-35.5 30.5t-14 42.5t-3 46.5v248q0 31 7 61t32.5 50t80.5 20q56 0 81 -19t31.5 -49t6.5 -63v-109h-223v-136q0 -29 5.5 -56.5t27.5 -44.5t71 -17t70.5 17t27 44t5.5 57v40h16v-43q0 -31 -6 -61t-31 -50t-82 -20zM75 279h207v84q0 35 -5 63
t-26.5 44.5t-71.5 16.5q-44 0 -66.5 -15.5t-30 -43t-7.5 -65.5v-84zM96 547q0 29 23 53t67 24t60.5 -24.5t16.5 -52.5h-16q-1 33 -18.5 47t-43.5 14t-49.5 -15t-23.5 -46h-16z" />
    <glyph glyph-name="uni0208" unicode="&#x208;" horiz-adv-x="168" 
d="M76 0v591h16v-591h-16zM116 641l-71 86h20l66 -86h-15zM78 640l-71 86h20l66 -86h-15z" />
    <glyph glyph-name="uni0209" unicode="&#x209;" horiz-adv-x="152" 
d="M68 0v495h16v-495h-16zM107 545l-71 86h20l66 -86h-15zM69 544l-71 86h20l66 -86h-15z" />
    <glyph glyph-name="uni020A" unicode="&#x20a;" horiz-adv-x="168" 
d="M76 0v591h16v-591h-16zM-3 643q0 29 23 53t67 24t60.5 -24.5t16.5 -52.5h-16q-1 33 -18.5 47t-43.5 14t-49.5 -15t-23.5 -46h-16z" />
    <glyph glyph-name="uni020B" unicode="&#x20b;" horiz-adv-x="152" 
d="M68 0v495h16v-495h-16zM-12 547q0 29 23 53t67 24t60.5 -24.5t16.5 -52.5h-16q-1 33 -18.5 47t-43.5 14t-49.5 -15t-23.5 -46h-16z" />
    <glyph glyph-name="uni020C" unicode="&#x20c;" horiz-adv-x="415" 
d="M206 -12q-73 0 -106 28.5t-33 101.5v351q0 72 33.5 101t107.5 29q77 0 108.5 -30.5t31.5 -99.5v-351q0 -72 -32 -101t-110 -29zM207 4q70 0 97.5 27t27.5 90v345q0 62 -27.5 89.5t-97.5 27.5q-69 0 -96.5 -27t-27.5 -90v-345q0 -64 28.5 -90.5t95.5 -26.5zM237 641
l-71 86h20l66 -86h-15zM199 640l-71 86h20l66 -86h-15z" />
    <glyph glyph-name="uni020D" unicode="&#x20d;" horiz-adv-x="362" 
d="M179 -7q-43 0 -67.5 11.5t-35.5 30.5t-14 42.5t-3 46.5v248q0 23 3 46t14.5 42.5t36.5 31t70 11.5q55 0 80 -20t32.5 -50t7.5 -61v-248q0 -31 -7.5 -61t-33.5 -50t-83 -20zM179 9q52 0 74.5 18.5t28 46t5.5 53.5v242q0 27 -5.5 54t-27 45.5t-71.5 18.5q-40 0 -62.5 -11
t-32 -28.5t-11.5 -38t-2 -40.5v-242q0 -20 2 -40.5t11 -38t30.5 -28.5t60.5 -11zM211 545l-71 86h20l66 -86h-15zM173 544l-71 86h20l66 -86h-15z" />
    <glyph glyph-name="uni020E" unicode="&#x20e;" horiz-adv-x="415" 
d="M206 -12q-73 0 -106 28.5t-33 101.5v351q0 72 33.5 101t107.5 29q77 0 108.5 -30.5t31.5 -99.5v-351q0 -72 -32 -101t-110 -29zM207 4q70 0 97.5 27t27.5 90v345q0 62 -27.5 89.5t-97.5 27.5q-69 0 -96.5 -27t-27.5 -90v-345q0 -64 28.5 -90.5t95.5 -26.5zM118 643
q0 29 23 53t67 24t60.5 -24.5t16.5 -52.5h-16q-1 33 -18.5 47t-43.5 14t-49.5 -15t-23.5 -46h-16z" />
    <glyph glyph-name="uni020F" unicode="&#x20f;" horiz-adv-x="362" 
d="M179 -7q-43 0 -67.5 11.5t-35.5 30.5t-14 42.5t-3 46.5v248q0 23 3 46t14.5 42.5t36.5 31t70 11.5q55 0 80 -20t32.5 -50t7.5 -61v-248q0 -31 -7.5 -61t-33.5 -50t-83 -20zM179 9q52 0 74.5 18.5t28 46t5.5 53.5v242q0 27 -5.5 54t-27 45.5t-71.5 18.5q-40 0 -62.5 -11
t-32 -28.5t-11.5 -38t-2 -40.5v-242q0 -20 2 -40.5t11 -38t30.5 -28.5t60.5 -11zM92 547q0 29 23 53t67 24t60.5 -24.5t16.5 -52.5h-16q-1 33 -18.5 47t-43.5 14t-49.5 -15t-23.5 -46h-16z" />
    <glyph glyph-name="uni0210" unicode="&#x210;" horiz-adv-x="410" 
d="M76 0v591h166q43 0 74.5 -21.5t31.5 -75.5v-83q0 -41 -15 -66.5t-37.5 -38t-47.5 -15.5q16 -2 32 -22.5t23 -44.5l69 -224h-17l-61 200q-12 39 -33 63t-58 24h-111v-287h-16zM92 303h121q51 0 85 24t34 82v82q0 43 -26 63.5t-60 20.5h-154v-272zM235 641l-71 86h20
l66 -86h-15zM197 640l-71 86h20l66 -86h-15z" />
    <glyph glyph-name="uni0211" unicode="&#x211;" horiz-adv-x="229" 
d="M68 0v495h14l2 -50q11 23 36.5 40.5t72.5 17.5q21 0 37 -3v-16q-16 3 -37 3q-55 0 -82 -29t-27 -69v-389h-16zM169 545l-71 86h20l66 -86h-15zM131 544l-71 86h20l66 -86h-15z" />
    <glyph glyph-name="uni0212" unicode="&#x212;" horiz-adv-x="410" 
d="M76 0v591h166q43 0 74.5 -21.5t31.5 -75.5v-83q0 -41 -15 -66.5t-37.5 -38t-47.5 -15.5q16 -2 32 -22.5t23 -44.5l69 -224h-17l-61 200q-12 39 -33 63t-58 24h-111v-287h-16zM92 303h121q51 0 85 24t34 82v82q0 43 -26 63.5t-60 20.5h-154v-272zM116 643q0 29 23 53
t67 24t60.5 -24.5t16.5 -52.5h-16q-1 33 -18.5 47t-43.5 14t-49.5 -15t-23.5 -46h-16z" />
    <glyph glyph-name="uni0213" unicode="&#x213;" horiz-adv-x="229" 
d="M68 0v495h14l2 -50q11 23 36.5 40.5t72.5 17.5q21 0 37 -3v-16q-16 3 -37 3q-55 0 -82 -29t-27 -69v-389h-16zM50 547q0 29 23 53t67 24t60.5 -24.5t16.5 -52.5h-16q-1 33 -18.5 47t-43.5 14t-49.5 -15t-23.5 -46h-16z" />
    <glyph glyph-name="uni0214" unicode="&#x214;" horiz-adv-x="429" 
d="M209 -9q-37 0 -68 9t-49 35t-18 78v478h16v-475q0 -46 17 -69.5t44.5 -31.5t57.5 -8q31 0 60.5 8t49.5 31.5t20 69.5v475h16v-478q0 -52 -20.5 -78t-54 -35t-71.5 -9zM246 641l-71 86h20l66 -86h-15zM208 640l-71 86h20l66 -86h-15z" />
    <glyph glyph-name="uni0215" unicode="&#x215;" horiz-adv-x="380" 
d="M187 -8q-42 0 -66.5 11.5t-35.5 31t-14 42.5t-3 46v372h16v-363q0 -29 5 -58t26.5 -47.5t71.5 -18.5q55 0 80 27.5t29 70.5v389h16v-495h-14l-2 50q-11 -23 -36.5 -40.5t-72.5 -17.5zM221 545l-71 86h20l66 -86h-15zM183 544l-71 86h20l66 -86h-15z" />
    <glyph glyph-name="uni0216" unicode="&#x216;" horiz-adv-x="429" 
d="M209 -9q-37 0 -68 9t-49 35t-18 78v478h16v-475q0 -46 17 -69.5t44.5 -31.5t57.5 -8q31 0 60.5 8t49.5 31.5t20 69.5v475h16v-478q0 -52 -20.5 -78t-54 -35t-71.5 -9zM127 643q0 29 23 53t67 24t60.5 -24.5t16.5 -52.5h-16q-1 33 -18.5 47t-43.5 14t-49.5 -15t-23.5 -46
h-16z" />
    <glyph glyph-name="uni0217" unicode="&#x217;" horiz-adv-x="380" 
d="M187 -8q-42 0 -66.5 11.5t-35.5 31t-14 42.5t-3 46v372h16v-363q0 -29 5 -58t26.5 -47.5t71.5 -18.5q55 0 80 27.5t29 70.5v389h16v-495h-14l-2 50q-11 -23 -36.5 -40.5t-72.5 -17.5zM102 547q0 29 23 53t67 24t60.5 -24.5t16.5 -52.5h-16q-1 33 -18.5 47t-43.5 14
t-49.5 -15t-23.5 -46h-16z" />
    <glyph glyph-name="uni0218" unicode="&#x218;" horiz-adv-x="346" 
d="M167 -9q-38 0 -67 15.5t-44.5 53.5t-15.5 103v12h16v-12q0 -60 14.5 -94t39.5 -48t57 -14q53 0 88 30.5t35 108.5q0 52 -17.5 79.5t-47 42.5t-64.5 28q-36 14 -62.5 31.5t-41 45.5t-14.5 75q0 67 29.5 107t98.5 40q60 0 95 -33t35 -93v-40h-16v36q0 54 -30 84t-84 30
q-62 0 -87 -37.5t-25 -93.5q0 -46 15.5 -72t41 -40t54.5 -26q48 -19 78 -37t44 -46.5t14 -80.5q0 -57 -18.5 -91t-50 -49t-70.5 -15zM147 -130q5 8 13.5 23.5t8.5 25.5q0 8 -6.5 11t-6.5 15q0 5 4 9.5t11 4.5q10 0 14 -5.5t4 -13.5q0 -16 -10 -36t-21 -34h-11z" />
    <glyph glyph-name="uni0219" unicode="&#x219;" horiz-adv-x="322" 
d="M160 -6q-52 0 -85 25t-33 80v67h16v-67q0 -44 28.5 -66.5t73.5 -22.5q47 0 75.5 20t28.5 66v38q0 38 -16 59.5t-40.5 35t-52.5 25.5q-31 14 -57 28t-41.5 34.5t-15.5 53.5v34q0 42 32 70t89 28q52 0 85.5 -23.5t33.5 -77.5v-65h-16v59q0 48 -26.5 69.5t-76.5 21.5
t-77.5 -25t-27.5 -66v-18q0 -33 17 -53t41 -32.5t45 -22.5q30 -13 57.5 -28.5t45 -40t17.5 -66.5v-38q0 -39 -17 -61t-44 -31.5t-59 -9.5zM138 -130q5 8 13.5 23.5t8.5 25.5q0 8 -6.5 11t-6.5 15q0 5 4 9.5t11 4.5q10 0 14 -5.5t4 -13.5q0 -16 -10 -36t-21 -34h-11z" />
    <glyph glyph-name="uni021A" unicode="&#x21a;" horiz-adv-x="261" 
d="M122 0v575h-111v16h239v-16h-112v-575h-16zM105 -130q5 8 13.5 23.5t8.5 25.5q0 8 -6.5 11t-6.5 15q0 5 4 9.5t11 4.5q10 0 14 -5.5t4 -13.5q0 -16 -10 -36t-21 -34h-11z" />
    <glyph glyph-name="uni021B" unicode="&#x21b;" horiz-adv-x="212" 
d="M141 0q-39 0 -56 23.5t-17 69.5v386h-38v14l38 2l3 97h13v-97h116v-16h-116v-391q0 -28 11 -50.5t45 -22.5q14 0 28 1.5t32 3.5v-16q-7 -1 -23.5 -2.5t-35.5 -1.5zM114 -130q5 8 13.5 23.5t8.5 25.5q0 8 -6.5 11t-6.5 15q0 5 4 9.5t11 4.5q10 0 14 -5.5t4 -13.5
q0 -16 -10 -36t-21 -34h-11z" />
    <glyph glyph-name="uni022A" unicode="&#x22a;" horiz-adv-x="415" 
d="M206 -12q-73 0 -106 28.5t-33 101.5v351q0 72 33.5 101t107.5 29q77 0 108.5 -30.5t31.5 -99.5v-351q0 -72 -32 -101t-110 -29zM207 4q70 0 97.5 27t27.5 90v345q0 62 -27.5 89.5t-97.5 27.5q-69 0 -96.5 -27t-27.5 -90v-345q0 -64 28.5 -90.5t95.5 -26.5zM245 643
q-14 0 -14 14t14 14t14 -14t-14 -14zM168 643q-14 0 -14 14t14 14t14 -14t-14 -14zM123 719v16h166v-16h-166z" />
    <glyph glyph-name="uni022B" unicode="&#x22b;" horiz-adv-x="362" 
d="M179 -7q-43 0 -67.5 11.5t-35.5 30.5t-14 42.5t-3 46.5v248q0 23 3 46t14.5 42.5t36.5 31t70 11.5q55 0 80 -20t32.5 -50t7.5 -61v-248q0 -31 -7.5 -61t-33.5 -50t-83 -20zM179 9q52 0 74.5 18.5t28 46t5.5 53.5v242q0 27 -5.5 54t-27 45.5t-71.5 18.5q-40 0 -62.5 -11
t-32 -28.5t-11.5 -38t-2 -40.5v-242q0 -20 2 -40.5t11 -38t30.5 -28.5t60.5 -11zM218 566q-14 0 -14 14t14 14t14 -14t-14 -14zM141 566q-14 0 -14 14t14 14t14 -14t-14 -14zM100 641v16h160v-16h-160z" />
    <glyph glyph-name="uni022C" unicode="&#x22c;" horiz-adv-x="415" 
d="M206 -12q-73 0 -106 28.5t-33 101.5v351q0 72 33.5 101t107.5 29q77 0 108.5 -30.5t31.5 -99.5v-351q0 -72 -32 -101t-110 -29zM207 4q70 0 97.5 27t27.5 90v345q0 62 -27.5 89.5t-97.5 27.5q-69 0 -96.5 -27t-27.5 -90v-345q0 -64 28.5 -90.5t95.5 -26.5zM246 630
q-17 0 -30 7.5t-24.5 15t-25.5 7.5q-9 0 -17.5 -4.5t-10.5 -21.5h-15q2 17 13 29t30 12q17 0 29 -7.5t23.5 -15t27.5 -7.5q10 0 19 5t11 22h15q-3 -19 -14.5 -30.5t-30.5 -11.5zM123 715v16h166v-16h-166z" />
    <glyph glyph-name="uni022D" unicode="&#x22d;" horiz-adv-x="362" 
d="M179 -7q-43 0 -67.5 11.5t-35.5 30.5t-14 42.5t-3 46.5v248q0 23 3 46t14.5 42.5t36.5 31t70 11.5q55 0 80 -20t32.5 -50t7.5 -61v-248q0 -31 -7.5 -61t-33.5 -50t-83 -20zM179 9q52 0 74.5 18.5t28 46t5.5 53.5v242q0 27 -5.5 54t-27 45.5t-71.5 18.5q-40 0 -62.5 -11
t-32 -28.5t-11.5 -38t-2 -40.5v-242q0 -20 2 -40.5t11 -38t30.5 -28.5t60.5 -11zM220 550q-17 0 -30 7.5t-24.5 15t-25.5 7.5q-9 0 -17.5 -4.5t-10.5 -21.5h-15q2 17 13 29t30 12q17 0 29 -7.5t23.5 -15t27.5 -7.5q10 0 19 5t11 22h15q-3 -19 -14.5 -30.5t-30.5 -11.5z
M100 643v16h160v-16h-160z" />
    <glyph glyph-name="uni0230" unicode="&#x230;" horiz-adv-x="415" 
d="M206 -12q-73 0 -106 28.5t-33 101.5v351q0 72 33.5 101t107.5 29q77 0 108.5 -30.5t31.5 -99.5v-351q0 -72 -32 -101t-110 -29zM207 4q70 0 97.5 27t27.5 90v345q0 62 -27.5 89.5t-97.5 27.5q-69 0 -96.5 -27t-27.5 -90v-345q0 -64 28.5 -90.5t95.5 -26.5zM206 640
q-14 0 -14 14t14 14t14 -14t-14 -14zM123 691v16h166v-16h-166z" />
    <glyph glyph-name="uni0231" unicode="&#x231;" horiz-adv-x="362" 
d="M179 -7q-43 0 -67.5 11.5t-35.5 30.5t-14 42.5t-3 46.5v248q0 23 3 46t14.5 42.5t36.5 31t70 11.5q55 0 80 -20t32.5 -50t7.5 -61v-248q0 -31 -7.5 -61t-33.5 -50t-83 -20zM179 9q52 0 74.5 18.5t28 46t5.5 53.5v242q0 27 -5.5 54t-27 45.5t-71.5 18.5q-40 0 -62.5 -11
t-32 -28.5t-11.5 -38t-2 -40.5v-242q0 -20 2 -40.5t11 -38t30.5 -28.5t60.5 -11zM180 566q-14 0 -14 14t14 14t14 -14t-14 -14zM100 641v16h160v-16h-160z" />
    <glyph glyph-name="uni0232" unicode="&#x232;" horiz-adv-x="290" 
d="M130 0v253l-109 338h17l101 -316l113 316h17l-123 -338v-253h-16zM57 652v16h166v-16h-166z" />
    <glyph glyph-name="uni0233" unicode="&#x233;" horiz-adv-x="298" 
d="M53 -115q-15 0 -31 2.5t-18 3.5v14q2 -1 17 -3.5t32 -2.5q16 0 33.5 8t33 29t21.5 60l-121 499h16l113 -468l114 468h16l-121 -496q-13 -52 -36.5 -83t-68.5 -31zM68 566v16h160v-16h-160z" />
    <glyph glyph-name="uni0237" unicode="&#x237;" horiz-adv-x="154" 
d="M13 -116q-19 0 -34.5 1.5t-14.5 1.5v16q11 -1 23.5 -2.5t26.5 -1.5q32 0 44 21t12 48v527h16v-528q0 -40 -18 -61.5t-55 -21.5z" />
    <glyph glyph-name="uni0259" unicode="&#x259;" horiz-adv-x="355" 
d="M176 502q43 0 67.5 -11.5t35.5 -30.5t14 -42.5t3 -46.5v-248q0 -30 -7 -60.5t-32 -50.5t-81 -20q-55 0 -80.5 19t-32 49t-6.5 63v109h223v136q0 30 -5.5 57t-27 44t-71.5 17q-49 0 -70.5 -17t-27 -43.5t-5.5 -57.5v-40h-16v43q0 31 6 61t31.5 50t81.5 20zM280 216h-207
v-84q0 -35 5 -63t26.5 -44.5t71.5 -16.5q45 0 67 15.5t29.5 43.5t7.5 65v84z" />
    <glyph glyph-name="uni02B9" unicode="&#x2b9;" horiz-adv-x="88" 
d="M20 478l32 152h16l-39 -152h-9z" />
    <glyph glyph-name="uni02BA" unicode="&#x2ba;" horiz-adv-x="171" 
d="M30 478l32 152h16l-39 -152h-9zM113 478l32 152h16l-39 -152h-9z" />
    <glyph glyph-name="uni02BC" unicode="&#x2bc;" horiz-adv-x="100" 
d="M31 511q6 11 15.5 31t9.5 33q0 10 -7.5 14t-7.5 19q0 7 4.5 13t12.5 6q11 0 16 -7.5t5 -17.5q0 -20 -11 -46t-24 -45h-13z" />
    <glyph glyph-name="circumflex" unicode="&#x2c6;" horiz-adv-x="500" 
d="M161 546l83 86h15l81 -86h-20l-69 72l-72 -72h-18z" />
    <glyph glyph-name="caron" unicode="&#x2c7;" horiz-adv-x="500" 
d="M244 539l-83 86h18l72 -72l69 72h20l-81 -86h-15z" />
    <glyph glyph-name="breve" unicode="&#x2d8;" horiz-adv-x="500" 
d="M244 546q-43 0 -60 24.5t-17 52.5h16q1 -33 19 -47t43 -14q26 0 49.5 15t23.5 46h16q0 -28 -23 -52.5t-67 -24.5z" />
    <glyph glyph-name="dotaccent" unicode="&#x2d9;" horiz-adv-x="500" 
d="M250 566q-14 0 -14 14t14 14t14 -14t-14 -14z" />
    <glyph glyph-name="ring" unicode="&#x2da;" horiz-adv-x="500" 
d="M251 542q-23 0 -39 15.5t-16 37.5t16 37.5t38 15.5q23 0 38.5 -15.5t15.5 -37.5t-15 -37.5t-38 -15.5zM250 558q16 0 27 10.5t11 26.5q0 17 -11 27t-27 10t-27 -10t-11 -27q0 -16 11 -26.5t27 -10.5z" />
    <glyph glyph-name="ogonek" unicode="&#x2db;" horiz-adv-x="500" 
d="M260 -128q-27 0 -43.5 14.5t-16.5 39.5q0 26 18 46t36 29h16q-19 -12 -36.5 -33t-17.5 -42q0 -17 12.5 -28t31.5 -11q18 0 34 8l6 -12q-9 -6 -19.5 -8.5t-20.5 -2.5z" />
    <glyph glyph-name="tilde" unicode="&#x2dc;" horiz-adv-x="500" 
d="M289 550q-17 0 -30 7.5t-24.5 15t-25.5 7.5q-9 0 -17.5 -4.5t-10.5 -21.5h-15q2 17 13 29t30 12q17 0 29 -7.5t23.5 -15t27.5 -7.5q10 0 19 5t11 22h15q-3 -19 -14.5 -30.5t-30.5 -11.5z" />
    <glyph glyph-name="hungarumlaut" unicode="&#x2dd;" horiz-adv-x="500" 
d="M185 545l66 86h20l-71 -86h-15zM230 544l66 86h20l-71 -86h-15z" />
    <glyph glyph-name="gravecomb" unicode="&#x300;" 
d="M278 545l-71 86h20l66 -86h-15z" />
    <glyph glyph-name="acutecomb" unicode="&#x301;" 
d="M207 545l66 86h20l-71 -86h-15z" />
    <glyph glyph-name="uni0302" unicode="&#x302;" 
d="M161 546l83 86h15l81 -86h-20l-69 72l-72 -72h-18z" />
    <glyph glyph-name="tildecomb" unicode="&#x303;" 
d="M289 550q-17 0 -30 7.5t-24.5 15t-25.5 7.5q-9 0 -17.5 -4.5t-10.5 -21.5h-15q2 17 13 29t30 12q17 0 29 -7.5t23.5 -15t27.5 -7.5q10 0 19 5t11 22h15q-3 -19 -14.5 -30.5t-30.5 -11.5z" />
    <glyph glyph-name="uni0304" unicode="&#x304;" 
d="M170 566v16h160v-16h-160z" />
    <glyph glyph-name="uni0306" unicode="&#x306;" 
d="M244 546q-43 0 -60 24.5t-17 52.5h16q1 -33 19 -47t43 -14q26 0 49.5 15t23.5 46h16q0 -28 -23 -52.5t-67 -24.5z" />
    <glyph glyph-name="uni0307" unicode="&#x307;" 
d="M250 566q-14 0 -14 14t14 14t14 -14t-14 -14z" />
    <glyph glyph-name="uni0308" unicode="&#x308;" 
d="M289 566q-14 0 -14 14t14 14t14 -14t-14 -14zM212 566q-14 0 -14 14t14 14t14 -14t-14 -14z" />
    <glyph glyph-name="hookabovecomb" unicode="&#x309;" 
d="M235 539v7q0 20 12.5 29t25 17.5t12.5 24.5v4q0 8 -6 16.5t-26 8.5q-33 0 -39 -25l-15 5q4 17 16.5 26.5t37.5 9.5q48 0 48 -40v-5q0 -21 -12.5 -31.5t-25 -17.5t-12.5 -20v-9h-16z" />
    <glyph glyph-name="uni030A" unicode="&#x30a;" 
d="M251 542q-23 0 -39 15.5t-16 37.5t16 37.5t38 15.5q23 0 38.5 -15.5t15.5 -37.5t-15 -37.5t-38 -15.5zM250 558q16 0 27 10.5t11 26.5q0 17 -11 27t-27 10t-27 -10t-11 -27q0 -16 11 -26.5t27 -10.5z" />
    <glyph glyph-name="uni030B" unicode="&#x30b;" 
d="M185 545l66 86h20l-71 -86h-15zM230 544l66 86h20l-71 -86h-15z" />
    <glyph glyph-name="uni030C" unicode="&#x30c;" 
d="M244 539l-83 86h18l72 -72l69 72h20l-81 -86h-15z" />
    <glyph glyph-name="uni030F" unicode="&#x30f;" 
d="M297 545l-71 86h20l66 -86h-15zM259 544l-71 86h20l66 -86h-15z" />
    <glyph glyph-name="uni0311" unicode="&#x311;" 
d="M167 547q0 29 23 53t67 24t60.5 -24.5t16.5 -52.5h-16q-1 33 -18.5 47t-43.5 14t-49.5 -15t-23.5 -46h-16z" />
    <glyph glyph-name="uni0312" unicode="&#x312;" 
d="M247 544q-10 0 -14 6t-4 13q0 16 10 36t21 34h11q-5 -7 -13.5 -22.5t-8.5 -26.5q0 -7 6.5 -10.5t6.5 -15.5q0 -5 -3.5 -9.5t-11.5 -4.5z" />
    <glyph glyph-name="uni031B" unicode="&#x31b;" 
d="M212 484l-2 11q30 0 47 12.5t17 41.5v10h16v-9q0 -34 -21.5 -50t-56.5 -16z" />
    <glyph glyph-name="dotbelowcomb" unicode="&#x323;" 
d="M250 -80q-14 0 -14 14t14 14t14 -14t-14 -14z" />
    <glyph glyph-name="uni0324" unicode="&#x324;" 
d="M289 -54q-14 0 -14 14t14 14t14 -14t-14 -14zM212 -54q-14 0 -14 14t14 14t14 -14t-14 -14z" />
    <glyph glyph-name="uni0326" unicode="&#x326;" 
d="M229 -130q5 8 13.5 23.5t8.5 25.5q0 8 -6.5 11t-6.5 15q0 5 4 9.5t11 4.5q10 0 14 -5.5t4 -13.5q0 -16 -10 -36t-21 -34h-11z" />
    <glyph glyph-name="uni0327" unicode="&#x327;" 
d="M242 -134q-15 0 -25 4t-18 8l8 14q13 -11 35 -11q43 0 43 33q0 29 -34 29q-26 0 -39 -10l-8 10l34 57h13l-22 -43q2 1 10 1.5t13 0.5q25 0 37 -13t12 -30q0 -18 -15 -34t-44 -16z" />
    <glyph glyph-name="uni0328" unicode="&#x328;" 
d="M260 -128q-27 0 -43.5 14.5t-16.5 39.5q0 26 18 46t36 29h16q-19 -12 -36.5 -33t-17.5 -42q0 -17 12.5 -28t31.5 -11q18 0 34 8l6 -12q-9 -6 -19.5 -8.5t-20.5 -2.5z" />
    <glyph glyph-name="uni032E" unicode="&#x32e;" 
d="M244 -116q-43 0 -60 24.5t-17 52.5h16q1 -33 19 -47t43 -14q26 0 49.5 15t23.5 46h16q0 -28 -23 -52.5t-67 -24.5z" />
    <glyph glyph-name="uni0331" unicode="&#x331;" 
d="M170 -52v16h160v-16h-160z" />
    <glyph glyph-name="uni0335" unicode="&#x335;" 
d="M165 210v15h171v-15h-171z" />
    <glyph glyph-name="uni03A9" unicode="&#x3a9;" horiz-adv-x="576" 
d="M30 0v16h182q-45 34 -80 72t-55 91t-20 131q0 255 221 255q107 0 164 -64t57 -182q0 -98 -38 -172.5t-117 -130.5h202v-16h-228l-4 15q86 55 127.5 129.5t41.5 174.5q0 112 -52.5 171t-152.5 59q-105 0 -155 -58t-50 -181q0 -79 21.5 -132t59.5 -90.5t88 -72.5l-5 -15
h-207z" />
    <glyph glyph-name="pi" unicode="&#x3c0;" horiz-adv-x="527" 
d="M106 0q9 42 20.5 99.5t21.5 123t17 131.5t7 125q-43 -2 -74 -8.5t-62 -18.5v17q19 8 40 14t51.5 9t77.5 3h292v-17h-85v-478h-16v478h-208q0 -67 -9 -146t-24 -163.5t-33 -168.5h-16z" />
    <glyph glyph-name="uni0400" unicode="&#x400;" horiz-adv-x="346" 
d="M76 0v591h245v-16h-229v-256h178v-16h-178v-287h229v-16h-245zM220 633l-91 75h23l83 -75h-15z" />
    <glyph glyph-name="uni0401" unicode="&#x401;" horiz-adv-x="346" 
d="M76 0v591h245v-16h-229v-256h178v-16h-178v-287h229v-16h-245zM239 643q-14 0 -14 14t14 14t14 -14t-14 -14zM162 643q-14 0 -14 14t14 14t14 -14t-14 -14z" />
    <glyph glyph-name="uni0402" unicode="&#x402;" horiz-adv-x="433" 
d="M122 0v575h-111v16h239v-16h-112v-196q11 23 36.5 40.5t72.5 17.5q42 0 66.5 -11.5t35.5 -31t14 -42.5t3 -46v-160q0 -50 -9.5 -82.5t-38.5 -48t-88 -15.5v16q51 0 76.5 13.5t34.5 41.5t9 71v155q0 30 -5 58.5t-26.5 47t-71.5 18.5q-55 0 -80 -27.5t-29 -70.5v-323h-16z
" />
    <glyph glyph-name="uni0403" unicode="&#x403;" horiz-adv-x="328" 
d="M76 0v591h241v-16h-225v-575h-16zM176 633l83 75h23l-91 -75h-15z" />
    <glyph glyph-name="uni0404" unicode="&#x404;" horiz-adv-x="408" 
d="M206 -12q-40 0 -71.5 8.5t-49.5 36.5t-18 85v351q0 58 18.5 85.5t50.5 36t72 8.5q39 0 69.5 -9t48.5 -36.5t18 -84.5v-88h-16v92q0 51 -15.5 74.5t-42.5 30t-63 6.5q-37 0 -65 -7.5t-43.5 -32t-15.5 -77.5v-159h172v-16h-172v-176q0 -52 16.5 -76t45 -31t62.5 -7
q33 0 60.5 7t44 31t16.5 76v73h16v-71q0 -58 -18 -85.5t-49 -36t-71 -8.5z" />
    <glyph glyph-name="uni0405" unicode="&#x405;" horiz-adv-x="346" 
d="M167 -9q-38 0 -67 15.5t-44.5 53.5t-15.5 103v12h16v-12q0 -60 14.5 -94t39.5 -48t57 -14q53 0 88 30.5t35 108.5q0 52 -17.5 79.5t-47 42.5t-64.5 28q-36 14 -62.5 31.5t-41 45.5t-14.5 75q0 67 29.5 107t98.5 40q60 0 95 -33t35 -93v-40h-16v36q0 54 -30 84t-84 30
q-62 0 -87 -37.5t-25 -93.5q0 -46 15.5 -72t41 -40t54.5 -26q48 -19 78 -37t44 -46.5t14 -80.5q0 -57 -18.5 -91t-50 -49t-70.5 -15z" />
    <glyph glyph-name="uni0406" unicode="&#x406;" horiz-adv-x="168" 
d="M76 0v591h16v-591h-16z" />
    <glyph glyph-name="uni0407" unicode="&#x407;" horiz-adv-x="168" 
d="M76 0v591h16v-591h-16zM124 643q-14 0 -14 14t14 14t14 -14t-14 -14zM47 643q-14 0 -14 14t14 14t14 -14t-14 -14z" />
    <glyph glyph-name="uni0408" unicode="&#x408;" horiz-adv-x="197" 
d="M0 0v16h23q20 0 35 1.5t25 8.5q11 8 16.5 26t5.5 40v499h16v-474q0 -45 -4 -67t-23 -35q-20 -15 -74 -15h-20z" />
    <glyph glyph-name="uni0409" unicode="&#x409;" horiz-adv-x="625" 
d="M55 0v16q39 0 45 76l35 499h204v-156h108q42 0 66.5 -11.5t35.5 -31t14 -42.5t3 -46v-173q0 -31 -6 -61t-31 -50t-82 -20h-124v575h-172l-35 -483q0 -6 -2 -20.5t-8 -31t-18 -28.5t-33 -12zM339 15h104q52 0 74.5 17.5t28 45t5.5 56.5v167q0 30 -5.5 57t-28 44.5
t-74.5 17.5h-104v-405z" />
    <glyph glyph-name="uni040A" unicode="&#x40a;" horiz-adv-x="624" 
d="M76 0v591h16v-273h229v273h16v-156h109q42 0 66.5 -11.5t35.5 -31t14 -42.5t3 -46v-173q0 -31 -6 -61t-31 -50t-82 -20h-125v302h-229v-302h-16zM337 15h105q52 0 74.5 17.5t28 45t5.5 56.5v167q0 30 -5.5 57t-28 44.5t-74.5 17.5h-105v-405z" />
    <glyph glyph-name="uni040B" unicode="&#x40b;" horiz-adv-x="433" 
d="M122 0v575h-111v16h239v-16h-112v-196q11 23 36.5 40.5t72.5 17.5q42 0 66.5 -11.5t35.5 -31t14 -42.5t3 -46v-306h-16v297q0 30 -5 58.5t-26.5 47t-71.5 18.5q-55 0 -80 -27.5t-29 -70.5v-323h-16z" />
    <glyph glyph-name="uni040C" unicode="&#x40c;" horiz-adv-x="332" 
d="M76 0v591h16v-279h29l175 279h18l-179 -285l184 -306h-19l-177 296h-31v-296h-16zM173 633l83 75h23l-91 -75h-15z" />
    <glyph glyph-name="uni040D" unicode="&#x40d;" horiz-adv-x="434" 
d="M358 0h-16v565l-245 -565h-21v591h16v-562l244 562h22v-591zM235 633l-91 75h23l83 -75h-15z" />
    <glyph glyph-name="uni040E" unicode="&#x40e;" horiz-adv-x="297" 
d="M197 629q-43 0 -60 24.5t-17 52.5h16q1 -33 19 -47t43 -14q26 0 49.5 15t23.5 46h16q0 -28 -23 -52.5t-67 -24.5zM-85 -19q-15 0 -31 2.5t-18 3.5v14q2 -1 17 -3.5t32 -2.5q16 0 33.5 8t33 29t21.5 60l-121 499h16l113 -468l114 468h16l-121 -496q-13 -52 -36.5 -83
t-68.5 -31z" />
    <glyph glyph-name="uni040F" unicode="&#x40f;" horiz-adv-x="397" 
d="M191 -99v99h-115v591h14v-575h217v575h14v-591h-115v-99h-15z" />
    <glyph glyph-name="uni0410" unicode="&#x410;" horiz-adv-x="365" 
d="M25 0l151 591h13l151 -591h-17l-40 160h-202l-39 -160h-17zM85 176h194l-92 356l-4 17l-4 -17z" />
    <glyph glyph-name="uni0411" unicode="&#x411;" horiz-adv-x="378" 
d="M76 0v591h241v-16h-225v-140h104q42 0 66.5 -11.5t35.5 -31t14 -42.5t3 -46v-173q0 -31 -6 -61t-31 -50t-82 -20h-120zM92 16h104q49 0 70.5 18.5t27 47.5t5.5 58v155q0 30 -5.5 58.5t-27 47t-70.5 18.5h-104v-403z" />
    <glyph glyph-name="uni0412" unicode="&#x412;" horiz-adv-x="414" 
d="M76 0v591h163q46 0 77.5 -21.5t31.5 -75.5v-75q0 -42 -24 -71t-66 -36q45 0 70 -29t25 -74v-89q0 -52 -15.5 -77.5t-43 -34t-64.5 -8.5h-154zM92 319h126q56 0 85 27t29 74v76q0 39 -26.5 59t-66.5 20h-147v-256zM92 16h135q35 0 59.5 7.5t37.5 31t13 70.5v89
q0 53 -33 71t-81 18h-131v-287z" />
    <glyph glyph-name="uni0413" unicode="&#x413;" horiz-adv-x="328" 
d="M76 0v591h241v-16h-225v-575h-16z" />
    <glyph glyph-name="uni0414" unicode="&#x414;" horiz-adv-x="443" 
d="M16 -99v110h50q25 2 36 22t14 59l36 499h202v-580h76v-110h-16v94h-382v-94h-16zM104 11h234v564h-171l-35 -483q0 -6 -2 -21.5t-8 -32t-18 -27.5z" />
    <glyph glyph-name="uni0415" unicode="&#x415;" horiz-adv-x="346" 
d="M76 0v591h245v-16h-229v-256h178v-16h-178v-287h229v-16h-245z" />
    <glyph glyph-name="uni0416" unicode="&#x416;" horiz-adv-x="500" 
d="M13 0l186 306l-181 285h18l178 -281h28v281h16v-281h27l179 281h18l-181 -285l186 -306h-19l-178 294h-32v-294h-16v294h-32l-178 -294h-19z" />
    <glyph glyph-name="uni0417" unicode="&#x417;" horiz-adv-x="411" 
d="M209 -8q-67 0 -104 37.5t-37 107.5v46h16v-46q0 -67 32 -97.5t93 -32.5q125 3 125 130v26q0 63 -31.5 100.5t-93.5 37.5h-64v16h64q54 0 86 35.5t32 87.5v19q0 56 -27.5 88t-90.5 32t-91 -32t-28 -88v-30h-16v31q0 62 34 98.5t101 36.5t101 -36.5t34 -98.5v-18
q0 -52 -28.5 -88t-76.5 -45q40 -5 64.5 -27t35.5 -53t11 -66v-26q0 -72 -38 -108.5t-103 -36.5z" />
    <glyph glyph-name="uni0418" unicode="&#x418;" horiz-adv-x="434" 
d="M358 0h-16v565l-245 -565h-21v591h16v-562l244 562h22v-591z" />
    <glyph glyph-name="uni0419" unicode="&#x419;" horiz-adv-x="434" 
d="M358 0h-16v565l-245 -565h-21v591h16v-562l244 562h22v-591zM213 642q-43 0 -60 24.5t-17 52.5h16q1 -33 19 -47t43 -14q26 0 49.5 15t23.5 46h16q0 -28 -23 -52.5t-67 -24.5z" />
    <glyph glyph-name="uni041A" unicode="&#x41a;" horiz-adv-x="332" 
d="M76 0v591h16v-279h29l175 279h18l-179 -285l184 -306h-19l-177 296h-31v-296h-16z" />
    <glyph glyph-name="uni041B" unicode="&#x41b;" horiz-adv-x="415" 
d="M55 0v16q39 0 45 76l35 499h204v-590h-16v574h-172l-35 -483q0 -6 -2 -20.5t-8 -31t-18 -28.5t-33 -12z" />
    <glyph glyph-name="uni041C" unicode="&#x41c;" horiz-adv-x="526" 
d="M76 0v591h17l170 -559l171 559h16v-591h-16v537l-164 -537h-14l-164 537v-537h-16z" />
    <glyph glyph-name="uni041D" unicode="&#x41d;" horiz-adv-x="433" 
d="M76 0v591h16v-273h249v273h16v-591h-16v302h-249v-302h-16z" />
    <glyph glyph-name="uni041E" unicode="&#x41e;" horiz-adv-x="415" 
d="M206 -12q-73 0 -106 28.5t-33 101.5v351q0 72 33.5 101t107.5 29q77 0 108.5 -30.5t31.5 -99.5v-351q0 -72 -32 -101t-110 -29zM207 4q70 0 97.5 27t27.5 90v345q0 62 -27.5 89.5t-97.5 27.5q-69 0 -96.5 -27t-27.5 -90v-345q0 -64 28.5 -90.5t95.5 -26.5z" />
    <glyph glyph-name="uni041F" unicode="&#x41f;" horiz-adv-x="393" 
d="M76 0v591h241v-591h-16v575h-209v-575h-16z" />
    <glyph glyph-name="uni0420" unicode="&#x420;" horiz-adv-x="387" 
d="M76 0v591h152q60 0 92 -20.5t32 -76.5v-76q0 -52 -12 -84.5t-44 -47.5t-93 -15h-111v-271h-16zM92 287h111q55 0 83.5 12.5t39 41t10.5 76.5v54q0 60 -22.5 82t-86.5 22h-135v-288z" />
    <glyph glyph-name="uni0421" unicode="&#x421;" horiz-adv-x="404" 
d="M202 -12q-38 0 -68.5 8.5t-48.5 36.5t-18 85v351q0 58 18 85.5t49.5 36t69.5 8.5q39 0 69.5 -9t48.5 -36.5t18 -84.5v-88h-16v92q0 48 -15.5 71.5t-42.5 31t-63 7.5q-37 0 -64 -8.5t-41.5 -33t-14.5 -74.5v-351q0 -48 16.5 -72t44 -32t59.5 -8q35 0 62.5 8t43 32t15.5 72
v73h16v-71q0 -58 -18 -85.5t-49 -36t-71 -8.5z" />
    <glyph glyph-name="uni0422" unicode="&#x422;" horiz-adv-x="261" 
d="M122 0v575h-111v16h239v-16h-112v-575h-16z" />
    <glyph glyph-name="uni0423" unicode="&#x423;" horiz-adv-x="297" 
d="M61 -19q-15 0 -31 2.5t-18 3.5v14q2 -1 17 -3.5t32 -2.5q16 0 33.5 8t33 29t21.5 60l-121 499h16l113 -468l114 468h16l-121 -496q-13 -52 -36.5 -83t-68.5 -31z" />
    <glyph glyph-name="uni0424" unicode="&#x424;" horiz-adv-x="443" 
d="M214 0v59h-12q-38 0 -68.5 9t-48.5 36.5t-18 84.5v214q0 58 18 85.5t49 36t69 8.5h11v58h16v-58h10q39 0 69.5 -9t48.5 -36.5t18 -84.5v-214q0 -58 -17.5 -85.5t-48.5 -36t-71 -8.5h-9v-59h-16zM201 74h13v444h-11q-32 0 -59.5 -6.5t-44 -30t-16.5 -75.5v-220
q0 -51 15.5 -75t42 -30.5t60.5 -6.5zM230 74h9q35 0 62.5 6.5t43 30t15.5 75.5v220q0 52 -17 75.5t-44 30t-59 6.5h-10v-444z" />
    <glyph glyph-name="uni0425" unicode="&#x425;" horiz-adv-x="300" 
d="M26 0l101 298l-90 293h16l88 -285h17l99 285h17l-102 -293l100 -298h-18l-96 290h-16l-99 -290h-17z" />
    <glyph glyph-name="uni0426" unicode="&#x426;" horiz-adv-x="401" 
d="M329 -74v74h-253v591h16v-575h217v575h16v-575h20v-90h-16z" />
    <glyph glyph-name="uni0427" unicode="&#x427;" horiz-adv-x="396" 
d="M304 0v189q-11 -23 -36.5 -40.5t-72.5 -17.5q-42 0 -66.5 11.5t-35.5 31t-14 42.5t-3 46v329h16v-320q0 -29 5 -58t26.5 -47.5t71.5 -18.5q55 0 80 27.5t29 70.5v346h16v-591h-16z" />
    <glyph glyph-name="uni0428" unicode="&#x428;" horiz-adv-x="626" 
d="M76 0v591h16v-575h213v575h16v-575h213v575h16v-591h-474z" />
    <glyph glyph-name="uni0429" unicode="&#x429;" horiz-adv-x="634" 
d="M76 0v591h16v-575h217v575h16v-575h217v575h16v-575h20v-90h-16v74h-486z" />
    <glyph glyph-name="uni042A" unicode="&#x42a;" horiz-adv-x="380" 
d="M78 0v575h-64v16h79v-156h109q42 0 66.5 -11.5t35.5 -31t14 -42.5t3 -46v-173q0 -31 -6 -61t-31 -50t-82 -20h-124zM93 15h105q52 0 74.5 17.5t28 45t5.5 56.5v167q0 30 -5.5 57t-28 44.5t-74.5 17.5h-105v-405z" />
    <glyph glyph-name="uni042B" unicode="&#x42b;" horiz-adv-x="506" 
d="M76 0v591h15v-156h109q42 0 66.5 -11.5t35.5 -31t14 -42.5t3 -46v-173q0 -31 -6 -61t-31 -50t-82 -20h-124zM414 0v591h16v-591h-16zM91 15h105q52 0 74.5 17.5t28 45t5.5 56.5v167q0 30 -5.5 57t-28 44.5t-74.5 17.5h-105v-405z" />
    <glyph glyph-name="uni042C" unicode="&#x42c;" horiz-adv-x="378" 
d="M76 0v588h15v-153h109q42 0 66.5 -11.5t35.5 -31t14 -42.5t3 -46v-173q0 -31 -6 -61t-31 -50t-82 -20h-124zM91 15h105q52 0 74.5 17.5t28 45t5.5 56.5v167q0 30 -5.5 57t-28 44.5t-74.5 17.5h-105v-405z" />
    <glyph glyph-name="uni042D" unicode="&#x42d;" horiz-adv-x="408" 
d="M202 -12q-40 0 -71 8.5t-49 36t-18 85.5v71h16v-73q0 -52 16.5 -76t44 -31t60.5 -7q35 0 63 7t44.5 31t16.5 76v176h-172v16h172v159q0 53 -15.5 77.5t-43 32t-65.5 7.5q-35 0 -62.5 -6.5t-43 -30t-15.5 -74.5v-92h-16v88q0 57 18 84.5t49 36.5t69 9q41 0 72.5 -8.5
t50 -36t18.5 -85.5v-351q0 -57 -18 -85t-49.5 -36.5t-71.5 -8.5z" />
    <glyph glyph-name="uni042E" unicode="&#x42e;" horiz-adv-x="669" 
d="M76 0v591h16v-273h229v151q0 58 19 85.5t51.5 36t70.5 8.5q39 0 70.5 -9t50.5 -36.5t19 -84.5v-351q0 -58 -19 -85.5t-51 -36t-72 -8.5q-38 0 -69.5 8.5t-50.5 36.5t-19 85v184h-229v-302h-16zM461 4q35 0 63.5 7.5t45 32.5t16.5 77v345q0 52 -17 77t-45.5 32.5
t-62.5 7.5t-62.5 -7.5t-45 -32.5t-16.5 -77v-345q0 -52 16.5 -77t45 -32.5t62.5 -7.5z" />
    <glyph glyph-name="uni042F" unicode="&#x42f;" horiz-adv-x="410" 
d="M334 0h-16v287h-111q-37 0 -58 -24t-33 -63l-61 -200h-17l69 224q8 24 23.5 44.5t31.5 22.5q-24 3 -47 15.5t-38 38t-15 66.5v83q0 54 31.5 75.5t74.5 21.5h166v-591zM318 303v272h-154q-34 0 -60 -20.5t-26 -63.5v-82q0 -58 34 -82t85 -24h121z" />
    <glyph glyph-name="uni0430" unicode="&#x430;" horiz-adv-x="354" 
d="M160 -4q-23 0 -47.5 8t-41.5 32.5t-17 75.5v34q0 32 14.5 56t35 40.5t40 27t28.5 15.5q40 22 62.5 38.5t32.5 34t10 42.5v14q0 34 -14.5 49t-36.5 19t-45 4q-44 0 -65.5 -15t-28 -40t-6.5 -56v-41h-16v43q0 58 23 91.5t93 33.5q54 0 77.5 -14t29 -36.5t5.5 -49.5v-402
h-15v73q-12 -35 -42.5 -56t-75.5 -21zM163 12q44 0 68.5 19t35 52t10.5 74v184q-16 -22 -43.5 -38.5t-56.5 -33.5q-25 -14 -49.5 -29.5t-41 -39.5t-16.5 -62v-26q0 -47 15 -68t37 -26.5t41 -5.5z" />
    <glyph glyph-name="uni0431" unicode="&#x431;" horiz-adv-x="363" 
d="M182 -10q-43 0 -68 12t-36.5 31.5t-15 43.5t-3.5 47v369q0 50 15.5 74.5t41.5 33t57 8.5h37q18 0 31 3.5t17 13.5h6v-10q0 -23 -62 -23h-26q-45 0 -72.5 -19t-27.5 -81v-87q27 44 106 44q44 0 68.5 -12t36 -32t14.5 -43.5t3 -46.5v-192q0 -23 -3 -47t-14 -43.5t-36 -31.5
t-69 -12zM182 6q50 0 72.5 18t28 46t5.5 57v186q0 30 -5.5 57.5t-28 45.5t-72.5 18q-45 0 -68 -14.5t-31 -38t-8 -50.5v-204q0 -29 6 -57t28.5 -46t72.5 -18z" />
    <glyph glyph-name="uni0432" unicode="&#x432;" horiz-adv-x="398" 
d="M68 0v495h163q46 0 77.5 -21.5t31.5 -75.5v-17q0 -48 -23 -78t-58 -37q36 0 61 -29t25 -74v-43q0 -52 -15.5 -77.5t-43 -34t-64.5 -8.5h-154zM84 273h126q56 0 85 27.5t29 79.5v20q0 39 -26.5 59t-66.5 20h-147v-206zM84 16h135q35 0 59.5 7.5t37.5 31t13 70.5v25
q0 44 -15 67t-41 31.5t-58 8.5h-131v-241z" />
    <glyph glyph-name="uni0433" unicode="&#x433;" horiz-adv-x="291" 
d="M68 0v495h213v-16h-197v-479h-16z" />
    <glyph glyph-name="uni0434" unicode="&#x434;" horiz-adv-x="436" 
d="M16 -99v110h55q33 3 41 81l35 403h204v-484h69v-110h-15v94h-374v-94h-15zM100 11h235v468h-172l-35 -387q0 -6 -2 -21.5t-8 -32t-18 -27.5z" />
    <glyph glyph-name="uni0435" unicode="&#x435;" horiz-adv-x="355" 
d="M179 -7q-43 0 -67.5 11.5t-35.5 30.5t-14 42.5t-3 46.5v248q0 31 7 61t32.5 50t80.5 20q56 0 81 -19t31.5 -49t6.5 -63v-109h-223v-136q0 -29 5.5 -56.5t27.5 -44.5t71 -17t70.5 17t27 44t5.5 57v40h16v-43q0 -31 -6 -61t-31 -50t-82 -20zM75 279h207v84q0 35 -5 63
t-26.5 44.5t-71.5 16.5q-44 0 -66.5 -15.5t-30 -43t-7.5 -65.5v-84z" />
    <glyph glyph-name="uni0436" unicode="&#x436;" horiz-adv-x="447" 
d="M14 0l155 261l-147 234h18l143 -225h33v225h15v-225h33l143 225h18l-147 -234l155 -261h-19l-149 254h-34v-254h-15v254h-33l-150 -254h-19z" />
    <glyph glyph-name="uni0437" unicode="&#x437;" horiz-adv-x="396" 
d="M206 -7q-67 0 -104 37t-37 107v21h16v-21q0 -67 37.5 -98t87.5 -31q45 0 72.5 18.5t40 47t12.5 58.5q0 52 -33.5 87.5t-91.5 35.5h-64v16h64q44 0 78.5 27t34.5 83q0 46 -25 74t-88 28t-91 -35t-28 -85v-30h-16v31q0 62 34 98.5t101 36.5t98.5 -28.5t31.5 -90.5
q0 -37 -14.5 -61.5t-34.5 -38t-36 -16.5q33 -5 54 -26.5t31.5 -50t10.5 -55.5q0 -61 -37 -100t-104 -39z" />
    <glyph glyph-name="uni0438" unicode="&#x438;" horiz-adv-x="378" 
d="M68 0v495h16v-471l202 471h24v-495h-16v473l-203 -473h-23z" />
    <glyph glyph-name="uni0439" unicode="&#x439;" horiz-adv-x="378" 
d="M68 0v495h16v-471l202 471h24v-495h-16v473l-203 -473h-23zM193 546q-43 0 -60 24.5t-17 52.5h16q1 -33 19 -47t43 -14q26 0 49.5 15t23.5 46h16q0 -28 -23 -52.5t-67 -24.5z" />
    <glyph glyph-name="uni043A" unicode="&#x43a;" horiz-adv-x="318" 
d="M68 0v496h16v-255q30 72 69 123.5t78 82t69 37.5v-16q-31 -10 -61 -35t-54.5 -55.5t-41.5 -59.5l156 -318h-18l-149 304q-18 -32 -32 -62.5t-16 -51.5v-190h-16z" />
    <glyph glyph-name="uni043B" unicode="&#x43b;" horiz-adv-x="374" 
d="M22 0v16q20 0 30.5 18t14.5 60l35 401h204v-494h-16v478h-172l-35 -387q-1 -11 -4.5 -33t-16 -40.5t-40.5 -18.5z" />
    <glyph glyph-name="uni043C" unicode="&#x43c;" horiz-adv-x="483" 
d="M68 0v495h17l157 -471l156 471h17v-495h-16v447l-149 -447h-17l-149 447v-447h-16z" />
    <glyph glyph-name="uni043D" unicode="&#x43d;" horiz-adv-x="382" 
d="M68 0v495h16v-224h214v224h16v-495h-16v255h-214v-255h-16z" />
    <glyph glyph-name="uni043E" unicode="&#x43e;" horiz-adv-x="362" 
d="M179 -7q-43 0 -67.5 11.5t-35.5 30.5t-14 42.5t-3 46.5v248q0 23 3 46t14.5 42.5t36.5 31t70 11.5q55 0 80 -20t32.5 -50t7.5 -61v-248q0 -31 -7.5 -61t-33.5 -50t-83 -20zM179 9q52 0 74.5 18.5t28 46t5.5 53.5v242q0 27 -5.5 54t-27 45.5t-71.5 18.5q-40 0 -62.5 -11
t-32 -28.5t-11.5 -38t-2 -40.5v-242q0 -20 2 -40.5t11 -38t30.5 -28.5t60.5 -11z" />
    <glyph glyph-name="uni043F" unicode="&#x43f;" horiz-adv-x="377" 
d="M68 0v495h241v-495h-16v479h-209v-479h-16z" />
    <glyph glyph-name="uni0440" unicode="&#x440;" horiz-adv-x="366" 
d="M68 -116v611h14l2 -50q5 20 28.5 39t75.5 19q42 0 66.5 -11.5t35.5 -31t14 -42.5t3 -46v-248q0 -31 -6 -61t-31 -50t-82 -20q-50 0 -74 14.5t-30 30.5v-154h-16zM188 9q39 0 60 11t30 28.5t11 38t2 40.5v242q0 30 -4.5 57t-25.5 44t-73 17q-48 0 -70 -17.5t-28 -45.5
t-6 -61v-236q0 -20 2 -40.5t11 -38t30.5 -28.5t60.5 -11z" />
    <glyph glyph-name="uni0441" unicode="&#x441;" horiz-adv-x="345" 
d="M179 -7q-43 0 -67.5 11.5t-35.5 30.5t-14 42.5t-3 46.5v248q0 23 3 46t14 42.5t35.5 31t67.5 11.5q42 0 66.5 -11.5t35.5 -31t14 -42.5t3 -46v-44h-16v41q0 27 -5.5 54t-27 45.5t-70.5 18.5t-71 -18.5t-27.5 -45.5t-5.5 -54v-242q0 -26 5.5 -53.5t27.5 -46t71 -18.5
t70.5 18.5t27 46t5.5 53.5v40h16v-43q0 -31 -6 -61t-31 -50t-82 -20z" />
    <glyph glyph-name="uni0442" unicode="&#x442;" horiz-adv-x="269" 
d="M126 0v479h-111v16h239v-16h-112v-479h-16z" />
    <glyph glyph-name="uni0443" unicode="&#x443;" horiz-adv-x="297" 
d="M52 -115q-15 0 -31 2.5t-18 3.5v14q2 -1 17 -3.5t32 -2.5q16 0 33.5 8t33 29t21.5 60l-121 499h16l113 -468l114 468h16l-121 -496q-13 -52 -36.5 -83t-68.5 -31z" />
    <glyph glyph-name="uni0444" unicode="&#x444;" horiz-adv-x="594" 
d="M289 -116v157q-12 -21 -37 -34.5t-71 -13.5q-43 0 -67.5 11.5t-35.5 30.5t-14 42.5t-3 46.5v191q0 23 3 46t14.5 42.5t36.5 31t70 11.5q44 0 68 -13.5t36 -34.5v193h16v-190q12 20 37 32.5t71 12.5q55 0 80 -20t32.5 -50t7.5 -61v-191q0 -31 -7.5 -61t-33.5 -50t-83 -20
q-44 0 -68.5 12.5t-35.5 31.5v-153h-16zM181 9q52 0 74.5 18.5t28 46t5.5 53.5v185q0 27 -5.5 54t-27 45.5t-71.5 18.5q-40 0 -62.5 -11t-32 -28.5t-11.5 -38t-2 -40.5v-185q0 -20 2 -40.5t11 -38t30.5 -28.5t60.5 -11zM409 9q52 0 74.5 18.5t28 46t5.5 53.5v185
q0 27 -5.5 54t-27 45.5t-71.5 18.5q-40 0 -62.5 -10.5t-32 -28t-11.5 -38t-2 -40.5v-187q0 -20 2 -40.5t11 -38t30.5 -28t60.5 -10.5z" />
    <glyph glyph-name="uni0445" unicode="&#x445;" horiz-adv-x="299" 
d="M19 0l102 263l-86 232h17l84 -224h26l91 224h17l-94 -231l104 -264h-19l-98 255h-28l-98 -255h-18z" />
    <glyph glyph-name="uni0446" unicode="&#x446;" horiz-adv-x="381" 
d="M321 -65v65h-253v495h16v-479h212v479h16v-479h24v-81h-15z" />
    <glyph glyph-name="uni0447" unicode="&#x447;" horiz-adv-x="348" 
d="M264 0v209q-11 -23 -31.5 -40.5t-67.5 -17.5q-46 0 -67 20t-26.5 50.5t-5.5 60.5v213h16v-204q0 -29 4 -58t21.5 -47.5t57.5 -18.5q55 0 75 27.5t24 70.5v230h16v-495h-16z" />
    <glyph glyph-name="uni0448" unicode="&#x448;" horiz-adv-x="544" 
d="M68 0v495h16v-479h178v479h16v-479h182v479h16v-495h-408z" />
    <glyph glyph-name="uni0449" unicode="&#x449;" horiz-adv-x="545" 
d="M485 -65v65h-417v495h16v-479h178v479h16v-479h182v479h16v-479h24v-81h-15z" />
    <glyph glyph-name="uni044A" unicode="&#x44a;" horiz-adv-x="376" 
d="M93 0v479h-88v16h103v-157h109q42 0 66 -11.5t35.5 -31t14.5 -42.5t3 -46v-76q1 -31 -5.5 -61t-31.5 -50t-82 -20h-124zM108 15h105q52 0 74.5 17.5t28 45t5.5 56.5v70q0 30 -5.5 57t-28 44.5t-74.5 17.5h-105v-308z" />
    <glyph glyph-name="uni044B" unicode="&#x44b;" horiz-adv-x="460" 
d="M68 0v495h15v-157h109q42 0 66.5 -11.5t35.5 -31t14 -42.5t3 -46v-76q0 -31 -6 -61t-31 -50t-82 -20h-124zM83 15h105q52 0 74.5 17.5t28 45t5.5 56.5v70q0 30 -5.5 57t-28 44.5t-74.5 17.5h-105v-308zM376 0v495h16v-495h-16z" />
    <glyph glyph-name="uni044C" unicode="&#x44c;" horiz-adv-x="351" 
d="M68 0v495h15v-157h109q42 0 66.5 -11.5t35.5 -31t14 -42.5t3 -46v-76q0 -31 -6 -61t-31 -50t-82 -20h-124zM83 15h105q52 0 74.5 17.5t28 45t5.5 56.5v70q0 30 -5.5 57t-28 44.5t-74.5 17.5h-105v-308z" />
    <glyph glyph-name="uni044D" unicode="&#x44d;" horiz-adv-x="350" 
d="M166 -7q-56 0 -81.5 20t-31.5 50t-6 61v43h16v-40q0 -29 5.5 -56.5t27 -44.5t70.5 -17q52 0 75 17t28.5 44.5t5.5 56.5v115h-161v16h161v111q0 30 -5.5 57t-28.5 44t-75 17q-49 0 -70.5 -17t-27 -44t-5.5 -57v-41h-16v44q0 23 3 46t14 42.5t35.5 31t66.5 11.5
q45 0 70 -11.5t37 -31t15 -42.5t3 -46v-248q0 -23 -3 -46.5t-15 -42.5t-37 -30.5t-70 -11.5z" />
    <glyph glyph-name="uni044E" unicode="&#x44e;" horiz-adv-x="598" 
d="M68 0v498h16v-227h202v105q0 58 18.5 85.5t48 36t60.5 8.5q32 0 60.5 -9t47 -36.5t18.5 -84.5v-258q0 -58 -18.5 -85.5t-47.5 -36t-62 -8.5q-31 0 -59.5 8.5t-47 36.5t-18.5 85v137h-202v-255h-16zM412 4q28 0 53.5 7.5t41.5 32.5t16 77v252q0 52 -16.5 77t-42 32.5
t-52.5 7.5t-52.5 -7.5t-41.5 -32.5t-16 -77v-252q0 -52 16 -77t41.5 -32.5t52.5 -7.5z" />
    <glyph glyph-name="uni044F" unicode="&#x44f;" horiz-adv-x="370" 
d="M45 0l46 128q6 16 16 42t24 48.5t32 25.5q-49 7 -74.5 31.5t-25.5 86.5v36q0 54 31.5 75.5t74.5 21.5h133v-495h-16v238h-95q-24 0 -41 -23t-28.5 -54t-21.5 -57l-38 -104h-17zM198 254h88v225h-121q-34 0 -60 -20.5t-26 -63.5v-35q0 -58 31 -82t88 -24z" />
    <glyph glyph-name="uni0450" unicode="&#x450;" horiz-adv-x="355" 
d="M179 -7q-43 0 -67.5 11.5t-35.5 30.5t-14 42.5t-3 46.5v248q0 31 7 61t32.5 50t80.5 20q56 0 81 -19t31.5 -49t6.5 -63v-109h-223v-136q0 -29 5.5 -56.5t27.5 -44.5t71 -17t70.5 17t27 44t5.5 57v40h16v-43q0 -31 -6 -61t-31 -50t-82 -20zM75 279h207v84q0 35 -5 63
t-26.5 44.5t-71.5 16.5q-44 0 -66.5 -15.5t-30 -43t-7.5 -65.5v-84zM197 545l-71 86h20l66 -86h-15z" />
    <glyph glyph-name="uni0451" unicode="&#x451;" horiz-adv-x="355" 
d="M179 -7q-43 0 -67.5 11.5t-35.5 30.5t-14 42.5t-3 46.5v248q0 31 7 61t32.5 50t80.5 20q56 0 81 -19t31.5 -49t6.5 -63v-109h-223v-136q0 -29 5.5 -56.5t27.5 -44.5t71 -17t70.5 17t27 44t5.5 57v40h16v-43q0 -31 -6 -61t-31 -50t-82 -20zM75 279h207v84q0 35 -5 63
t-26.5 44.5t-71.5 16.5q-44 0 -66.5 -15.5t-30 -43t-7.5 -65.5v-84zM222 566q-14 0 -14 14t14 14t14 -14t-14 -14zM145 566q-14 0 -14 14t14 14t14 -14t-14 -14z" />
    <glyph glyph-name="uni0452" unicode="&#x452;" horiz-adv-x="373" 
d="M176 -101v16q51 0 76.5 13.5t34.5 41.5t9 71v256q0 30 -5 58.5t-26.5 47t-71.5 18.5q-55 0 -80 -27.5t-29 -70.5v-323h-16v532h-51v16h51v82h16v-82h116v-16h-116v-153q11 23 36.5 40.5t72.5 17.5q42 0 66.5 -11.5t35.5 -31t14 -42.5t3 -46v-261q0 -50 -9.5 -82.5
t-38.5 -48t-88 -15.5z" />
    <glyph glyph-name="uni0453" unicode="&#x453;" horiz-adv-x="291" 
d="M68 0v495h213v-16h-197v-479h-16zM141 545l66 86h20l-71 -86h-15z" />
    <glyph glyph-name="uni0454" unicode="&#x454;" horiz-adv-x="350" 
d="M184 -7q-45 0 -70 11.5t-37 30.5t-15 42.5t-3 46.5v248q0 23 3 46t15 42.5t37 31t70 11.5q42 0 66.5 -11.5t35.5 -31t14 -42.5t3 -46v-44h-16v41q0 30 -5.5 57t-27 44t-70.5 17q-52 0 -75 -17t-28.5 -44t-5.5 -57v-111h161v-16h-161v-115q0 -29 5.5 -56.5t28.5 -44.5
t75 -17q49 0 70.5 17t27 44.5t5.5 56.5v40h16v-43q0 -31 -6 -61t-31 -50t-82 -20z" />
    <glyph glyph-name="uni0455" unicode="&#x455;" horiz-adv-x="322" 
d="M160 -6q-52 0 -85 25t-33 80v67h16v-67q0 -44 28.5 -66.5t73.5 -22.5q47 0 75.5 20t28.5 66v38q0 38 -16 59.5t-40.5 35t-52.5 25.5q-31 14 -57 28t-41.5 34.5t-15.5 53.5v34q0 42 32 70t89 28q52 0 85.5 -23.5t33.5 -77.5v-65h-16v59q0 48 -26.5 69.5t-76.5 21.5
t-77.5 -25t-27.5 -66v-18q0 -33 17 -53t41 -32.5t45 -22.5q30 -13 57.5 -28.5t45 -40t17.5 -66.5v-38q0 -39 -17 -61t-44 -31.5t-59 -9.5z" />
    <glyph glyph-name="uni0456" unicode="&#x456;" horiz-adv-x="152" 
d="M68 0v495h16v-495h-16zM76 566q-14 0 -14 14t14 14t14 -14t-14 -14z" />
    <glyph glyph-name="uni0457" unicode="&#x457;" horiz-adv-x="152" 
d="M68 0v495h16v-495h-16zM114 566q-14 0 -14 14t14 14t14 -14t-14 -14zM37 566q-14 0 -14 14t14 14t14 -14t-14 -14z" />
    <glyph glyph-name="uni0458" unicode="&#x458;" horiz-adv-x="154" 
d="M13 -116q-19 0 -34.5 1.5t-14.5 1.5v16q11 -1 23.5 -2.5t26.5 -1.5q32 0 44 21t12 48v527h16v-528q0 -40 -18 -61.5t-55 -21.5zM78 566q-14 0 -14 14t14 14t14 -14t-14 -14z" />
    <glyph glyph-name="uni0459" unicode="&#x459;" horiz-adv-x="551" 
d="M22 0v15q20 0 30.5 17.5t14.5 59.5l35 403h181v-157h109q42 0 66.5 -11.5t35.5 -31t14 -42.5t3 -46v-76q0 -31 -6 -61t-31 -50t-82 -20h-124v479h-152l-33 -387q-1 -13 -4.5 -35t-16 -39.5t-40.5 -17.5zM283 15h105q52 0 74.5 17.5t28 45t5.5 56.5v70q0 30 -5.5 57
t-28 44.5t-74.5 17.5h-105v-308z" />
    <glyph glyph-name="uni045A" unicode="&#x45a;" horiz-adv-x="571" 
d="M68 0v495h16v-223h204v223h15v-157h109q42 0 66.5 -11.5t35.5 -31t14 -42.5t3 -46v-76q0 -31 -6 -61t-31 -50t-82 -20h-124v256h-204v-256h-16zM303 15h105q52 0 74.5 17.5t28 45t5.5 56.5v70q0 30 -5.5 57t-28 44.5t-74.5 17.5h-105v-308z" />
    <glyph glyph-name="uni045B" unicode="&#x45b;" horiz-adv-x="373" 
d="M68 0v532h-51v16h51v82h16v-82h116v-16h-116v-153q11 23 36.5 40.5t72.5 17.5q42 0 66.5 -11.5t35.5 -31t14 -42.5t3 -46v-306h-16v297q0 30 -5 58.5t-26.5 47t-71.5 18.5q-55 0 -80 -27.5t-29 -70.5v-323h-16z" />
    <glyph glyph-name="uni045C" unicode="&#x45c;" horiz-adv-x="318" 
d="M68 0v496h16v-255q30 72 69 123.5t78 82t69 37.5v-16q-31 -10 -61 -35t-54.5 -55.5t-41.5 -59.5l156 -318h-18l-149 304q-18 -32 -32 -62.5t-16 -51.5v-190h-16zM155 545l66 86h20l-71 -86h-15z" />
    <glyph glyph-name="uni045D" unicode="&#x45d;" horiz-adv-x="378" 
d="M68 0v495h16v-471l202 471h24v-495h-16v473l-203 -473h-23zM208 545l-71 86h20l66 -86h-15z" />
    <glyph glyph-name="uni045E" unicode="&#x45e;" horiz-adv-x="297" 
d="M145 546q-43 0 -60 24.5t-17 52.5h16q1 -33 19 -47t43 -14q26 0 49.5 15t23.5 46h16q0 -28 -23 -52.5t-67 -24.5zM52 -115q-15 0 -31 2.5t-18 3.5v14q2 -1 17 -3.5t32 -2.5q16 0 33.5 8t33 29t21.5 60l-121 499h16l113 -468l114 468h16l-121 -496q-13 -52 -36.5 -83
t-68.5 -31z" />
    <glyph glyph-name="uni045F" unicode="&#x45f;" horiz-adv-x="377" 
d="M68 0v495h16v-479h209v479h16v-495h-111v-113h-16v113h-114z" />
    <glyph glyph-name="uni0462" unicode="&#x462;" horiz-adv-x="387" 
d="M84 0v520h-87v16h87v55h16v-55h148v-16h-148v-85h109q42 0 66.5 -11.5t35.5 -31t14 -42.5t3 -46v-173q0 -31 -6 -61t-31 -50t-82 -20h-125zM100 15h105q52 0 74.5 17.5t28 45t5.5 56.5v167q0 30 -5.5 57t-28 44.5t-74.5 17.5h-105v-405z" />
    <glyph glyph-name="uni0463" unicode="&#x463;" horiz-adv-x="351" 
d="M68 0v401h-55v15h55v79h15v-79h111v-15h-111v-63h109q42 0 66.5 -11.5t35.5 -31t14 -42.5t3 -46v-76q0 -31 -6 -61t-31 -50t-82 -20h-124zM83 15h105q52 0 74.5 17.5t28 45t5.5 56.5v70q0 30 -5.5 57t-28 44.5t-74.5 17.5h-105v-308z" />
    <glyph glyph-name="uni046A" unicode="&#x46a;" horiz-adv-x="661" 
d="M41 0l65 226q7 24 18 47t32 37.5t56 14.5h100l-285 251v15h607v-15l-293 -251h90q41 0 63 -13.5t33.5 -36t19.5 -49.5l65 -226h-17l-64 223q-6 21 -15.5 41t-28 32.5t-52.5 12.5h-101v-309h-16v309h-100q-33 0 -52 -12.5t-28.5 -32.5t-15.5 -41l-64 -223h-17zM327 332
l281 243h-556z" />
    <glyph glyph-name="uni046B" unicode="&#x46b;" horiz-adv-x="558" 
d="M44 0l56 189q6 21 14.5 40t24 31t41.5 12h74l-229 207v16h248v96h16v-96h244v-16l-230 -207h73q30 0 46 -12t23.5 -31t13.5 -40l56 -189h-17l-55 187q-7 26 -22 48.5t-47 23.5h-85v-259h-16v259h-88q-31 0 -45.5 -23t-22.5 -49l-56 -187h-17zM48 479l225 -201v201h-225z
M509 479h-220v-199z" />
    <glyph glyph-name="Wgrave" unicode="&#x1e80;" horiz-adv-x="513" 
d="M123 0l-100 591h16l93 -546l116 546h16l114 -556l96 556h16l-102 -591h-19l-113 553l-117 -553h-16zM279 633l-91 75h23l83 -75h-15z" />
    <glyph glyph-name="wgrave" unicode="&#x1e81;" horiz-adv-x="540" 
d="M139 0l-120 495h16l113 -468l114 468h16l113 -468l114 468h16l-121 -495h-18l-112 462l-113 -462h-18zM283 545l-71 86h20l66 -86h-15z" />
    <glyph glyph-name="Wacute" unicode="&#x1e82;" horiz-adv-x="513" 
d="M123 0l-100 591h16l93 -546l116 546h16l114 -556l96 556h16l-102 -591h-19l-113 553l-117 -553h-16zM238 633l83 75h23l-91 -75h-15z" />
    <glyph glyph-name="wacute" unicode="&#x1e83;" horiz-adv-x="540" 
d="M139 0l-120 495h16l113 -468l114 468h16l113 -468l114 468h16l-121 -495h-18l-112 462l-113 -462h-18zM236 545l66 86h20l-71 -86h-15z" />
    <glyph glyph-name="Wdieresis" unicode="&#x1e84;" horiz-adv-x="513" 
d="M123 0l-100 591h16l93 -546l116 546h16l114 -556l96 556h16l-102 -591h-19l-113 553l-117 -553h-16zM298 643q-14 0 -14 14t14 14t14 -14t-14 -14zM221 643q-14 0 -14 14t14 14t14 -14t-14 -14z" />
    <glyph glyph-name="wdieresis" unicode="&#x1e85;" horiz-adv-x="540" 
d="M139 0l-120 495h16l113 -468l114 468h16l113 -468l114 468h16l-121 -495h-18l-112 462l-113 -462h-18zM308 566q-14 0 -14 14t14 14t14 -14t-14 -14zM231 566q-14 0 -14 14t14 14t14 -14t-14 -14z" />
    <glyph glyph-name="uni1E9E" unicode="&#x1e9e;" horiz-adv-x="388" 
d="M76 -59v586q0 23 7.5 37.5t33.5 21.5t79 7q56 0 88.5 -20.5t32.5 -74.5v-41q0 -54 -21.5 -84t-53.5 -33q35 -4 60 -29t25 -67v-125q0 -52 -15 -77.5t-40.5 -33.5t-58.5 -8h-77v15h77q30 0 52 8t34 31t12 69v113q0 38 -15.5 59t-41 29t-55.5 8h-43v16h54q91 0 91 109v34
q0 46 -25.5 66t-79.5 20t-75.5 -7.5t-25 -20.5t-3.5 -30v-578h-16z" />
    <glyph glyph-name="uni1EA0" unicode="&#x1ea0;" horiz-adv-x="365" 
d="M25 0l151 591h13l151 -591h-17l-40 160h-202l-39 -160h-17zM85 176h194l-92 356l-4 17l-4 -17zM183 -80q-14 0 -14 14t14 14t14 -14t-14 -14z" />
    <glyph glyph-name="uni1EA1" unicode="&#x1ea1;" horiz-adv-x="354" 
d="M160 -4q-23 0 -47.5 8t-41.5 32.5t-17 75.5v34q0 32 14.5 56t35 40.5t40 27t28.5 15.5q40 22 62.5 38.5t32.5 34t10 42.5v14q0 34 -14.5 49t-36.5 19t-45 4q-44 0 -65.5 -15t-28 -40t-6.5 -56v-41h-16v43q0 58 23 91.5t93 33.5q54 0 77.5 -14t29 -36.5t5.5 -49.5v-402
h-15v73q-12 -35 -42.5 -56t-75.5 -21zM163 12q44 0 68.5 19t35 52t10.5 74v184q-16 -22 -43.5 -38.5t-56.5 -33.5q-25 -14 -49.5 -29.5t-41 -39.5t-16.5 -62v-26q0 -47 15 -68t37 -26.5t41 -5.5zM181 -80q-14 0 -14 14t14 14t14 -14t-14 -14z" />
    <glyph glyph-name="uni1EA2" unicode="&#x1ea2;" horiz-adv-x="365" 
d="M25 0l151 591h13l151 -591h-17l-40 160h-202l-39 -160h-17zM85 176h194l-92 356l-4 17l-4 -17zM172 620v6q0 18 11.5 26t23 15.5t11.5 21.5v3q0 8 -5.5 15t-23.5 7q-30 0 -36 -22l-13 5q7 31 49 31q44 0 44 -35v-4q0 -18 -11.5 -27.5t-23 -16t-11.5 -17.5v-8h-15z" />
    <glyph glyph-name="uni1EA3" unicode="&#x1ea3;" horiz-adv-x="354" 
d="M160 -4q-23 0 -47.5 8t-41.5 32.5t-17 75.5v34q0 32 14.5 56t35 40.5t40 27t28.5 15.5q40 22 62.5 38.5t32.5 34t10 42.5v14q0 34 -14.5 49t-36.5 19t-45 4q-44 0 -65.5 -15t-28 -40t-6.5 -56v-41h-16v43q0 58 23 91.5t93 33.5q54 0 77.5 -14t29 -36.5t5.5 -49.5v-402
h-15v73q-12 -35 -42.5 -56t-75.5 -21zM163 12q44 0 68.5 19t35 52t10.5 74v184q-16 -22 -43.5 -38.5t-56.5 -33.5q-25 -14 -49.5 -29.5t-41 -39.5t-16.5 -62v-26q0 -47 15 -68t37 -26.5t41 -5.5zM175 539v7q0 20 12.5 29t25 17.5t12.5 24.5v4q0 8 -6 16.5t-26 8.5
q-33 0 -39 -25l-15 5q4 17 16.5 26.5t37.5 9.5q48 0 48 -40v-5q0 -21 -12.5 -31.5t-25 -17.5t-12.5 -20v-9h-16z" />
    <glyph glyph-name="uni1EA4" unicode="&#x1ea4;" horiz-adv-x="365" 
d="M25 0l151 591h13l151 -591h-17l-40 160h-202l-39 -160h-17zM85 176h194l-92 356l-4 17l-4 -17zM98 624l83 86h15l81 -86h-20l-69 72l-72 -72h-18zM261 702l83 75h23l-91 -75h-15z" />
    <glyph glyph-name="uni1EA5" unicode="&#x1ea5;" horiz-adv-x="354" 
d="M160 -4q-23 0 -47.5 8t-41.5 32.5t-17 75.5v34q0 32 14.5 56t35 40.5t40 27t28.5 15.5q40 22 62.5 38.5t32.5 34t10 42.5v14q0 34 -14.5 49t-36.5 19t-45 4q-44 0 -65.5 -15t-28 -40t-6.5 -56v-41h-16v43q0 58 23 91.5t93 33.5q54 0 77.5 -14t29 -36.5t5.5 -49.5v-402
h-15v73q-12 -35 -42.5 -56t-75.5 -21zM163 12q44 0 68.5 19t35 52t10.5 74v184q-16 -22 -43.5 -38.5t-56.5 -33.5q-25 -14 -49.5 -29.5t-41 -39.5t-16.5 -62v-26q0 -47 15 -68t37 -26.5t41 -5.5zM91 546l83 86h15l81 -86h-20l-69 72l-72 -72h-18zM240 627l66 86h20l-71 -86
h-15z" />
    <glyph glyph-name="uni1EA6" unicode="&#x1ea6;" horiz-adv-x="365" 
d="M25 0l151 591h13l151 -591h-17l-40 160h-202l-39 -160h-17zM85 176h194l-92 356l-4 17l-4 -17zM98 624l83 86h15l81 -86h-20l-69 72l-72 -72h-18zM274 706l-91 75h23l83 -75h-15z" />
    <glyph glyph-name="uni1EA7" unicode="&#x1ea7;" horiz-adv-x="354" 
d="M160 -4q-23 0 -47.5 8t-41.5 32.5t-17 75.5v34q0 32 14.5 56t35 40.5t40 27t28.5 15.5q40 22 62.5 38.5t32.5 34t10 42.5v14q0 34 -14.5 49t-36.5 19t-45 4q-44 0 -65.5 -15t-28 -40t-6.5 -56v-41h-16v43q0 58 23 91.5t93 33.5q54 0 77.5 -14t29 -36.5t5.5 -49.5v-402
h-15v73q-12 -35 -42.5 -56t-75.5 -21zM163 12q44 0 68.5 19t35 52t10.5 74v184q-16 -22 -43.5 -38.5t-56.5 -33.5q-25 -14 -49.5 -29.5t-41 -39.5t-16.5 -62v-26q0 -47 15 -68t37 -26.5t41 -5.5zM91 546l83 86h15l81 -86h-20l-69 72l-72 -72h-18zM259 631l-71 86h20l66 -86
h-15z" />
    <glyph glyph-name="uni1EA8" unicode="&#x1ea8;" horiz-adv-x="365" 
d="M25 0l151 591h13l151 -591h-17l-40 160h-202l-39 -160h-17zM85 176h194l-92 356l-4 17l-4 -17zM98 624l83 86h15l81 -86h-20l-69 72l-72 -72h-18zM272 683v6q0 18 11.5 26t23 15.5t11.5 21.5v3q0 8 -5.5 15t-23.5 7q-30 0 -36 -22l-13 5q7 31 49 31q44 0 44 -35v-4
q0 -18 -11.5 -27.5t-23 -16t-11.5 -17.5v-8h-15z" />
    <glyph glyph-name="uni1EA9" unicode="&#x1ea9;" horiz-adv-x="354" 
d="M160 -4q-23 0 -47.5 8t-41.5 32.5t-17 75.5v34q0 32 14.5 56t35 40.5t40 27t28.5 15.5q40 22 62.5 38.5t32.5 34t10 42.5v14q0 34 -14.5 49t-36.5 19t-45 4q-44 0 -65.5 -15t-28 -40t-6.5 -56v-41h-16v43q0 58 23 91.5t93 33.5q54 0 77.5 -14t29 -36.5t5.5 -49.5v-402
h-15v73q-12 -35 -42.5 -56t-75.5 -21zM163 12q44 0 68.5 19t35 52t10.5 74v184q-16 -22 -43.5 -38.5t-56.5 -33.5q-25 -14 -49.5 -29.5t-41 -39.5t-16.5 -62v-26q0 -47 15 -68t37 -26.5t41 -5.5zM91 546l83 86h15l81 -86h-20l-69 72l-72 -72h-18zM268 615v7q0 20 12.5 29
t25 17.5t12.5 24.5v4q0 8 -6 16.5t-26 8.5q-33 0 -39 -25l-15 5q4 17 16.5 26.5t37.5 9.5q48 0 48 -40v-5q0 -21 -12.5 -31.5t-25 -17.5t-12.5 -20v-9h-16z" />
    <glyph glyph-name="uni1EAA" unicode="&#x1eaa;" horiz-adv-x="365" 
d="M25 0l151 591h13l151 -591h-17l-40 160h-202l-39 -160h-17zM85 176h194l-92 356l-4 17l-4 -17zM98 624l83 86h15l81 -86h-20l-69 72l-72 -72h-18zM233 732q-17 0 -30 7.5t-24.5 15t-25.5 7.5q-9 0 -17.5 -4.5t-10.5 -21.5h-15q2 17 13 29t30 12q17 0 29 -7.5t23.5 -15
t27.5 -7.5q10 0 19 5t11 22h15q-3 -19 -14.5 -30.5t-30.5 -11.5z" />
    <glyph glyph-name="uni1EAB" unicode="&#x1eab;" horiz-adv-x="354" 
d="M160 -4q-23 0 -47.5 8t-41.5 32.5t-17 75.5v34q0 32 14.5 56t35 40.5t40 27t28.5 15.5q40 22 62.5 38.5t32.5 34t10 42.5v14q0 34 -14.5 49t-36.5 19t-45 4q-44 0 -65.5 -15t-28 -40t-6.5 -56v-41h-16v43q0 58 23 91.5t93 33.5q54 0 77.5 -14t29 -36.5t5.5 -49.5v-402
h-15v73q-12 -35 -42.5 -56t-75.5 -21zM163 12q44 0 68.5 19t35 52t10.5 74v184q-16 -22 -43.5 -38.5t-56.5 -33.5q-25 -14 -49.5 -29.5t-41 -39.5t-16.5 -62v-26q0 -47 15 -68t37 -26.5t41 -5.5zM91 546l83 86h15l81 -86h-20l-69 72l-72 -72h-18zM225 665q-17 0 -30 7.5
t-24.5 15t-25.5 7.5q-9 0 -17.5 -4.5t-10.5 -21.5h-15q2 17 13 29t30 12q17 0 29 -7.5t23.5 -15t27.5 -7.5q10 0 19 5t11 22h15q-3 -19 -14.5 -30.5t-30.5 -11.5z" />
    <glyph glyph-name="uni1EAC" unicode="&#x1eac;" horiz-adv-x="365" 
d="M25 0l151 591h13l151 -591h-17l-40 160h-202l-39 -160h-17zM85 176h194l-92 356l-4 17l-4 -17zM183 -80q-14 0 -14 14t14 14t14 -14t-14 -14zM93 624l83 86h15l81 -86h-20l-69 72l-72 -72h-18z" />
    <glyph glyph-name="uni1EAD" unicode="&#x1ead;" horiz-adv-x="354" 
d="M160 -4q-23 0 -47.5 8t-41.5 32.5t-17 75.5v34q0 32 14.5 56t35 40.5t40 27t28.5 15.5q40 22 62.5 38.5t32.5 34t10 42.5v14q0 34 -14.5 49t-36.5 19t-45 4q-44 0 -65.5 -15t-28 -40t-6.5 -56v-41h-16v43q0 58 23 91.5t93 33.5q54 0 77.5 -14t29 -36.5t5.5 -49.5v-402
h-15v73q-12 -35 -42.5 -56t-75.5 -21zM163 12q44 0 68.5 19t35 52t10.5 74v184q-16 -22 -43.5 -38.5t-56.5 -33.5q-25 -14 -49.5 -29.5t-41 -39.5t-16.5 -62v-26q0 -47 15 -68t37 -26.5t41 -5.5zM181 -80q-14 0 -14 14t14 14t14 -14t-14 -14zM91 546l83 86h15l81 -86h-20
l-69 72l-72 -72h-18z" />
    <glyph glyph-name="uni1EAE" unicode="&#x1eae;" horiz-adv-x="365" 
d="M25 0l151 591h13l151 -591h-17l-40 160h-202l-39 -160h-17zM85 176h194l-92 356l-4 17l-4 -17zM181 624q-43 0 -60 24.5t-17 52.5h16q1 -33 19 -47t43 -14q26 0 49.5 15t23.5 46h16q0 -28 -23 -52.5t-67 -24.5zM164 714l83 75h23l-91 -75h-15z" />
    <glyph glyph-name="uni1EAF" unicode="&#x1eaf;" horiz-adv-x="354" 
d="M160 -4q-23 0 -47.5 8t-41.5 32.5t-17 75.5v34q0 32 14.5 56t35 40.5t40 27t28.5 15.5q40 22 62.5 38.5t32.5 34t10 42.5v14q0 34 -14.5 49t-36.5 19t-45 4q-44 0 -65.5 -15t-28 -40t-6.5 -56v-41h-16v43q0 58 23 91.5t93 33.5q54 0 77.5 -14t29 -36.5t5.5 -49.5v-402
h-15v73q-12 -35 -42.5 -56t-75.5 -21zM163 12q44 0 68.5 19t35 52t10.5 74v184q-16 -22 -43.5 -38.5t-56.5 -33.5q-25 -14 -49.5 -29.5t-41 -39.5t-16.5 -62v-26q0 -47 15 -68t37 -26.5t41 -5.5zM179 546q-43 0 -60 24.5t-17 52.5h16q1 -33 19 -47t43 -14q26 0 49.5 15
t23.5 46h16q0 -28 -23 -52.5t-67 -24.5zM147 641l66 86h20l-71 -86h-15z" />
    <glyph glyph-name="uni1EB0" unicode="&#x1eb0;" horiz-adv-x="365" 
d="M25 0l151 591h13l151 -591h-17l-40 160h-202l-39 -160h-17zM85 176h194l-92 356l-4 17l-4 -17zM181 624q-43 0 -60 24.5t-17 52.5h16q1 -33 19 -47t43 -14q26 0 49.5 15t23.5 46h16q0 -28 -23 -52.5t-67 -24.5zM205 714l-91 75h23l83 -75h-15z" />
    <glyph glyph-name="uni1EB1" unicode="&#x1eb1;" horiz-adv-x="354" 
d="M160 -4q-23 0 -47.5 8t-41.5 32.5t-17 75.5v34q0 32 14.5 56t35 40.5t40 27t28.5 15.5q40 22 62.5 38.5t32.5 34t10 42.5v14q0 34 -14.5 49t-36.5 19t-45 4q-44 0 -65.5 -15t-28 -40t-6.5 -56v-41h-16v43q0 58 23 91.5t93 33.5q54 0 77.5 -14t29 -36.5t5.5 -49.5v-402
h-15v73q-12 -35 -42.5 -56t-75.5 -21zM163 12q44 0 68.5 19t35 52t10.5 74v184q-16 -22 -43.5 -38.5t-56.5 -33.5q-25 -14 -49.5 -29.5t-41 -39.5t-16.5 -62v-26q0 -47 15 -68t37 -26.5t41 -5.5zM179 546q-43 0 -60 24.5t-17 52.5h16q1 -33 19 -47t43 -14q26 0 49.5 15
t23.5 46h16q0 -28 -23 -52.5t-67 -24.5zM194 641l-71 86h20l66 -86h-15z" />
    <glyph glyph-name="uni1EB2" unicode="&#x1eb2;" horiz-adv-x="365" 
d="M25 0l151 591h13l151 -591h-17l-40 160h-202l-39 -160h-17zM85 176h194l-92 356l-4 17l-4 -17zM181 624q-43 0 -60 24.5t-17 52.5h16q1 -33 19 -47t43 -14q26 0 49.5 15t23.5 46h16q0 -28 -23 -52.5t-67 -24.5zM175 701v6q0 18 11.5 26t23 15.5t11.5 21.5v3q0 8 -5.5 15
t-23.5 7q-30 0 -36 -22l-13 5q7 31 49 31q44 0 44 -35v-4q0 -18 -11.5 -27.5t-23 -16t-11.5 -17.5v-8h-15z" />
    <glyph glyph-name="uni1EB3" unicode="&#x1eb3;" horiz-adv-x="354" 
d="M160 -4q-23 0 -47.5 8t-41.5 32.5t-17 75.5v34q0 32 14.5 56t35 40.5t40 27t28.5 15.5q40 22 62.5 38.5t32.5 34t10 42.5v14q0 34 -14.5 49t-36.5 19t-45 4q-44 0 -65.5 -15t-28 -40t-6.5 -56v-41h-16v43q0 58 23 91.5t93 33.5q54 0 77.5 -14t29 -36.5t5.5 -49.5v-402
h-15v73q-12 -35 -42.5 -56t-75.5 -21zM163 12q44 0 68.5 19t35 52t10.5 74v184q-16 -22 -43.5 -38.5t-56.5 -33.5q-25 -14 -49.5 -29.5t-41 -39.5t-16.5 -62v-26q0 -47 15 -68t37 -26.5t41 -5.5zM179 546q-43 0 -60 24.5t-17 52.5h16q1 -33 19 -47t43 -14q26 0 49.5 15
t23.5 46h16q0 -28 -23 -52.5t-67 -24.5zM175 635v7q0 20 12.5 29t25 17.5t12.5 24.5v4q0 8 -6 16.5t-26 8.5q-33 0 -39 -25l-15 5q4 17 16.5 26.5t37.5 9.5q48 0 48 -40v-5q0 -21 -12.5 -31.5t-25 -17.5t-12.5 -20v-9h-16z" />
    <glyph glyph-name="uni1EB4" unicode="&#x1eb4;" horiz-adv-x="365" 
d="M25 0l151 591h13l151 -591h-17l-40 160h-202l-39 -160h-17zM85 176h194l-92 356l-4 17l-4 -17zM181 624q-43 0 -60 24.5t-17 52.5h16q1 -33 19 -47t43 -14q26 0 49.5 15t23.5 46h16q0 -28 -23 -52.5t-67 -24.5zM225 711q-17 0 -30 7.5t-24.5 15t-25.5 7.5
q-9 0 -17.5 -4.5t-10.5 -21.5h-15q2 17 13 29t30 12q17 0 29 -7.5t23.5 -15t27.5 -7.5q10 0 19 5t11 22h15q-3 -19 -14.5 -30.5t-30.5 -11.5z" />
    <glyph glyph-name="uni1EB5" unicode="&#x1eb5;" horiz-adv-x="354" 
d="M160 -4q-23 0 -47.5 8t-41.5 32.5t-17 75.5v34q0 32 14.5 56t35 40.5t40 27t28.5 15.5q40 22 62.5 38.5t32.5 34t10 42.5v14q0 34 -14.5 49t-36.5 19t-45 4q-44 0 -65.5 -15t-28 -40t-6.5 -56v-41h-16v43q0 58 23 91.5t93 33.5q54 0 77.5 -14t29 -36.5t5.5 -49.5v-402
h-15v73q-12 -35 -42.5 -56t-75.5 -21zM163 12q44 0 68.5 19t35 52t10.5 74v184q-16 -22 -43.5 -38.5t-56.5 -33.5q-25 -14 -49.5 -29.5t-41 -39.5t-16.5 -62v-26q0 -47 15 -68t37 -26.5t41 -5.5zM179 546q-43 0 -60 24.5t-17 52.5h16q1 -33 19 -47t43 -14q26 0 49.5 15
t23.5 46h16q0 -28 -23 -52.5t-67 -24.5zM221 646q-17 0 -30 7.5t-24.5 15t-25.5 7.5q-9 0 -17.5 -4.5t-10.5 -21.5h-15q2 17 13 29t30 12q17 0 29 -7.5t23.5 -15t27.5 -7.5q10 0 19 5t11 22h15q-3 -19 -14.5 -30.5t-30.5 -11.5z" />
    <glyph glyph-name="uni1EB6" unicode="&#x1eb6;" horiz-adv-x="365" 
d="M25 0l151 591h13l151 -591h-17l-40 160h-202l-39 -160h-17zM85 176h194l-92 356l-4 17l-4 -17zM183 -80q-14 0 -14 14t14 14t14 -14t-14 -14zM178 624q-43 0 -60 24.5t-17 52.5h16q1 -33 19 -47t43 -14q26 0 49.5 15t23.5 46h16q0 -28 -23 -52.5t-67 -24.5z" />
    <glyph glyph-name="uni1EB7" unicode="&#x1eb7;" horiz-adv-x="354" 
d="M160 -4q-23 0 -47.5 8t-41.5 32.5t-17 75.5v34q0 32 14.5 56t35 40.5t40 27t28.5 15.5q40 22 62.5 38.5t32.5 34t10 42.5v14q0 34 -14.5 49t-36.5 19t-45 4q-44 0 -65.5 -15t-28 -40t-6.5 -56v-41h-16v43q0 58 23 91.5t93 33.5q54 0 77.5 -14t29 -36.5t5.5 -49.5v-402
h-15v73q-12 -35 -42.5 -56t-75.5 -21zM163 12q44 0 68.5 19t35 52t10.5 74v184q-16 -22 -43.5 -38.5t-56.5 -33.5q-25 -14 -49.5 -29.5t-41 -39.5t-16.5 -62v-26q0 -47 15 -68t37 -26.5t41 -5.5zM181 -80q-14 0 -14 14t14 14t14 -14t-14 -14zM179 546q-43 0 -60 24.5
t-17 52.5h16q1 -33 19 -47t43 -14q26 0 49.5 15t23.5 46h16q0 -28 -23 -52.5t-67 -24.5z" />
    <glyph glyph-name="uni1EB8" unicode="&#x1eb8;" horiz-adv-x="346" 
d="M76 0v591h245v-16h-229v-256h178v-16h-178v-287h229v-16h-245zM198 -80q-14 0 -14 14t14 14t14 -14t-14 -14z" />
    <glyph glyph-name="uni1EB9" unicode="&#x1eb9;" horiz-adv-x="355" 
d="M179 -7q-43 0 -67.5 11.5t-35.5 30.5t-14 42.5t-3 46.5v248q0 31 7 61t32.5 50t80.5 20q56 0 81 -19t31.5 -49t6.5 -63v-109h-223v-136q0 -29 5.5 -56.5t27.5 -44.5t71 -17t70.5 17t27 44t5.5 57v40h16v-43q0 -31 -6 -61t-31 -50t-82 -20zM75 279h207v84q0 35 -5 63
t-26.5 44.5t-71.5 16.5q-44 0 -66.5 -15.5t-30 -43t-7.5 -65.5v-84zM178 -80q-14 0 -14 14t14 14t14 -14t-14 -14z" />
    <glyph glyph-name="uni1EBA" unicode="&#x1eba;" horiz-adv-x="346" 
d="M76 0v591h245v-16h-229v-256h178v-16h-178v-287h229v-16h-245zM188 620v6q0 18 11.5 26t23 15.5t11.5 21.5v3q0 8 -5.5 15t-23.5 7q-30 0 -36 -22l-13 5q7 31 49 31q44 0 44 -35v-4q0 -18 -11.5 -27.5t-23 -16t-11.5 -17.5v-8h-15z" />
    <glyph glyph-name="uni1EBB" unicode="&#x1ebb;" horiz-adv-x="355" 
d="M179 -7q-43 0 -67.5 11.5t-35.5 30.5t-14 42.5t-3 46.5v248q0 31 7 61t32.5 50t80.5 20q56 0 81 -19t31.5 -49t6.5 -63v-109h-223v-136q0 -29 5.5 -56.5t27.5 -44.5t71 -17t70.5 17t27 44t5.5 57v40h16v-43q0 -31 -6 -61t-31 -50t-82 -20zM75 279h207v84q0 35 -5 63
t-26.5 44.5t-71.5 16.5q-44 0 -66.5 -15.5t-30 -43t-7.5 -65.5v-84zM178 539v7q0 20 12.5 29t25 17.5t12.5 24.5v4q0 8 -6 16.5t-26 8.5q-33 0 -39 -25l-15 5q4 17 16.5 26.5t37.5 9.5q48 0 48 -40v-5q0 -21 -12.5 -31.5t-25 -17.5t-12.5 -20v-9h-16z" />
    <glyph glyph-name="uni1EBC" unicode="&#x1ebc;" horiz-adv-x="346" 
d="M76 0v591h245v-16h-229v-256h178v-16h-178v-287h229v-16h-245zM238 630q-17 0 -30 7.5t-24.5 15t-25.5 7.5q-9 0 -17.5 -4.5t-10.5 -21.5h-15q2 17 13 29t30 12q17 0 29 -7.5t23.5 -15t27.5 -7.5q10 0 19 5t11 22h15q-3 -19 -14.5 -30.5t-30.5 -11.5z" />
    <glyph glyph-name="uni1EBD" unicode="&#x1ebd;" horiz-adv-x="355" 
d="M179 -7q-43 0 -67.5 11.5t-35.5 30.5t-14 42.5t-3 46.5v248q0 31 7 61t32.5 50t80.5 20q56 0 81 -19t31.5 -49t6.5 -63v-109h-223v-136q0 -29 5.5 -56.5t27.5 -44.5t71 -17t70.5 17t27 44t5.5 57v40h16v-43q0 -31 -6 -61t-31 -50t-82 -20zM75 279h207v84q0 35 -5 63
t-26.5 44.5t-71.5 16.5q-44 0 -66.5 -15.5t-30 -43t-7.5 -65.5v-84zM224 550q-17 0 -30 7.5t-24.5 15t-25.5 7.5q-9 0 -17.5 -4.5t-10.5 -21.5h-15q2 17 13 29t30 12q17 0 29 -7.5t23.5 -15t27.5 -7.5q10 0 19 5t11 22h15q-3 -19 -14.5 -30.5t-30.5 -11.5z" />
    <glyph glyph-name="uni1EBE" unicode="&#x1ebe;" horiz-adv-x="346" 
d="M76 0v591h245v-16h-229v-256h178v-16h-178v-287h229v-16h-245zM114 624l83 86h15l81 -86h-20l-69 72l-72 -72h-18zM277 702l83 75h23l-91 -75h-15z" />
    <glyph glyph-name="uni1EBF" unicode="&#x1ebf;" horiz-adv-x="355" 
d="M179 -7q-43 0 -67.5 11.5t-35.5 30.5t-14 42.5t-3 46.5v248q0 31 7 61t32.5 50t80.5 20q56 0 81 -19t31.5 -49t6.5 -63v-109h-223v-136q0 -29 5.5 -56.5t27.5 -44.5t71 -17t70.5 17t27 44t5.5 57v40h16v-43q0 -31 -6 -61t-31 -50t-82 -20zM75 279h207v84q0 35 -5 63
t-26.5 44.5t-71.5 16.5q-44 0 -66.5 -15.5t-30 -43t-7.5 -65.5v-84zM94 546l83 86h15l81 -86h-20l-69 72l-72 -72h-18zM243 627l66 86h20l-71 -86h-15z" />
    <glyph glyph-name="uni1EC0" unicode="&#x1ec0;" horiz-adv-x="346" 
d="M76 0v591h245v-16h-229v-256h178v-16h-178v-287h229v-16h-245zM114 624l83 86h15l81 -86h-20l-69 72l-72 -72h-18zM290 706l-91 75h23l83 -75h-15z" />
    <glyph glyph-name="uni1EC1" unicode="&#x1ec1;" horiz-adv-x="355" 
d="M179 -7q-43 0 -67.5 11.5t-35.5 30.5t-14 42.5t-3 46.5v248q0 31 7 61t32.5 50t80.5 20q56 0 81 -19t31.5 -49t6.5 -63v-109h-223v-136q0 -29 5.5 -56.5t27.5 -44.5t71 -17t70.5 17t27 44t5.5 57v40h16v-43q0 -31 -6 -61t-31 -50t-82 -20zM75 279h207v84q0 35 -5 63
t-26.5 44.5t-71.5 16.5q-44 0 -66.5 -15.5t-30 -43t-7.5 -65.5v-84zM94 546l83 86h15l81 -86h-20l-69 72l-72 -72h-18zM262 631l-71 86h20l66 -86h-15z" />
    <glyph glyph-name="uni1EC2" unicode="&#x1ec2;" horiz-adv-x="346" 
d="M76 0v591h245v-16h-229v-256h178v-16h-178v-287h229v-16h-245zM114 624l83 86h15l81 -86h-20l-69 72l-72 -72h-18zM288 683v6q0 18 11.5 26t23 15.5t11.5 21.5v3q0 8 -5.5 15t-23.5 7q-30 0 -36 -22l-13 5q7 31 49 31q44 0 44 -35v-4q0 -18 -11.5 -27.5t-23 -16
t-11.5 -17.5v-8h-15z" />
    <glyph glyph-name="uni1EC3" unicode="&#x1ec3;" horiz-adv-x="355" 
d="M179 -7q-43 0 -67.5 11.5t-35.5 30.5t-14 42.5t-3 46.5v248q0 31 7 61t32.5 50t80.5 20q56 0 81 -19t31.5 -49t6.5 -63v-109h-223v-136q0 -29 5.5 -56.5t27.5 -44.5t71 -17t70.5 17t27 44t5.5 57v40h16v-43q0 -31 -6 -61t-31 -50t-82 -20zM75 279h207v84q0 35 -5 63
t-26.5 44.5t-71.5 16.5q-44 0 -66.5 -15.5t-30 -43t-7.5 -65.5v-84zM94 546l83 86h15l81 -86h-20l-69 72l-72 -72h-18zM271 615v7q0 20 12.5 29t25 17.5t12.5 24.5v4q0 8 -6 16.5t-26 8.5q-33 0 -39 -25l-15 5q4 17 16.5 26.5t37.5 9.5q48 0 48 -40v-5q0 -21 -12.5 -31.5
t-25 -17.5t-12.5 -20v-9h-16z" />
    <glyph glyph-name="uni1EC4" unicode="&#x1ec4;" horiz-adv-x="346" 
d="M76 0v591h245v-16h-229v-256h178v-16h-178v-287h229v-16h-245zM114 624l83 86h15l81 -86h-20l-69 72l-72 -72h-18zM249 732q-17 0 -30 7.5t-24.5 15t-25.5 7.5q-9 0 -17.5 -4.5t-10.5 -21.5h-15q2 17 13 29t30 12q17 0 29 -7.5t23.5 -15t27.5 -7.5q10 0 19 5t11 22h15
q-3 -19 -14.5 -30.5t-30.5 -11.5z" />
    <glyph glyph-name="uni1EC5" unicode="&#x1ec5;" horiz-adv-x="355" 
d="M179 -7q-43 0 -67.5 11.5t-35.5 30.5t-14 42.5t-3 46.5v248q0 31 7 61t32.5 50t80.5 20q56 0 81 -19t31.5 -49t6.5 -63v-109h-223v-136q0 -29 5.5 -56.5t27.5 -44.5t71 -17t70.5 17t27 44t5.5 57v40h16v-43q0 -31 -6 -61t-31 -50t-82 -20zM75 279h207v84q0 35 -5 63
t-26.5 44.5t-71.5 16.5q-44 0 -66.5 -15.5t-30 -43t-7.5 -65.5v-84zM94 546l83 86h15l81 -86h-20l-69 72l-72 -72h-18zM228 665q-17 0 -30 7.5t-24.5 15t-25.5 7.5q-9 0 -17.5 -4.5t-10.5 -21.5h-15q2 17 13 29t30 12q17 0 29 -7.5t23.5 -15t27.5 -7.5q10 0 19 5t11 22h15
q-3 -19 -14.5 -30.5t-30.5 -11.5z" />
    <glyph glyph-name="uni1EC6" unicode="&#x1ec6;" horiz-adv-x="346" 
d="M76 0v591h245v-16h-229v-256h178v-16h-178v-287h229v-16h-245zM198 -80q-14 0 -14 14t14 14t14 -14t-14 -14zM109 624l83 86h15l81 -86h-20l-69 72l-72 -72h-18z" />
    <glyph glyph-name="uni1EC7" unicode="&#x1ec7;" horiz-adv-x="355" 
d="M179 -7q-43 0 -67.5 11.5t-35.5 30.5t-14 42.5t-3 46.5v248q0 31 7 61t32.5 50t80.5 20q56 0 81 -19t31.5 -49t6.5 -63v-109h-223v-136q0 -29 5.5 -56.5t27.5 -44.5t71 -17t70.5 17t27 44t5.5 57v40h16v-43q0 -31 -6 -61t-31 -50t-82 -20zM75 279h207v84q0 35 -5 63
t-26.5 44.5t-71.5 16.5q-44 0 -66.5 -15.5t-30 -43t-7.5 -65.5v-84zM178 -80q-14 0 -14 14t14 14t14 -14t-14 -14zM94 546l83 86h15l81 -86h-20l-69 72l-72 -72h-18z" />
    <glyph glyph-name="uni1EC8" unicode="&#x1ec8;" horiz-adv-x="168" 
d="M76 0v591h16v-591h-16zM75 620v6q0 18 11.5 26t23 15.5t11.5 21.5v3q0 8 -5.5 15t-23.5 7q-30 0 -36 -22l-13 5q7 31 49 31q44 0 44 -35v-4q0 -18 -11.5 -27.5t-23 -16t-11.5 -17.5v-8h-15z" />
    <glyph glyph-name="uni1EC9" unicode="&#x1ec9;" horiz-adv-x="152" 
d="M68 0v495h16v-495h-16zM70 539v7q0 20 12.5 29t25 17.5t12.5 24.5v4q0 8 -6 16.5t-26 8.5q-33 0 -39 -25l-15 5q4 17 16.5 26.5t37.5 9.5q48 0 48 -40v-5q0 -21 -12.5 -31.5t-25 -17.5t-12.5 -20v-9h-16z" />
    <glyph glyph-name="uni1ECA" unicode="&#x1eca;" horiz-adv-x="168" 
d="M76 0v591h16v-591h-16zM85 -80q-14 0 -14 14t14 14t14 -14t-14 -14z" />
    <glyph glyph-name="uni1ECB" unicode="&#x1ecb;" horiz-adv-x="152" 
d="M68 0v495h16v-495h-16zM76 566q-14 0 -14 14t14 14t14 -14t-14 -14zM67 -80q-14 0 -14 14t14 14t14 -14t-14 -14z" />
    <glyph glyph-name="uni1ECC" unicode="&#x1ecc;" horiz-adv-x="415" 
d="M206 -12q-73 0 -106 28.5t-33 101.5v351q0 72 33.5 101t107.5 29q77 0 108.5 -30.5t31.5 -99.5v-351q0 -72 -32 -101t-110 -29zM207 4q70 0 97.5 27t27.5 90v345q0 62 -27.5 89.5t-97.5 27.5q-69 0 -96.5 -27t-27.5 -90v-345q0 -64 28.5 -90.5t95.5 -26.5zM207 -80
q-14 0 -14 14t14 14t14 -14t-14 -14z" />
    <glyph glyph-name="uni1ECD" unicode="&#x1ecd;" horiz-adv-x="362" 
d="M179 -7q-43 0 -67.5 11.5t-35.5 30.5t-14 42.5t-3 46.5v248q0 23 3 46t14.5 42.5t36.5 31t70 11.5q55 0 80 -20t32.5 -50t7.5 -61v-248q0 -31 -7.5 -61t-33.5 -50t-83 -20zM179 9q52 0 74.5 18.5t28 46t5.5 53.5v242q0 27 -5.5 54t-27 45.5t-71.5 18.5q-40 0 -62.5 -11
t-32 -28.5t-11.5 -38t-2 -40.5v-242q0 -20 2 -40.5t11 -38t30.5 -28.5t60.5 -11zM180 -80q-14 0 -14 14t14 14t14 -14t-14 -14z" />
    <glyph glyph-name="uni1ECE" unicode="&#x1ece;" horiz-adv-x="415" 
d="M206 -12q-73 0 -106 28.5t-33 101.5v351q0 72 33.5 101t107.5 29q77 0 108.5 -30.5t31.5 -99.5v-351q0 -72 -32 -101t-110 -29zM207 4q70 0 97.5 27t27.5 90v345q0 62 -27.5 89.5t-97.5 27.5q-69 0 -96.5 -27t-27.5 -90v-345q0 -64 28.5 -90.5t95.5 -26.5zM196 620v6
q0 18 11.5 26t23 15.5t11.5 21.5v3q0 8 -5.5 15t-23.5 7q-30 0 -36 -22l-13 5q7 31 49 31q44 0 44 -35v-4q0 -18 -11.5 -27.5t-23 -16t-11.5 -17.5v-8h-15z" />
    <glyph glyph-name="uni1ECF" unicode="&#x1ecf;" horiz-adv-x="362" 
d="M179 -7q-43 0 -67.5 11.5t-35.5 30.5t-14 42.5t-3 46.5v248q0 23 3 46t14.5 42.5t36.5 31t70 11.5q55 0 80 -20t32.5 -50t7.5 -61v-248q0 -31 -7.5 -61t-33.5 -50t-83 -20zM179 9q52 0 74.5 18.5t28 46t5.5 53.5v242q0 27 -5.5 54t-27 45.5t-71.5 18.5q-40 0 -62.5 -11
t-32 -28.5t-11.5 -38t-2 -40.5v-242q0 -20 2 -40.5t11 -38t30.5 -28.5t60.5 -11zM174 539v7q0 20 12.5 29t25 17.5t12.5 24.5v4q0 8 -6 16.5t-26 8.5q-33 0 -39 -25l-15 5q4 17 16.5 26.5t37.5 9.5q48 0 48 -40v-5q0 -21 -12.5 -31.5t-25 -17.5t-12.5 -20v-9h-16z" />
    <glyph glyph-name="uni1ED0" unicode="&#x1ed0;" horiz-adv-x="415" 
d="M206 -12q-73 0 -106 28.5t-33 101.5v351q0 72 33.5 101t107.5 29q77 0 108.5 -30.5t31.5 -99.5v-351q0 -72 -32 -101t-110 -29zM207 4q70 0 97.5 27t27.5 90v345q0 62 -27.5 89.5t-97.5 27.5q-69 0 -96.5 -27t-27.5 -90v-345q0 -64 28.5 -90.5t95.5 -26.5zM122 624l83 86
h15l81 -86h-20l-69 72l-72 -72h-18zM285 702l83 75h23l-91 -75h-15z" />
    <glyph glyph-name="uni1ED1" unicode="&#x1ed1;" horiz-adv-x="362" 
d="M179 -7q-43 0 -67.5 11.5t-35.5 30.5t-14 42.5t-3 46.5v248q0 23 3 46t14.5 42.5t36.5 31t70 11.5q55 0 80 -20t32.5 -50t7.5 -61v-248q0 -31 -7.5 -61t-33.5 -50t-83 -20zM179 9q52 0 74.5 18.5t28 46t5.5 53.5v242q0 27 -5.5 54t-27 45.5t-71.5 18.5q-40 0 -62.5 -11
t-32 -28.5t-11.5 -38t-2 -40.5v-242q0 -20 2 -40.5t11 -38t30.5 -28.5t60.5 -11zM90 546l83 86h15l81 -86h-20l-69 72l-72 -72h-18zM239 627l66 86h20l-71 -86h-15z" />
    <glyph glyph-name="uni1ED2" unicode="&#x1ed2;" horiz-adv-x="415" 
d="M206 -12q-73 0 -106 28.5t-33 101.5v351q0 72 33.5 101t107.5 29q77 0 108.5 -30.5t31.5 -99.5v-351q0 -72 -32 -101t-110 -29zM207 4q70 0 97.5 27t27.5 90v345q0 62 -27.5 89.5t-97.5 27.5q-69 0 -96.5 -27t-27.5 -90v-345q0 -64 28.5 -90.5t95.5 -26.5zM122 624l83 86
h15l81 -86h-20l-69 72l-72 -72h-18zM298 706l-91 75h23l83 -75h-15z" />
    <glyph glyph-name="uni1ED3" unicode="&#x1ed3;" horiz-adv-x="362" 
d="M179 -7q-43 0 -67.5 11.5t-35.5 30.5t-14 42.5t-3 46.5v248q0 23 3 46t14.5 42.5t36.5 31t70 11.5q55 0 80 -20t32.5 -50t7.5 -61v-248q0 -31 -7.5 -61t-33.5 -50t-83 -20zM179 9q52 0 74.5 18.5t28 46t5.5 53.5v242q0 27 -5.5 54t-27 45.5t-71.5 18.5q-40 0 -62.5 -11
t-32 -28.5t-11.5 -38t-2 -40.5v-242q0 -20 2 -40.5t11 -38t30.5 -28.5t60.5 -11zM90 546l83 86h15l81 -86h-20l-69 72l-72 -72h-18zM258 631l-71 86h20l66 -86h-15z" />
    <glyph glyph-name="uni1ED4" unicode="&#x1ed4;" horiz-adv-x="415" 
d="M206 -12q-73 0 -106 28.5t-33 101.5v351q0 72 33.5 101t107.5 29q77 0 108.5 -30.5t31.5 -99.5v-351q0 -72 -32 -101t-110 -29zM207 4q70 0 97.5 27t27.5 90v345q0 62 -27.5 89.5t-97.5 27.5q-69 0 -96.5 -27t-27.5 -90v-345q0 -64 28.5 -90.5t95.5 -26.5zM122 624l83 86
h15l81 -86h-20l-69 72l-72 -72h-18zM296 683v6q0 18 11.5 26t23 15.5t11.5 21.5v3q0 8 -5.5 15t-23.5 7q-30 0 -36 -22l-13 5q7 31 49 31q44 0 44 -35v-4q0 -18 -11.5 -27.5t-23 -16t-11.5 -17.5v-8h-15z" />
    <glyph glyph-name="uni1ED5" unicode="&#x1ed5;" horiz-adv-x="362" 
d="M179 -7q-43 0 -67.5 11.5t-35.5 30.5t-14 42.5t-3 46.5v248q0 23 3 46t14.5 42.5t36.5 31t70 11.5q55 0 80 -20t32.5 -50t7.5 -61v-248q0 -31 -7.5 -61t-33.5 -50t-83 -20zM179 9q52 0 74.5 18.5t28 46t5.5 53.5v242q0 27 -5.5 54t-27 45.5t-71.5 18.5q-40 0 -62.5 -11
t-32 -28.5t-11.5 -38t-2 -40.5v-242q0 -20 2 -40.5t11 -38t30.5 -28.5t60.5 -11zM90 546l83 86h15l81 -86h-20l-69 72l-72 -72h-18zM267 615v7q0 20 12.5 29t25 17.5t12.5 24.5v4q0 8 -6 16.5t-26 8.5q-33 0 -39 -25l-15 5q4 17 16.5 26.5t37.5 9.5q48 0 48 -40v-5
q0 -21 -12.5 -31.5t-25 -17.5t-12.5 -20v-9h-16z" />
    <glyph glyph-name="uni1ED6" unicode="&#x1ed6;" horiz-adv-x="415" 
d="M206 -12q-73 0 -106 28.5t-33 101.5v351q0 72 33.5 101t107.5 29q77 0 108.5 -30.5t31.5 -99.5v-351q0 -72 -32 -101t-110 -29zM207 4q70 0 97.5 27t27.5 90v345q0 62 -27.5 89.5t-97.5 27.5q-69 0 -96.5 -27t-27.5 -90v-345q0 -64 28.5 -90.5t95.5 -26.5zM122 624l83 86
h15l81 -86h-20l-69 72l-72 -72h-18zM257 732q-17 0 -30 7.5t-24.5 15t-25.5 7.5q-9 0 -17.5 -4.5t-10.5 -21.5h-15q2 17 13 29t30 12q17 0 29 -7.5t23.5 -15t27.5 -7.5q10 0 19 5t11 22h15q-3 -19 -14.5 -30.5t-30.5 -11.5z" />
    <glyph glyph-name="uni1ED7" unicode="&#x1ed7;" horiz-adv-x="362" 
d="M179 -7q-43 0 -67.5 11.5t-35.5 30.5t-14 42.5t-3 46.5v248q0 23 3 46t14.5 42.5t36.5 31t70 11.5q55 0 80 -20t32.5 -50t7.5 -61v-248q0 -31 -7.5 -61t-33.5 -50t-83 -20zM179 9q52 0 74.5 18.5t28 46t5.5 53.5v242q0 27 -5.5 54t-27 45.5t-71.5 18.5q-40 0 -62.5 -11
t-32 -28.5t-11.5 -38t-2 -40.5v-242q0 -20 2 -40.5t11 -38t30.5 -28.5t60.5 -11zM90 546l83 86h15l81 -86h-20l-69 72l-72 -72h-18zM224 665q-17 0 -30 7.5t-24.5 15t-25.5 7.5q-9 0 -17.5 -4.5t-10.5 -21.5h-15q2 17 13 29t30 12q17 0 29 -7.5t23.5 -15t27.5 -7.5
q10 0 19 5t11 22h15q-3 -19 -14.5 -30.5t-30.5 -11.5z" />
    <glyph glyph-name="uni1ED8" unicode="&#x1ed8;" horiz-adv-x="415" 
d="M206 -12q-73 0 -106 28.5t-33 101.5v351q0 72 33.5 101t107.5 29q77 0 108.5 -30.5t31.5 -99.5v-351q0 -72 -32 -101t-110 -29zM207 4q70 0 97.5 27t27.5 90v345q0 62 -27.5 89.5t-97.5 27.5q-69 0 -96.5 -27t-27.5 -90v-345q0 -64 28.5 -90.5t95.5 -26.5zM207 -80
q-14 0 -14 14t14 14t14 -14t-14 -14zM117 624l83 86h15l81 -86h-20l-69 72l-72 -72h-18z" />
    <glyph glyph-name="uni1ED9" unicode="&#x1ed9;" horiz-adv-x="362" 
d="M179 -7q-43 0 -67.5 11.5t-35.5 30.5t-14 42.5t-3 46.5v248q0 23 3 46t14.5 42.5t36.5 31t70 11.5q55 0 80 -20t32.5 -50t7.5 -61v-248q0 -31 -7.5 -61t-33.5 -50t-83 -20zM179 9q52 0 74.5 18.5t28 46t5.5 53.5v242q0 27 -5.5 54t-27 45.5t-71.5 18.5q-40 0 -62.5 -11
t-32 -28.5t-11.5 -38t-2 -40.5v-242q0 -20 2 -40.5t11 -38t30.5 -28.5t60.5 -11zM180 -80q-14 0 -14 14t14 14t14 -14t-14 -14zM90 546l83 86h15l81 -86h-20l-69 72l-72 -72h-18z" />
    <glyph glyph-name="uni1EDA" unicode="&#x1eda;" horiz-adv-x="415" 
d="M206 -12q-73 0 -106 28.5t-33 101.5v351q0 72 33.5 101t107.5 29q77 0 108.5 -30.5t31.5 -99.5v-351q0 -72 -32 -101t-110 -29zM207 4q70 0 97.5 27t27.5 90v345q0 62 -27.5 89.5t-97.5 27.5q-69 0 -96.5 -27t-27.5 -90v-345q0 -64 28.5 -90.5t95.5 -26.5zM263 580l-2 11
q30 0 47 12.5t17 41.5v10h16v-9q0 -34 -21.5 -50t-56.5 -16zM185 633l83 75h23l-91 -75h-15z" />
    <glyph glyph-name="uni1EDB" unicode="&#x1edb;" horiz-adv-x="362" 
d="M179 -7q-43 0 -67.5 11.5t-35.5 30.5t-14 42.5t-3 46.5v248q0 23 3 46t14.5 42.5t36.5 31t70 11.5q55 0 80 -20t32.5 -50t7.5 -61v-248q0 -31 -7.5 -61t-33.5 -50t-83 -20zM179 9q52 0 74.5 18.5t28 46t5.5 53.5v242q0 27 -5.5 54t-27 45.5t-71.5 18.5q-40 0 -62.5 -11
t-32 -28.5t-11.5 -38t-2 -40.5v-242q0 -20 2 -40.5t11 -38t30.5 -28.5t60.5 -11zM216 484l-2 11q30 0 47 12.5t17 41.5v10h16v-9q0 -34 -21.5 -50t-56.5 -16zM146 545l66 86h20l-71 -86h-15z" />
    <glyph glyph-name="uni1EDC" unicode="&#x1edc;" horiz-adv-x="415" 
d="M206 -12q-73 0 -106 28.5t-33 101.5v351q0 72 33.5 101t107.5 29q77 0 108.5 -30.5t31.5 -99.5v-351q0 -72 -32 -101t-110 -29zM207 4q70 0 97.5 27t27.5 90v345q0 62 -27.5 89.5t-97.5 27.5q-69 0 -96.5 -27t-27.5 -90v-345q0 -64 28.5 -90.5t95.5 -26.5zM263 580l-2 11
q30 0 47 12.5t17 41.5v10h16v-9q0 -34 -21.5 -50t-56.5 -16zM226 633l-91 75h23l83 -75h-15z" />
    <glyph glyph-name="uni1EDD" unicode="&#x1edd;" horiz-adv-x="362" 
d="M179 -7q-43 0 -67.5 11.5t-35.5 30.5t-14 42.5t-3 46.5v248q0 23 3 46t14.5 42.5t36.5 31t70 11.5q55 0 80 -20t32.5 -50t7.5 -61v-248q0 -31 -7.5 -61t-33.5 -50t-83 -20zM179 9q52 0 74.5 18.5t28 46t5.5 53.5v242q0 27 -5.5 54t-27 45.5t-71.5 18.5q-40 0 -62.5 -11
t-32 -28.5t-11.5 -38t-2 -40.5v-242q0 -20 2 -40.5t11 -38t30.5 -28.5t60.5 -11zM216 484l-2 11q30 0 47 12.5t17 41.5v10h16v-9q0 -34 -21.5 -50t-56.5 -16zM193 545l-71 86h20l66 -86h-15z" />
    <glyph glyph-name="uni1EDE" unicode="&#x1ede;" horiz-adv-x="415" 
d="M206 -12q-73 0 -106 28.5t-33 101.5v351q0 72 33.5 101t107.5 29q77 0 108.5 -30.5t31.5 -99.5v-351q0 -72 -32 -101t-110 -29zM207 4q70 0 97.5 27t27.5 90v345q0 62 -27.5 89.5t-97.5 27.5q-69 0 -96.5 -27t-27.5 -90v-345q0 -64 28.5 -90.5t95.5 -26.5zM263 580l-2 11
q30 0 47 12.5t17 41.5v10h16v-9q0 -34 -21.5 -50t-56.5 -16zM196 620v6q0 18 11.5 26t23 15.5t11.5 21.5v3q0 8 -5.5 15t-23.5 7q-30 0 -36 -22l-13 5q7 31 49 31q44 0 44 -35v-4q0 -18 -11.5 -27.5t-23 -16t-11.5 -17.5v-8h-15z" />
    <glyph glyph-name="uni1EDF" unicode="&#x1edf;" horiz-adv-x="362" 
d="M179 -7q-43 0 -67.5 11.5t-35.5 30.5t-14 42.5t-3 46.5v248q0 23 3 46t14.5 42.5t36.5 31t70 11.5q55 0 80 -20t32.5 -50t7.5 -61v-248q0 -31 -7.5 -61t-33.5 -50t-83 -20zM179 9q52 0 74.5 18.5t28 46t5.5 53.5v242q0 27 -5.5 54t-27 45.5t-71.5 18.5q-40 0 -62.5 -11
t-32 -28.5t-11.5 -38t-2 -40.5v-242q0 -20 2 -40.5t11 -38t30.5 -28.5t60.5 -11zM216 484l-2 11q30 0 47 12.5t17 41.5v10h16v-9q0 -34 -21.5 -50t-56.5 -16zM174 539v7q0 20 12.5 29t25 17.5t12.5 24.5v4q0 8 -6 16.5t-26 8.5q-33 0 -39 -25l-15 5q4 17 16.5 26.5t37.5 9.5
q48 0 48 -40v-5q0 -21 -12.5 -31.5t-25 -17.5t-12.5 -20v-9h-16z" />
    <glyph glyph-name="uni1EE0" unicode="&#x1ee0;" horiz-adv-x="415" 
d="M206 -12q-73 0 -106 28.5t-33 101.5v351q0 72 33.5 101t107.5 29q77 0 108.5 -30.5t31.5 -99.5v-351q0 -72 -32 -101t-110 -29zM207 4q70 0 97.5 27t27.5 90v345q0 62 -27.5 89.5t-97.5 27.5q-69 0 -96.5 -27t-27.5 -90v-345q0 -64 28.5 -90.5t95.5 -26.5zM263 580l-2 11
q30 0 47 12.5t17 41.5v10h16v-9q0 -34 -21.5 -50t-56.5 -16zM246 630q-17 0 -30 7.5t-24.5 15t-25.5 7.5q-9 0 -17.5 -4.5t-10.5 -21.5h-15q2 17 13 29t30 12q17 0 29 -7.5t23.5 -15t27.5 -7.5q10 0 19 5t11 22h15q-3 -19 -14.5 -30.5t-30.5 -11.5z" />
    <glyph glyph-name="uni1EE1" unicode="&#x1ee1;" horiz-adv-x="362" 
d="M179 -7q-43 0 -67.5 11.5t-35.5 30.5t-14 42.5t-3 46.5v248q0 23 3 46t14.5 42.5t36.5 31t70 11.5q55 0 80 -20t32.5 -50t7.5 -61v-248q0 -31 -7.5 -61t-33.5 -50t-83 -20zM179 9q52 0 74.5 18.5t28 46t5.5 53.5v242q0 27 -5.5 54t-27 45.5t-71.5 18.5q-40 0 -62.5 -11
t-32 -28.5t-11.5 -38t-2 -40.5v-242q0 -20 2 -40.5t11 -38t30.5 -28.5t60.5 -11zM216 484l-2 11q30 0 47 12.5t17 41.5v10h16v-9q0 -34 -21.5 -50t-56.5 -16zM220 550q-17 0 -30 7.5t-24.5 15t-25.5 7.5q-9 0 -17.5 -4.5t-10.5 -21.5h-15q2 17 13 29t30 12q17 0 29 -7.5
t23.5 -15t27.5 -7.5q10 0 19 5t11 22h15q-3 -19 -14.5 -30.5t-30.5 -11.5z" />
    <glyph glyph-name="uni1EE2" unicode="&#x1ee2;" horiz-adv-x="415" 
d="M206 -12q-73 0 -106 28.5t-33 101.5v351q0 72 33.5 101t107.5 29q77 0 108.5 -30.5t31.5 -99.5v-351q0 -72 -32 -101t-110 -29zM207 4q70 0 97.5 27t27.5 90v345q0 62 -27.5 89.5t-97.5 27.5q-69 0 -96.5 -27t-27.5 -90v-345q0 -64 28.5 -90.5t95.5 -26.5zM263 580l-2 11
q30 0 47 12.5t17 41.5v10h16v-9q0 -34 -21.5 -50t-56.5 -16zM207 -80q-14 0 -14 14t14 14t14 -14t-14 -14z" />
    <glyph glyph-name="uni1EE3" unicode="&#x1ee3;" horiz-adv-x="362" 
d="M179 -7q-43 0 -67.5 11.5t-35.5 30.5t-14 42.5t-3 46.5v248q0 23 3 46t14.5 42.5t36.5 31t70 11.5q55 0 80 -20t32.5 -50t7.5 -61v-248q0 -31 -7.5 -61t-33.5 -50t-83 -20zM179 9q52 0 74.5 18.5t28 46t5.5 53.5v242q0 27 -5.5 54t-27 45.5t-71.5 18.5q-40 0 -62.5 -11
t-32 -28.5t-11.5 -38t-2 -40.5v-242q0 -20 2 -40.5t11 -38t30.5 -28.5t60.5 -11zM216 484l-2 11q30 0 47 12.5t17 41.5v10h16v-9q0 -34 -21.5 -50t-56.5 -16zM180 -80q-14 0 -14 14t14 14t14 -14t-14 -14z" />
    <glyph glyph-name="uni1EE4" unicode="&#x1ee4;" horiz-adv-x="429" 
d="M209 -9q-37 0 -68 9t-49 35t-18 78v478h16v-475q0 -46 17 -69.5t44.5 -31.5t57.5 -8q31 0 60.5 8t49.5 31.5t20 69.5v475h16v-478q0 -52 -20.5 -78t-54 -35t-71.5 -9zM209 -80q-14 0 -14 14t14 14t14 -14t-14 -14z" />
    <glyph glyph-name="uni1EE5" unicode="&#x1ee5;" horiz-adv-x="380" 
d="M187 -8q-42 0 -66.5 11.5t-35.5 31t-14 42.5t-3 46v372h16v-363q0 -29 5 -58t26.5 -47.5t71.5 -18.5q55 0 80 27.5t29 70.5v389h16v-495h-14l-2 50q-11 -23 -36.5 -40.5t-72.5 -17.5zM190 -80q-14 0 -14 14t14 14t14 -14t-14 -14z" />
    <glyph glyph-name="uni1EE6" unicode="&#x1ee6;" horiz-adv-x="429" 
d="M209 -9q-37 0 -68 9t-49 35t-18 78v478h16v-475q0 -46 17 -69.5t44.5 -31.5t57.5 -8q31 0 60.5 8t49.5 31.5t20 69.5v475h16v-478q0 -52 -20.5 -78t-54 -35t-71.5 -9zM205 620v6q0 18 11.5 26t23 15.5t11.5 21.5v3q0 8 -5.5 15t-23.5 7q-30 0 -36 -22l-13 5q7 31 49 31
q44 0 44 -35v-4q0 -18 -11.5 -27.5t-23 -16t-11.5 -17.5v-8h-15z" />
    <glyph glyph-name="uni1EE7" unicode="&#x1ee7;" horiz-adv-x="380" 
d="M187 -8q-42 0 -66.5 11.5t-35.5 31t-14 42.5t-3 46v372h16v-363q0 -29 5 -58t26.5 -47.5t71.5 -18.5q55 0 80 27.5t29 70.5v389h16v-495h-14l-2 50q-11 -23 -36.5 -40.5t-72.5 -17.5zM184 539v7q0 20 12.5 29t25 17.5t12.5 24.5v4q0 8 -6 16.5t-26 8.5q-33 0 -39 -25
l-15 5q4 17 16.5 26.5t37.5 9.5q48 0 48 -40v-5q0 -21 -12.5 -31.5t-25 -17.5t-12.5 -20v-9h-16z" />
    <glyph glyph-name="uni1EE8" unicode="&#x1ee8;" horiz-adv-x="429" 
d="M209 -9q-37 0 -68 9t-49 35t-18 78v478h16v-475q0 -46 17 -69.5t44.5 -31.5t57.5 -8q31 0 60.5 8t49.5 31.5t20 69.5v475h16v-478q0 -52 -20.5 -78t-54 -35t-71.5 -9zM351 580l-2 11q30 0 47 12.5t17 41.5v10h16v-9q0 -34 -21.5 -50t-56.5 -16zM194 633l83 75h23l-91 -75
h-15z" />
    <glyph glyph-name="uni1EE9" unicode="&#x1ee9;" horiz-adv-x="380" 
d="M187 -8q-42 0 -66.5 11.5t-35.5 31t-14 42.5t-3 46v372h16v-363q0 -29 5 -58t26.5 -47.5t71.5 -18.5q55 0 80 27.5t29 70.5v389h16v-495h-14l-2 50q-11 -23 -36.5 -40.5t-72.5 -17.5zM298 484l-2 11q30 0 47 12.5t17 41.5v10h16v-9q0 -34 -21.5 -50t-56.5 -16zM156 545
l66 86h20l-71 -86h-15z" />
    <glyph glyph-name="uni1EEA" unicode="&#x1eea;" horiz-adv-x="429" 
d="M209 -9q-37 0 -68 9t-49 35t-18 78v478h16v-475q0 -46 17 -69.5t44.5 -31.5t57.5 -8q31 0 60.5 8t49.5 31.5t20 69.5v475h16v-478q0 -52 -20.5 -78t-54 -35t-71.5 -9zM351 580l-2 11q30 0 47 12.5t17 41.5v10h16v-9q0 -34 -21.5 -50t-56.5 -16zM235 633l-91 75h23l83 -75
h-15z" />
    <glyph glyph-name="uni1EEB" unicode="&#x1eeb;" horiz-adv-x="380" 
d="M187 -8q-42 0 -66.5 11.5t-35.5 31t-14 42.5t-3 46v372h16v-363q0 -29 5 -58t26.5 -47.5t71.5 -18.5q55 0 80 27.5t29 70.5v389h16v-495h-14l-2 50q-11 -23 -36.5 -40.5t-72.5 -17.5zM298 484l-2 11q30 0 47 12.5t17 41.5v10h16v-9q0 -34 -21.5 -50t-56.5 -16zM203 545
l-71 86h20l66 -86h-15z" />
    <glyph glyph-name="uni1EEC" unicode="&#x1eec;" horiz-adv-x="429" 
d="M209 -9q-37 0 -68 9t-49 35t-18 78v478h16v-475q0 -46 17 -69.5t44.5 -31.5t57.5 -8q31 0 60.5 8t49.5 31.5t20 69.5v475h16v-478q0 -52 -20.5 -78t-54 -35t-71.5 -9zM351 580l-2 11q30 0 47 12.5t17 41.5v10h16v-9q0 -34 -21.5 -50t-56.5 -16zM205 620v6q0 18 11.5 26
t23 15.5t11.5 21.5v3q0 8 -5.5 15t-23.5 7q-30 0 -36 -22l-13 5q7 31 49 31q44 0 44 -35v-4q0 -18 -11.5 -27.5t-23 -16t-11.5 -17.5v-8h-15z" />
    <glyph glyph-name="uni1EED" unicode="&#x1eed;" horiz-adv-x="380" 
d="M187 -8q-42 0 -66.5 11.5t-35.5 31t-14 42.5t-3 46v372h16v-363q0 -29 5 -58t26.5 -47.5t71.5 -18.5q55 0 80 27.5t29 70.5v389h16v-495h-14l-2 50q-11 -23 -36.5 -40.5t-72.5 -17.5zM298 484l-2 11q30 0 47 12.5t17 41.5v10h16v-9q0 -34 -21.5 -50t-56.5 -16zM184 539v7
q0 20 12.5 29t25 17.5t12.5 24.5v4q0 8 -6 16.5t-26 8.5q-33 0 -39 -25l-15 5q4 17 16.5 26.5t37.5 9.5q48 0 48 -40v-5q0 -21 -12.5 -31.5t-25 -17.5t-12.5 -20v-9h-16z" />
    <glyph glyph-name="uni1EEE" unicode="&#x1eee;" horiz-adv-x="429" 
d="M209 -9q-37 0 -68 9t-49 35t-18 78v478h16v-475q0 -46 17 -69.5t44.5 -31.5t57.5 -8q31 0 60.5 8t49.5 31.5t20 69.5v475h16v-478q0 -52 -20.5 -78t-54 -35t-71.5 -9zM351 580l-2 11q30 0 47 12.5t17 41.5v10h16v-9q0 -34 -21.5 -50t-56.5 -16zM255 630q-17 0 -30 7.5
t-24.5 15t-25.5 7.5q-9 0 -17.5 -4.5t-10.5 -21.5h-15q2 17 13 29t30 12q17 0 29 -7.5t23.5 -15t27.5 -7.5q10 0 19 5t11 22h15q-3 -19 -14.5 -30.5t-30.5 -11.5z" />
    <glyph glyph-name="uni1EEF" unicode="&#x1eef;" horiz-adv-x="380" 
d="M187 -8q-42 0 -66.5 11.5t-35.5 31t-14 42.5t-3 46v372h16v-363q0 -29 5 -58t26.5 -47.5t71.5 -18.5q55 0 80 27.5t29 70.5v389h16v-495h-14l-2 50q-11 -23 -36.5 -40.5t-72.5 -17.5zM298 484l-2 11q30 0 47 12.5t17 41.5v10h16v-9q0 -34 -21.5 -50t-56.5 -16zM230 550
q-17 0 -30 7.5t-24.5 15t-25.5 7.5q-9 0 -17.5 -4.5t-10.5 -21.5h-15q2 17 13 29t30 12q17 0 29 -7.5t23.5 -15t27.5 -7.5q10 0 19 5t11 22h15q-3 -19 -14.5 -30.5t-30.5 -11.5z" />
    <glyph glyph-name="uni1EF0" unicode="&#x1ef0;" horiz-adv-x="429" 
d="M209 -9q-37 0 -68 9t-49 35t-18 78v478h16v-475q0 -46 17 -69.5t44.5 -31.5t57.5 -8q31 0 60.5 8t49.5 31.5t20 69.5v475h16v-478q0 -52 -20.5 -78t-54 -35t-71.5 -9zM351 580l-2 11q30 0 47 12.5t17 41.5v10h16v-9q0 -34 -21.5 -50t-56.5 -16zM209 -80q-14 0 -14 14
t14 14t14 -14t-14 -14z" />
    <glyph glyph-name="uni1EF1" unicode="&#x1ef1;" horiz-adv-x="380" 
d="M187 -8q-42 0 -66.5 11.5t-35.5 31t-14 42.5t-3 46v372h16v-363q0 -29 5 -58t26.5 -47.5t71.5 -18.5q55 0 80 27.5t29 70.5v389h16v-495h-14l-2 50q-11 -23 -36.5 -40.5t-72.5 -17.5zM298 484l-2 11q30 0 47 12.5t17 41.5v10h16v-9q0 -34 -21.5 -50t-56.5 -16zM190 -80
q-14 0 -14 14t14 14t14 -14t-14 -14z" />
    <glyph glyph-name="Ygrave" unicode="&#x1ef2;" horiz-adv-x="290" 
d="M130 0v253l-109 338h17l101 -316l113 316h17l-123 -338v-253h-16zM160 633l-91 75h23l83 -75h-15z" />
    <glyph glyph-name="ygrave" unicode="&#x1ef3;" horiz-adv-x="298" 
d="M53 -115q-15 0 -31 2.5t-18 3.5v14q2 -1 17 -3.5t32 -2.5q16 0 33.5 8t33 29t21.5 60l-121 499h16l113 -468l114 468h16l-121 -496q-13 -52 -36.5 -83t-68.5 -31zM161 545l-71 86h20l66 -86h-15z" />
    <glyph glyph-name="uni1EF4" unicode="&#x1ef4;" horiz-adv-x="290" 
d="M130 0v253l-109 338h17l101 -316l113 316h17l-123 -338v-253h-16zM139 -80q-14 0 -14 14t14 14t14 -14t-14 -14z" />
    <glyph glyph-name="uni1EF5" unicode="&#x1ef5;" horiz-adv-x="298" 
d="M53 -115q-15 0 -31 2.5t-18 3.5v14q2 -1 17 -3.5t32 -2.5q16 0 33.5 8t33 29t21.5 60l-121 499h16l113 -468l114 468h16l-121 -496q-13 -52 -36.5 -83t-68.5 -31zM203 -80q-14 0 -14 14t14 14t14 -14t-14 -14z" />
    <glyph glyph-name="uni1EF6" unicode="&#x1ef6;" horiz-adv-x="290" 
d="M130 0v253l-109 338h17l101 -316l113 316h17l-123 -338v-253h-16zM130 620v6q0 18 11.5 26t23 15.5t11.5 21.5v3q0 8 -5.5 15t-23.5 7q-30 0 -36 -22l-13 5q7 31 49 31q44 0 44 -35v-4q0 -18 -11.5 -27.5t-23 -16t-11.5 -17.5v-8h-15z" />
    <glyph glyph-name="uni1EF7" unicode="&#x1ef7;" horiz-adv-x="298" 
d="M53 -115q-15 0 -31 2.5t-18 3.5v14q2 -1 17 -3.5t32 -2.5q16 0 33.5 8t33 29t21.5 60l-121 499h16l113 -468l114 468h16l-121 -496q-13 -52 -36.5 -83t-68.5 -31zM142 539v7q0 20 12.5 29t25 17.5t12.5 24.5v4q0 8 -6 16.5t-26 8.5q-33 0 -39 -25l-15 5q4 17 16.5 26.5
t37.5 9.5q48 0 48 -40v-5q0 -21 -12.5 -31.5t-25 -17.5t-12.5 -20v-9h-16z" />
    <glyph glyph-name="uni1EF8" unicode="&#x1ef8;" horiz-adv-x="290" 
d="M130 0v253l-109 338h17l101 -316l113 316h17l-123 -338v-253h-16zM180 630q-17 0 -30 7.5t-24.5 15t-25.5 7.5q-9 0 -17.5 -4.5t-10.5 -21.5h-15q2 17 13 29t30 12q17 0 29 -7.5t23.5 -15t27.5 -7.5q10 0 19 5t11 22h15q-3 -19 -14.5 -30.5t-30.5 -11.5z" />
    <glyph glyph-name="uni1EF9" unicode="&#x1ef9;" horiz-adv-x="298" 
d="M53 -115q-15 0 -31 2.5t-18 3.5v14q2 -1 17 -3.5t32 -2.5q16 0 33.5 8t33 29t21.5 60l-121 499h16l113 -468l114 468h16l-121 -496q-13 -52 -36.5 -83t-68.5 -31zM188 550q-17 0 -30 7.5t-24.5 15t-25.5 7.5q-9 0 -17.5 -4.5t-10.5 -21.5h-15q2 17 13 29t30 12
q17 0 29 -7.5t23.5 -15t27.5 -7.5q10 0 19 5t11 22h15q-3 -19 -14.5 -30.5t-30.5 -11.5z" />
    <glyph glyph-name="uni2010" unicode="&#x2010;" horiz-adv-x="269" 
d="M45 244v16h179v-16h-179z" />
    <glyph glyph-name="endash" unicode="&#x2013;" horiz-adv-x="364" 
d="M45 244v16h274v-16h-274z" />
    <glyph glyph-name="emdash" unicode="&#x2014;" horiz-adv-x="455" 
d="M45 244v16h365v-16h-365z" />
    <glyph glyph-name="uni2015" unicode="&#x2015;" horiz-adv-x="455" 
d="M45 244v16h365v-16h-365z" />
    <glyph glyph-name="quoteleft" unicode="&#x2018;" horiz-adv-x="132" 
d="M64 480q-11 0 -16 7.5t-5 17.5q0 20 11 46t24 45h13q-6 -10 -15.5 -30t-9.5 -34q0 -10 7.5 -14t7.5 -19q0 -7 -4.5 -13t-12.5 -6z" />
    </font>
</defs>
</svg>
